<?xml version="1.0" encoding="utf-8"?>
<!-- Generator: Adobe Illustrator 15.0.0, SVG Export Plug-In . SVG Version: 6.00 Build 0)  -->
<!DOCTYPE svg PUBLIC "-//W3C//DTD SVG 1.1//EN" "http://www.w3.org/Graphics/SVG/1.1/DTD/svg11.dtd">
<svg version="1.1" xmlns="http://www.w3.org/2000/svg" xmlns:xlink="http://www.w3.org/1999/xlink" x="0px" y="0px" width="200px"
	 height="200px" viewBox="0 0 200 200" enable-background="new 0 0 200 200" xml:space="preserve">
<g id="Quarter_1_" display="none">
	<path display="inline" fill="#ED1C24" d="M-50-100l4.875,7L-50-87.745l-4.75,5.12l4.75,3.084l4.875,3.166L-50-70.36l-4.75,5.86
		l4.75,3.393l4.875,3.482L-50-50l3,3.125L-43.554-50l5.929-5.375L-32.961-50l2.711,3.125L-26.664-50l5.164-4.5l3.394,4.5
		l2.356,3.125L-12.396-50l5.771-5.375L0-50C0-77.614-22.386-100-50-100z"/>
	<path display="inline" fill="#00AEEF" d="M-45.125-76.375L-50-79.541l-4.75-3.084l4.75-5.12L-45.125-93L-50-100
		c-27.614,0-50,22.386-50,50l7.125-7.125L-87.14-50l2.515,3.125L-81.69-50l6.69-7.125L-68.657-50l2.782,3.125l2.82-3.125l6.43-7.125
		L-50-50l4.875-7.625L-50-61.107l-4.75-3.393l4.75-5.86L-45.125-76.375z"/>
	<path display="inline" fill="#39B54A" d="M-47-19.125l-3-2.951l-4.75-4.674l4.75-3.754l3-2.371l-3-3.789l-4.125-5.211L-50-50
		l-6.625-7.125L-63.055-50l-2.82,3.125L-68.657-50L-75-57.125L-81.69-50l-2.935,3.125L-87.14-50l-5.735-7.125L-100-50
		c0,27.614,22.386,50,50,50l3-5.125l-3-3.421l-4.125-4.704L-50-16.651L-47-19.125z"/>
	<path display="inline" fill="#FFF200" d="M-6.625-55.375L-12.396-50l-3.354,3.125L-18.106-50l-3.394-4.5l-5.164,4.5l-3.586,3.125
		L-32.961-50l-4.664-5.375L-43.554-50L-47-46.875L-50-50l-4.125,8.125L-50-36.664l3,3.789l-3,2.371l-4.75,3.754l4.75,4.674l3,2.951
		l-3,2.474l-4.125,3.401L-50-8.546l3,3.421L-50,0C-22.386,0,0-22.386,0-50L-6.625-55.375z"/>
</g>
<g id="Double" display="none">
	<path display="inline" fill="#00AEEF" d="M-50-100c-27.614,0-50,22.386-50,50l7.125-7.125L-87.14-50l2.515,3.125L-81.69-50
		l6.69-7.125L-68.657-50l2.782,3.125l2.82-3.125l6.43-7.125L-50-50l3,3.125L-43.554-50l5.929-5.375L-32.961-50l2.711,3.125
		L-26.664-50l5.164-4.5l3.394,4.5l2.356,3.125L-12.396-50l5.771-5.375L0-50C0-77.614-22.386-100-50-100z"/>
	<path display="inline" fill="#FFF200" d="M-6.625-55.375L-12.396-50l-3.354,3.125L-18.106-50l-3.394-4.5l-5.164,4.5l-3.586,3.125
		L-32.961-50l-4.664-5.375L-43.554-50L-47-46.875L-50-50l-6.625-7.125L-63.055-50l-2.82,3.125L-68.657-50L-75-57.125L-81.69-50
		l-2.935,3.125L-87.14-50l-5.735-7.125L-100-50c0,27.614,22.386,50,50,50S0-22.386,0-50L-6.625-55.375z"/>
</g>
<g id="Simple" display="none">
	<circle display="inline" fill="#FFF200" cx="-50" cy="-50" r="50"/>
</g>
<g id="_x30_011" display="none">
	<path display="inline" fill="#8DC63F" d="M100,50c-27.614,0-50,22.386-50,50l7.125-7.125L62.859,100l2.516,3.125L68.31,100
		L75,92.875L81.343,100l2.782,3.125l2.82-3.125l6.43-7.125L100,100l3,3.125l3.446-3.125l5.929-5.375l4.664,5.375l2.711,3.125
		l3.586-3.125l5.164-4.5l3.394,4.5l2.356,3.125l3.354-3.125l5.771-5.375L150,100C150,72.386,127.614,50,100,50z"/>
	<path display="inline" fill="#00AEEF" d="M143.375,94.625L137.604,100l-3.354,3.125L131.894,100l-3.394-4.5l-5.164,4.5
		l-3.586,3.125L117.039,100l-4.664-5.375L106.446,100L103,103.125L100,100l-6.625-7.125L86.945,100l-2.82,3.125L81.343,100
		L75,92.875L68.31,100l-2.935,3.125L62.859,100l-5.734-7.125L50,100c0,27.614,22.386,50,50,50s50-22.386,50-50L143.375,94.625z"/>
	<path display="inline" fill="#1C738E" d="M140.29,97.498L137.604,100l-3.354,3.125L131.894,100l-3.394-4.5l-5.164,4.5l-3.586,3.125
		L117.039,100l-4.664-5.375L106.446,100L103,103.125L100,100l-6.625-7.125L86.945,100l-2.82,3.125L81.343,100L75,92.875L68.31,100
		l-2.935,3.125L62.859,100l-3.052-3.792c-0.116,1.249-0.183,2.513-0.183,3.792c0,22.299,18.076,40.375,40.375,40.375
		s40.375-18.076,40.375-40.375C140.375,99.159,140.341,98.326,140.29,97.498z"/>
</g>
<g id="Foret" display="none">
	<g display="inline">
		
			<ellipse transform="matrix(0.8902 0.4556 -0.4556 0.8902 49.5724 -41.3657)" fill="#588A3E" cx="110.601" cy="82.157" rx="5.899" ry="5.032"/>
		
			<ellipse transform="matrix(0.8902 0.4555 -0.4555 0.8902 50.6763 -44.7959)" fill="#588A3E" cx="118.288" cy="82.753" rx="6.333" ry="6.161"/>
		
			<ellipse transform="matrix(0.8902 0.4556 -0.4556 0.8902 53.8048 -45.0464)" fill="#588A3E" cx="120.351" cy="89.095" rx="5.94" ry="3.297"/>
		
			<rect x="108.804" y="84.576" transform="matrix(0.8903 0.4554 -0.4554 0.8903 52.255 -42.6933)" fill="#588A3E" width="11.84" height="5.033"/>
	</g>
	
		<rect x="76.671" y="54.351" transform="matrix(0.8279 -0.5608 0.5608 0.8279 -22.2839 55.1322)" display="inline" fill="#9B5524" width="4.066" height="19.061"/>
	<path display="inline" fill="#588A3E" d="M82.834,45.867c2.614,3.86-0.242,10.362-6.383,14.525
		c-6.142,4.164-13.239,4.409-15.855,0.55c-2.617-3.855,0.243-10.361,6.382-14.522C73.118,42.256,80.22,42.011,82.834,45.867z"/>
	<path display="inline" fill="#588A3E" d="M75.75,58.293c1.292,1.906-0.368,5.292-3.715,7.56c-3.344,2.264-7.103,2.558-8.395,0.648
		c-1.294-1.909,0.368-5.293,3.712-7.559C70.694,56.673,74.454,56.384,75.75,58.293z"/>
	
		<rect x="70.047" y="79.622" transform="matrix(0.5412 -0.8409 0.8409 0.5412 -39.2337 99.0528)" display="inline" fill="#9B5524" width="2.212" height="11.716"/>
	<path display="inline" fill="#588A3E" d="M68.985,75.547c2.021,1.297,1.971,4.979-0.11,8.225c-2.081,3.245-5.408,4.824-7.431,3.529
		c-2.021-1.3-1.971-4.982,0.108-8.226C63.636,75.827,66.963,74.248,68.985,75.547z"/>
	
		<rect x="122.556" y="62.574" transform="matrix(0.7951 0.6065 -0.6065 0.7951 67.3288 -60.9335)" display="inline" fill="#9B5524" width="2.573" height="13.203"/>
	<path display="inline" fill="#588A3E" d="M137.098,68.146c-1.666,2.184-6.598,1.219-11.016-2.152
		c-4.419-3.373-6.649-7.876-4.983-10.059c1.668-2.188,6.601-1.221,11.019,2.148C136.534,61.456,138.767,65.96,137.098,68.146z"/>
</g>
<g id="_x32_233" display="none">
	<path display="inline" fill="#F3BE35" d="M100,50c-27.614,0-50,22.386-50,50l7.125-7.125L62.859,100l2.516,3.125L68.31,100
		L75,92.875L81.343,100l2.782,3.125l2.82-3.125l6.43-7.125L100,100l3,3.125l3.446-3.125l5.929-5.375l4.664,5.375l2.711,3.125
		l3.586-3.125l5.164-4.5l3.394,4.5l2.356,3.125l3.354-3.125l5.771-5.375L150,100C150,72.386,127.614,50,100,50z"/>
	<path display="inline" fill="#5E1C37" d="M143.375,94.625L137.604,100l-3.354,3.125L131.894,100l-3.394-4.5l-5.164,4.5
		l-3.586,3.125L117.039,100l-4.664-5.375L106.446,100L103,103.125L100,100l-6.625-7.125L86.945,100l-2.82,3.125L81.343,100
		L75,92.875L68.31,100l-2.935,3.125L62.859,100l-5.734-7.125L50,100c0,27.614,22.386,50,50,50s50-22.386,50-50L143.375,94.625z"/>
</g>
<g id="Marais" display="none">
	<path display="inline" fill="#A01C4D" d="M120.26,124.354c0,0-5.571-2.813-5.01,3.146c0.561,5.961,7.521,0.606,8.24-2.956
		c0.721-3.565-0.066-6.731,1.567-8.377c1.632-1.646,9.164-3.349,9.942-1.792c0,0-8.662,1.146-8.875,4.125
		c-0.25,3.5-2.193,11.134-3.635,12.294c-1.439,1.162-10.694,1.489-10.37-2.13C112.753,121.576,116.049,119.294,120.26,124.354z"/>
	<g display="inline">
		<path fill="#5B4B1E" d="M87.362,129.423c0,0-2.983,11.218-11.506,11.011c-9.408-0.228-16.086,6.718-16.086,6.718
			s2.902-10.114,9.642-12.649c6.75-2.541,5.365-6.746,2.657-12.047"/>
		<polyline fill="#D3C090" points="80.535,137.869 77.873,142.512 75.333,139.416 		"/>
		<polyline fill="#D3C090" points="64.158,141.872 61.121,137.417 65.604,138.468 		"/>
		<polyline fill="#D3C090" points="75.906,133.718 70.295,131.649 74.893,129.211 		"/>
	</g>
	<path display="inline" fill="#A01C4D" d="M76.695,112.125c0,0,0.214-8.959-5.732-4.669c-5.946,4.294,4.512,8.85,8.696,7.388
		c4.188-1.464,5.826-3.476,8.54-2.792c2.71,0.685,6.581,5.969,5.404,7.75c0,0-3.381-4.884-7-4.787
		c-1.342,0.035-14.588,4.868-16.673,4.082c-2.086-0.783-6.656-10.896-2.647-12.809S79.919,103.484,76.695,112.125z"/>
	<g display="inline">
		<path fill="#5B4B1E" d="M133.834,118.521c0,0-0.054,7.804,3.424,8.698c2.646,0.679,9.872,2.248,12.558,5.956
			c1.345,1.855,1.6,5.966-0.871,8.813c-2.103,2.425-7.413,2.677-8.318,1.734c-1.967-2.05-4.105-2.563-1.521-4.841
			c2.584-2.275,3.885,0.389,3.885,0.389s-3.647,0.64-3.408,1.67c0.237,1.03,2.478,1.824,4.122,1.422
			c1.643-0.404,5.782-4.503,3.141-7.549c-2.642-3.047-9.853-1.601-13.022-2.023c-2.188-0.292-6.905-2.457-6.905-2.457"/>
		<polyline fill="#D3C090" points="134.847,126.666 139.447,123.787 138.347,128.764 		"/>
		<polyline fill="#D3C090" points="146.765,131.602 152.959,130.165 149.826,134.944 		"/>
		<polyline fill="#D3C090" points="136.609,131.866 134.188,137.646 132.692,131.442 		"/>
		<polyline fill="#D3C090" points="149.516,139.522 149.959,144.711 146.727,142.056 		"/>
	</g>
	<path display="inline" fill="#A01C4D" d="M80.75,142.898c0,0,6.306-0.982,10.709,1.945c4.724,3.142,9.291,2.394,9.291,2.394
		c-4.725-2.095-6.299-5.835-8.819-5.984C88.133,141.027,80.75,142.898,80.75,142.898z"/>
</g>
<g id="Desert" display="none">
	<g display="inline">
		<path fill="#F3BE35" d="M57.672,57.539c0.273,5.591-2.633,24.941-2.633,24.941s19.574-22.945,19.495-23.212
			C69.239,59.936,60.404,56.94,57.672,57.539z"/>
		<path fill="#C48F2C" d="M53.696,86.534c0,0,5.589-25.642,1.1-29.447c10.942-2.604,13.917,4.306,21.433,0.976
			c-4.234,5.099-12.864-0.656-18.283,0.274C61.315,65.427,53.696,86.534,53.696,86.534z"/>
	</g>
	<g display="inline">
		<path fill="#F3BE35" d="M69.489,47.816c-0.499,5.958-6.445,25.838-6.445,25.838S87.742,53.18,87.693,52.884
			C81.804,52.57,72.565,47.709,69.489,47.816z"/>
		<path fill="#C48F2C" d="M60.995,77.678c0,0,9.779-26.009,5.411-30.893c12.347-0.646,14.614,7.222,23.314,5.149
			c-5.363,4.571-13.982-3.165-20.045-3.222C72.348,56.847,60.995,77.678,60.995,77.678z"/>
	</g>
	<g display="inline">
		<path fill="#F3BE35" d="M83.047,46.665c-1.426,4.762-9.657,19.796-9.657,19.796s23.556-11.759,23.565-12.009
			C92.229,53.014,85.562,47.192,83.047,46.665z"/>
		<path fill="#C48F2C" d="M71.038,69.333c0,0,12.393-19.266,9.683-24.127c10.133,1.948,10.626,8.824,18.044,8.877
			c-5.137,2.655-10.809-5.387-15.721-6.648C83.821,54.608,71.038,69.333,71.038,69.333z"/>
	</g>
	<g display="inline">
		<path fill="#52AD17" d="M133.347,55.866c-1.868,3.637-5.186,5.725-7.408,4.666c-2.223-1.06-2.505-4.867-0.634-8.506
			c1.867-3.636,5.186-5.726,7.406-4.665C134.933,48.42,135.217,52.229,133.347,55.866z"/>
		<path fill="#52AD17" d="M129.354,69.855c-1.098,2.441,2.043,6.104,7.015,8.184c4.977,2.078,9.896,1.784,10.997-0.656
			c1.101-2.439-2.041-6.102-7.013-8.181C135.376,67.122,130.452,67.416,129.354,69.855z"/>
		<g>
			<path fill="#36750D" d="M135.332,50.133c-0.461,0.615-2.087,0.242-3.629-0.834c-1.543-1.078-2.419-2.451-1.954-3.067
				c0.462-0.617,2.09-0.245,3.631,0.833C134.924,48.146,135.799,49.519,135.332,50.133z"/>
			<path fill="#D80E73" d="M135.92,48.553c-1.234,1.095-3.082,1.09-4.127-0.008c-1.045-1.096-0.893-2.869,0.344-3.961
				c1.235-1.092,3.085-1.091,4.128,0.005C137.31,45.688,137.158,47.459,135.92,48.553z"/>
		</g>
		<g>
			<path fill="#36750D" d="M148.914,77.275c-0.555,0.522-2.275-0.313-3.844-1.862c-1.567-1.55-2.391-3.228-1.836-3.749
				c0.556-0.521,2.276,0.313,3.845,1.863C148.646,75.077,149.47,76.755,148.914,77.275z"/>
			<path fill="#D80E73" d="M149.299,75.101c-0.865,0.813-2.426,0.624-3.485-0.423c-1.058-1.047-1.216-2.556-0.351-3.366
				c0.864-0.813,2.427-0.622,3.484,0.423C150.008,72.781,150.163,74.29,149.299,75.101z"/>
		</g>
		<path fill="#52AD17" d="M139.023,57.283c-3.287-3.25-10.699-1.422-16.557,4.078c-3.404,3.197-5.522,6.929-6.064,10.134
			c1.252,0.682,2.604,1.579,3.946,2.659c1.824,1.467,3.315,3.01,4.315,4.383c3.115-0.654,6.624-2.52,9.707-5.414
			C140.228,67.623,142.313,60.532,139.023,57.283z"/>
		<path fill="#52AD17" d="M142.818,59.89c-3.143,0.295-5.503,1.967-5.272,3.729c0.229,1.762,2.964,2.946,6.105,2.648
			c3.139-0.299,5.504-1.968,5.271-3.729C148.695,60.777,145.961,59.59,142.818,59.89z"/>
		<g>
			<path fill="#36750D" d="M147.152,59.662c-0.542,0.221-0.501,1.408,0.095,2.654c0.595,1.246,1.518,2.077,2.059,1.852
				c0.543-0.222,0.503-1.413-0.094-2.655C148.613,60.266,147.693,59.436,147.152,59.662z"/>
			<path fill="#D80E73" d="M148.453,59.509c-1.025,0.681-1.299,1.965-0.615,2.866c0.684,0.902,2.067,1.082,3.089,0.402
				c1.022-0.685,1.3-1.97,0.615-2.869C150.856,59.005,149.477,58.823,148.453,59.509z"/>
		</g>
		<path fill="#36750D" d="M139.023,57.283c0,0-13.949-2.222-21.854,14.603C126.194,57.226,139.023,57.283,139.023,57.283z"/>
		<path fill="#36750D" d="M139.023,57.283c0,0-10.832,2.616-18.675,16.871C129.812,63.224,139.023,57.283,139.023,57.283z"/>
		<path fill="#36750D" d="M139.023,57.283c0,0-1.4,11.591-15.236,20.152C140.77,69.994,139.023,57.283,139.023,57.283z"/>
	</g>
	<g display="inline">
		<path fill="#F3BE35" d="M81.996,72.068c-0.649,3.802-5.801,16.277-5.801,16.277s18.268-11.918,18.249-12.111
			C90.35,75.738,84.147,72.152,81.996,72.068z"/>
		<path fill="#C48F2C" d="M74.563,90.827c0,0,8.135-16.219,5.333-19.576c8.649,0.204,9.835,5.372,16.012,4.476
			c-3.975,2.668-9.6-2.733-13.827-3.073C83.535,78.013,74.563,90.827,74.563,90.827z"/>
	</g>
</g>
<g id="Quarter_-_copie">
	<path fill="#F3BE35" d="M150,100l-7,4.875L137.745,100l-5.12-4.75l-3.084,4.75l-3.166,4.875L120.36,100l-5.86-4.75l-3.393,4.75
		l-3.482,4.875L100,100l-3.125,3l3.125,3.446l5.375,5.929L100,117.039l-3.125,2.711l3.125,3.586l4.5,5.164l-4.5,3.394l-3.125,2.356
		l3.125,3.354l5.375,5.771L100,150C127.614,150,150,127.614,150,100z"/>
	<path fill="#00AEEF" d="M126.375,104.875l3.166-4.875l3.084-4.75l5.12,4.75l5.255,4.875l7-4.875c0-27.614-22.386-50-50-50
		l7.125,7.125L100,62.859l-3.125,2.516L100,68.31l7.125,6.69L100,81.343l-3.125,2.782l3.125,2.82l7.125,6.43L100,100l7.625,4.875
		l3.482-4.875l3.393-4.75l5.86,4.75L126.375,104.875z"/>
	<path fill="#8DC63F" d="M69.125,103l2.951-3l4.674-4.75l3.754,4.75l2.371,3l3.789-3l5.211-4.125L100,100l7.125-6.625L100,86.945
		l-3.125-2.82L100,81.343L107.125,75L100,68.31l-3.125-2.935L100,62.859l7.125-5.734L100,50c-27.614,0-50,22.386-50,50l5.125,3
		l3.421-3l4.704-4.125L66.651,100L69.125,103z"/>
	<path fill="#5E1C37" d="M105.375,143.375L100,137.604l-3.125-3.354l3.125-2.356l4.5-3.394l-4.5-5.164l-3.125-3.586l3.125-2.711
		l5.375-4.664L100,106.446L96.875,103l3.125-3l-8.125-4.125L86.664,100l-3.789,3l-2.371-3l-3.754-4.75L72.076,100l-2.951,3l-2.474-3
		l-3.401-4.125L58.546,100l-3.421,3L50,100c0,27.614,22.386,50,50,50L105.375,143.375z"/>
	<path fill="#1C738E" d="M140.184,102.262c0.041-0.749,0.066-1.502,0.066-2.262c0-20.998-16.082-38.232-36.601-40.078L100,62.859
		l-3.125,2.516L100,68.31l7.125,6.69L100,81.343l-3.125,2.782l3.125,2.82l7.125,6.43L100,100l7.625,4.875l3.482-4.875l3.393-4.75
		l5.86,4.75l6.015,4.875l3.166-4.875l3.084-4.75l5.12,4.75L140.184,102.262z"/>
</g>
<g id="Marais_-_copie">
	<path fill="#A01C4D" d="M67.479,119.169c0,0,2.813-5.571-3.146-5.01c-5.961,0.561-0.606,7.521,2.956,8.24
		c3.565,0.721,6.731-0.066,8.377,1.567c1.646,1.632,3.349,9.164,1.792,9.942c0,0-1.146-8.662-4.125-8.875
		c-3.5-0.25-11.134-2.193-12.294-3.635c-1.162-1.439-1.489-10.694,2.13-10.37C70.258,111.662,72.54,114.958,67.479,119.169z"/>
	<g>
		<path fill="#5B4B1E" d="M96.022,138.519c0,0-7.665,1.461-7.869,5.046c-0.152,2.727-0.291,10.12-3.407,13.475
			c-1.56,1.679-5.543,2.726-8.815,0.854c-2.786-1.593-4.063-6.754-3.314-7.824c1.63-2.327,1.719-4.525,4.454-2.432
			c2.733,2.094,0.372,3.887,0.372,3.887s-1.335-3.454-2.3-3.02c-0.964,0.433-1.309,2.784-0.595,4.319
			c0.715,1.533,5.538,4.799,8.015,1.617c2.477-3.183-0.341-9.977-0.541-13.168c-0.138-2.202,1.071-7.251,1.071-7.251"/>
		<polyline fill="#D3C090" points="88.229,141.092 91.944,145.047 86.85,144.933 		"/>
		<polyline fill="#D3C090" points="85.697,153.74 88.309,159.539 83.012,157.393 		"/>
		<polyline fill="#D3C090" points="83.469,143.829 77.328,142.574 83.125,139.904 		"/>
		<polyline fill="#D3C090" points="78.461,157.976 73.457,159.417 75.435,155.73 		"/>
	</g>
</g>
<g id="Desert_-_copie">
	<g>
		<path fill="#F3BE35" d="M141.779,140.741c-0.273-5.591,2.633-24.941,2.633-24.941s-19.574,22.945-19.495,23.212
			C130.212,138.345,139.047,141.34,141.779,140.741z"/>
		<path fill="#C48F2C" d="M145.755,111.746c0,0-5.589,25.642-1.1,29.447c-10.942,2.604-13.917-4.306-21.433-0.976
			c4.234-5.099,12.864,0.656,18.283-0.274C138.136,132.854,145.755,111.746,145.755,111.746z"/>
	</g>
	<g>
		<path fill="#F3BE35" d="M129.962,150.464c0.499-5.958,6.445-25.838,6.445-25.838s-24.698,20.475-24.649,20.771
			C117.647,145.71,126.886,150.571,129.962,150.464z"/>
		<path fill="#C48F2C" d="M138.456,120.603c0,0-9.779,26.009-5.411,30.893c-12.347,0.646-14.614-7.222-23.314-5.149
			c5.363-4.571,13.982,3.165,20.045,3.222C127.104,141.434,138.456,120.603,138.456,120.603z"/>
	</g>
</g>
<g id="Foret_-_copie">
	<path fill="#588A3E" d="M78.647,68.448c1.824,2.638,0.793,6.513-2.302,8.652c-3.095,2.138-7.082,1.73-8.906-0.91
		c-1.823-2.638-0.793-6.513,2.302-8.65S76.821,65.809,78.647,68.448z"/>
	
		<ellipse transform="matrix(0.8227 -0.5684 0.5684 0.8227 -23.0497 55.7454)" fill="#588A3E" cx="77.852" cy="64.828" rx="7.312" ry="7.113"/>
	<path fill="#305B17" d="M75.114,60.509c2.606-1.8,5.897-1.818,8.386-0.313c-2.333-2.82-6.541-3.395-9.693-1.217
		c-3.322,2.295-4.204,6.774-1.971,10.006c0.114,0.165,0.237,0.319,0.363,0.472C71.022,66.29,72.134,62.568,75.114,60.509z"/>
	
		<ellipse transform="matrix(0.8227 -0.5685 0.5685 0.8227 -22.4848 60.3007)" fill="#588A3E" cx="85.428" cy="66.197" rx="6.857" ry="3.806"/>
	
		<rect x="73.481" y="67.918" transform="matrix(0.8226 -0.5686 0.5686 0.8226 -26.0232 58.2292)" fill="#588A3E" width="13.67" height="5.812"/>
	<path fill="#305B17" d="M74.906,77.883c-2.489,0.379-4.927-0.459-6.281-2.42c-1.464-2.117-1.252-4.956,0.285-7.254
		c-2.43,2.209-3.118,5.599-1.471,7.981C68.991,78.437,72.105,79.06,74.906,77.883z"/>
</g>
<g id="Calque_13" display="none">
	
		<text transform="matrix(0.9512 0.8547 -0.6684 0.7438 109.0439 78.0039)" display="inline" font-family="'MyriadPro-Regular'" font-size="27.9458">0</text>
	
		<text transform="matrix(-1.0162 0.9742 -0.692 -0.7219 120.4873 102.291)" display="inline" font-family="'MyriadPro-Regular'" font-size="30.4023">1</text>
	
		<text transform="matrix(-1.0539 -0.9333 0.663 -0.7486 94.7852 117.4951)" display="inline" font-family="'MyriadPro-Regular'" font-size="30.4023">2</text>
	
		<text transform="matrix(0.9925 -0.9983 0.7092 0.705 77.4375 90.1484)" display="inline" font-family="'MyriadPro-Regular'" font-size="30.4023">3</text>
</g>
</svg>
