<?xml version="1.0" encoding="utf-8"?>
<!-- Generator: Adobe Illustrator 15.0.0, SVG Export Plug-In . SVG Version: 6.00 Build 0)  -->
<!DOCTYPE svg PUBLIC "-//W3C//DTD SVG 1.1//EN" "http://www.w3.org/Graphics/SVG/1.1/DTD/svg11.dtd">
<svg version="1.1" xmlns="http://www.w3.org/2000/svg" xmlns:xlink="http://www.w3.org/1999/xlink" x="0px" y="0px" width="100px"
	 height="100px" viewBox="0 0 100 100" enable-background="new 0 0 100 100" xml:space="preserve">
<g id="World" display="none">
	
		<rect x="50.092" y="50.014" transform="matrix(-0.7034 0.7108 -0.7108 -0.7034 120.956 49.6246)" display="inline" fill="none" width="0.067" height="0.067"/>
	<path display="inline" fill="#ED1C24" d="M13.529,84.282c-0.135-0.144-0.274-0.282-0.408-0.428
		C13.254,84,13.394,84.139,13.529,84.282z"/>
	<path display="inline" fill="#ED1C24" d="M50.047,100.047l5-5v-0.125l-10-10v-0.063l9.968-9.969l-9.968-9.969l10-10l-4.875-4.875
		l-0.047,0.047l4.827,4.828l-10,10l9.968,9.969l-9.968,9.969v0.063l10,10v0.125l-5,5c-1.688,0-3.355-0.086-5-0.249
		c-11.038-1.097-21.018-5.782-28.76-12.872c8.9,8.175,20.77,13.169,33.808,13.169c13.039,0,24.909-4.995,33.81-13.172
		c-7.742,7.092-17.724,11.778-28.763,12.875C53.402,99.961,51.734,100.047,50.047,100.047z"/>
	<path display="inline" fill="#ED1C24" d="M86.881,83.853c-0.143,0.154-0.291,0.303-0.436,0.456
		C86.59,84.155,86.738,84.007,86.881,83.853z"/>
	<path display="inline" fill="#ED1C24" d="M85.378,85.421c-0.384,0.384-0.778,0.756-1.174,1.127
		C84.6,86.177,84.995,85.805,85.378,85.421z"/>
	<path display="inline" fill="#ED1C24" d="M15.765,86.519c-0.384-0.36-0.768-0.723-1.141-1.096
		C14.996,85.796,15.381,86.157,15.765,86.519z"/>
	<path display="inline" fill="#ED1C24" d="M86.502,15.845c0.124,0.132,0.252,0.259,0.374,0.393
		C86.754,16.104,86.626,15.977,86.502,15.845z"/>
	<path display="inline" fill="#ED1C24" d="M13.121,16.239c0.133-0.145,0.271-0.282,0.405-0.426
		C13.393,15.957,13.253,16.095,13.121,16.239z"/>
	<path display="inline" fill="#ED1C24" d="M14.624,14.67c0.37-0.369,0.75-0.729,1.132-1.086C15.375,13.942,14.993,14.3,14.624,14.67
		z"/>
	<path display="inline" fill="#ED1C24" d="M84.266,13.605c0.373,0.351,0.745,0.701,1.107,1.063
		C85.012,14.306,84.638,13.956,84.266,13.605z"/>
	<path display="inline" fill="#ED1C24" d="M49.952,0.047l-5,4.509v0.179l10,10v0.063l-10,10v0.094l10,10v0.031l-10,10l5.125,5.125
		L50.125,50l-5.078-5.078l10-10v-0.031l-10-10v-0.094l10-10v-0.063l-10-10V4.556l5-4.509c1.688,0,3.355,0.086,5,0.25
		c11.036,1.096,21.016,5.78,28.758,12.869C74.904,4.992,63.036,0,50,0C36.962,0,25.094,4.993,16.193,13.168
		c7.741-7.09,17.722-11.775,28.759-12.871C46.597,0.133,48.265,0.047,49.952,0.047z"/>
	<polygon display="inline" fill="#ED1C24" points="44.905,24.844 44.952,24.891 44.952,24.797 	"/>
	<path display="inline" fill="#ED1C24" d="M86.445,84.309c-0.352,0.375-0.704,0.749-1.067,1.112
		C85.742,85.058,86.093,84.683,86.445,84.309z"/>
	<path display="inline" fill="#ED1C24" d="M99.999,50l-4.508-5h-0.18l-10,10h-0.063l-10-10l-0.047-0.047L75.155,45l-10,10h-0.031
		l-10-10l-4.999,5l0.047,0.047l4.952-4.952l10,10h0.031l10-10h0.094l10,10h0.063l10-10h0.18l4.508,5c0,1.688-0.086,3.356-0.25,5
		C98.653,66.131,93.97,76.11,86.881,83.853c8.174-8.9,13.166-20.769,13.166-33.806c0-13.039-4.994-24.909-13.171-33.81
		C93.968,23.979,98.653,33.961,99.749,45C99.913,46.645,99.999,48.313,99.999,50z"/>
	<path display="inline" fill="#ED1C24" d="M84.204,86.548c-0.133,0.124-0.261,0.253-0.395,0.375
		C83.943,86.801,84.071,86.672,84.204,86.548z"/>
	<path display="inline" fill="#ED1C24" d="M85.373,14.668c0.384,0.385,0.758,0.779,1.129,1.177
		C86.13,15.448,85.758,15.052,85.373,14.668z"/>
	<path display="inline" fill="#ED1C24" d="M83.805,13.166c0.156,0.144,0.307,0.294,0.461,0.439
		C84.111,13.46,83.961,13.31,83.805,13.166z"/>
	<path display="inline" fill="#FFF200" d="M99.999,50.094l-4.508-5h-0.18l-10,10h-0.063l-10-10h-0.094l-10,10h-0.031l-10-10
		l-4.952,4.952l4.875,4.875l-10,10l9.968,9.969l-9.968,9.969v0.063l10,10v0.125l-5,5c1.687,0,3.355-0.086,5-0.249
		c11.039-1.097,21.021-5.783,28.763-12.875c0.134-0.122,0.262-0.251,0.395-0.375c0.396-0.371,0.79-0.743,1.174-1.127
		c0.363-0.363,0.716-0.737,1.067-1.112c0.145-0.153,0.293-0.302,0.436-0.456c7.089-7.742,11.772-17.722,12.868-28.758
		C99.913,53.45,99.999,51.782,99.999,50.094z"/>
	<path display="inline" fill="#ED1C24" d="M83.805,13.166C76.063,6.077,66.083,1.393,55.047,0.297c-1.645-0.164-3.313-0.25-5-0.25
		l-5,4.509v0.179l10,10v0.063l-10,10v0.094l10,10v0.031l-10,10L50.125,50l4.999-5l10,10h0.031l10-10l0.047-0.047L75.249,45l10,10
		h0.063l10-10h0.18l4.508,5c0-1.687-0.086-3.355-0.25-5c-1.096-11.039-5.781-21.021-12.873-28.763
		c-0.122-0.134-0.25-0.261-0.374-0.393c-0.371-0.397-0.745-0.792-1.129-1.177c-0.362-0.361-0.734-0.712-1.107-1.063
		C84.111,13.46,83.961,13.31,83.805,13.166z"/>
	<path display="inline" fill="#ED1C24" d="M15.756,13.584c0.146-0.138,0.289-0.28,0.438-0.416
		C16.045,13.304,15.902,13.446,15.756,13.584z"/>
	<path display="inline" fill="#ED1C24" d="M13.526,15.813c0.361-0.386,0.725-0.77,1.098-1.144
		C14.25,15.043,13.889,15.429,13.526,15.813z"/>
	<path display="inline" fill="#ED1C24" d="M0,50.095l5,5h0.125l10-10.001h0.063l9.969,9.97l9.969-9.97l10,10.001l5-5l-0.048-0.047
		L45.125,55l-10-10l-9.969,9.969L15.188,45h-0.063l-10,10H5l-5-5c0-1.688,0.086-3.355,0.25-5
		c1.096-11.038,5.782-21.019,12.872-28.761c-8.175,8.9-13.168,20.77-13.168,33.808s4.994,24.907,13.168,33.808
		C6.031,76.112,1.346,66.132,0.25,55.095C0.086,53.45,0,51.782,0,50.095z"/>
	<path display="inline" fill="#ED1C24" d="M16.192,86.926c-0.145-0.133-0.284-0.272-0.428-0.407
		C15.909,86.653,16.047,86.793,16.192,86.926z"/>
	<path display="inline" fill="#ED1C24" d="M14.624,85.423c-0.372-0.373-0.734-0.756-1.095-1.141
		C13.89,84.666,14.25,85.051,14.624,85.423z"/>
	<path display="inline" fill="#8DC63F" d="M49.953,100.047l5-5v-0.125l-10-10v-0.063l9.968-9.969l-9.968-9.969l10-10l-4.827-4.828
		l-5,5l-10-10.001l-9.969,9.97l-9.969-9.97h-0.063l-10,10.001H5l-5-5c0,1.688,0.086,3.355,0.25,5
		c1.096,11.037,5.782,21.018,12.872,28.76c0.133,0.146,0.273,0.284,0.408,0.428c0.36,0.385,0.723,0.768,1.095,1.141
		c0.373,0.373,0.757,0.735,1.141,1.096c0.144,0.135,0.283,0.274,0.428,0.407c7.742,7.09,17.723,11.775,28.76,12.872
		C46.597,99.961,48.265,100.047,49.953,100.047z"/>
	<path display="inline" fill="#00AEEF" d="M0,50l5,5h0.125l10-10h0.063l9.969,9.969L35.125,45l10,10l4.952-4.953l-5.125-5.125l10-10
		v-0.031l-10-10l-0.047-0.047l0.047-0.047l10-10v-0.063l-10-10V4.556l5-4.509c-1.688,0-3.355,0.086-5,0.25
		C33.915,1.393,23.935,6.078,16.193,13.168c-0.148,0.136-0.291,0.278-0.438,0.416c-0.382,0.357-0.762,0.717-1.132,1.086
		c-0.373,0.374-0.736,0.758-1.098,1.144c-0.134,0.144-0.272,0.281-0.405,0.426C6.031,23.981,1.346,33.962,0.25,45
		C0.086,46.645,0,48.313,0,50z"/>
</g>
<g id="Simple" display="none">
	<circle display="inline" fill="#ED1C24" cx="50" cy="50" r="50"/>
</g>
<g id="Double" display="none">
	<path display="inline" fill="#ED1C24" d="M95.491,45.095h-0.179l-10,10H85.25l-10-10h-0.094l-10,10h-0.031l-10-10l-5.078,5.078
		L50,50.22l-4.875,4.875l-10-10l-9.969,9.969l-9.969-9.969h-0.063l-10,10H5l-5-5c0,1.688,0.086,3.355,0.25,5
		c1.096,11.039,5.783,21.021,12.875,28.763c0.123,0.134,0.251,0.262,0.375,0.395c0.371,0.396,0.744,0.79,1.127,1.174
		c0.364,0.363,0.738,0.716,1.112,1.067c0.153,0.145,0.302,0.293,0.457,0.436c0.502,0.46,1.016,0.909,1.537,1.349
		c0.343,0.291,0.695,0.57,1.046,0.852c0.175,0.14,0.347,0.281,0.523,0.419c0.419,0.327,0.847,0.644,1.277,0.957
		c0.102,0.074,0.203,0.149,0.305,0.223c0.487,0.35,0.98,0.688,1.48,1.021c0.026,0.017,0.052,0.034,0.078,0.052
		c7.902,5.234,17.37,8.294,27.559,8.294s19.656-3.06,27.559-8.295c0.029-0.019,0.058-0.038,0.086-0.057
		c0.498-0.331,0.99-0.67,1.475-1.018c0.104-0.075,0.207-0.151,0.31-0.227c0.43-0.313,0.855-0.629,1.274-0.955
		c0.176-0.138,0.349-0.28,0.523-0.42c0.351-0.28,0.703-0.561,1.046-0.851c0.521-0.439,1.034-0.889,1.537-1.35
		c0.134-0.122,0.261-0.25,0.393-0.374c0.397-0.371,0.792-0.745,1.177-1.129c0.361-0.362,0.712-0.734,1.063-1.107
		c0.146-0.154,0.296-0.305,0.439-0.461C93.97,76.11,98.654,66.131,99.75,55.095c0.164-1.645,0.25-3.313,0.25-5L95.491,45.095z"/>
	<path display="inline" fill="#ED1C24" d="M99.75,45c-1.096-11.037-5.781-21.018-12.871-28.759
		c-0.136-0.148-0.278-0.291-0.416-0.438c-0.357-0.381-0.717-0.761-1.086-1.131c-0.374-0.374-0.758-0.736-1.144-1.098
		c-0.144-0.134-0.281-0.273-0.426-0.406c-0.503-0.46-1.016-0.91-1.537-1.35c-0.343-0.29-0.695-0.569-1.046-0.85
		c-0.175-0.14-0.347-0.282-0.523-0.419c-0.419-0.327-0.846-0.643-1.274-0.956c-0.104-0.075-0.205-0.151-0.31-0.225
		C78.633,9.02,78.14,8.681,77.642,8.35c-0.027-0.019-0.056-0.037-0.083-0.056C69.656,3.06,60.188,0,50,0S30.344,3.06,22.442,8.294
		c-0.028,0.019-0.056,0.037-0.084,0.056c-0.498,0.331-0.99,0.67-1.476,1.019c-0.104,0.074-0.206,0.15-0.309,0.225
		c-0.429,0.313-0.856,0.629-1.275,0.956c-0.176,0.137-0.349,0.28-0.523,0.419c-0.351,0.281-0.703,0.56-1.045,0.85
		c-0.521,0.44-1.035,0.889-1.538,1.35c-0.145,0.133-0.284,0.273-0.428,0.408c-0.384,0.36-0.768,0.723-1.141,1.095
		c-0.373,0.373-0.735,0.757-1.095,1.141c-0.135,0.144-0.274,0.283-0.408,0.428C6.031,23.982,1.346,33.962,0.25,45
		C0.086,46.645,0,48.313,0,50l5,5h0.125l10-10h0.063l9.969,9.969L35.125,45l10,10l4.828-4.828L50,50.125L55.125,45l10,10h0.031
		l10-10l0.047-0.047L75.25,45l10,10h0.063l10-10h0.179L100,50C100,48.313,99.914,46.645,99.75,45z"/>
</g>
<g id="Quarter" display="none">
	
		<rect x="49.967" y="50.139" transform="matrix(-0.7071 -0.7071 0.7071 -0.7071 49.8781 121.0049)" display="inline" fill="none" width="0.067" height="0.067"/>
	<path display="inline" fill="#ED1C24" d="M15.765,13.576c0.144-0.135,0.283-0.274,0.428-0.408
		C16.047,13.302,15.909,13.441,15.765,13.576z"/>
	<path display="inline" fill="#ED1C24" d="M0,50.095l5,5h0.125l10-10h0.063l9.969,9.969l9.969-9.969l10,10L50,50.22l-0.047-0.047
		L45.125,55l-10-10l-9.969,9.969L15.188,45h-0.063l-10,10H5l-5-5c0-1.688,0.086-3.355,0.25-5
		c1.096-11.038,5.782-21.018,12.872-28.76c-8.175,8.9-13.168,20.77-13.168,33.808c0,13.04,4.995,24.91,13.171,33.81
		C6.032,76.115,1.346,66.134,0.25,55.095C0.086,53.45,0,51.782,0,50.095z"/>
	<path display="inline" fill="#ED1C24" d="M16.195,86.929c-0.155-0.143-0.303-0.291-0.457-0.436
		C15.892,86.638,16.04,86.786,16.195,86.929z"/>
	<path display="inline" fill="#ED1C24" d="M14.626,85.426c-0.383-0.384-0.756-0.778-1.127-1.174
		C13.871,84.647,14.242,85.043,14.626,85.426z"/>
	<path display="inline" fill="#ED1C24" d="M13.529,15.812c0.36-0.384,0.723-0.768,1.095-1.141
		C14.251,15.043,13.89,15.428,13.529,15.812z"/>
	<path display="inline" fill="#ED1C24" d="M84.202,86.55c-0.132,0.124-0.259,0.252-0.393,0.374
		C83.943,86.802,84.07,86.674,84.202,86.55z"/>
	<path display="inline" fill="#ED1C24" d="M83.808,13.168c0.145,0.133,0.282,0.271,0.426,0.406
		C84.09,13.44,83.952,13.301,83.808,13.168z"/>
	<path display="inline" fill="#ED1C24" d="M85.377,14.672c0.369,0.37,0.729,0.75,1.086,1.131
		C86.104,15.423,85.747,15.041,85.377,14.672z"/>
	<path display="inline" fill="#ED1C24" d="M86.441,84.313c-0.351,0.373-0.701,0.745-1.063,1.107
		C85.741,85.06,86.091,84.686,86.441,84.313z"/>
	<path display="inline" fill="#ED1C24" d="M100,50l-4.509-5h-0.179l-10,10H85.25l-10-10h-0.094l-10,10h-0.031l-10-10L50,50.125
		l0.047,0.047l5.078-5.078l10,10h0.031l10-10h0.094l10,10h0.063l10-10h0.179l4.509,5c0,1.688-0.086,3.355-0.25,5
		c-1.096,11.036-5.78,21.016-12.869,28.758c8.174-8.9,13.166-20.769,13.166-33.805c0-13.038-4.993-24.906-13.168-33.807
		C93.969,23.982,98.654,33.963,99.75,45C99.914,46.645,100,48.313,100,50z"/>
	<polygon display="inline" fill="#ED1C24" points="75.203,44.953 75.156,45 75.25,45 	"/>
	<path display="inline" fill="#ED1C24" d="M15.738,86.493c-0.375-0.352-0.749-0.704-1.112-1.067
		C14.989,85.79,15.364,86.141,15.738,86.493z"/>
	<path display="inline" fill="#ED1C24" d="M50.047,100.047l5-4.508v-0.18l-10-10v-0.063l10-10l0.047-0.047l-0.047-0.047l-10-10
		v-0.031l10-10l-5-5L50,50.22l4.952,4.952l-10,10v0.031l10,10v0.094l-10,10v0.063l10,10v0.18l-5,4.508c-1.688,0-3.355-0.086-5-0.25
		c-11.036-1.096-21.016-5.779-28.758-12.868c8.9,8.174,20.768,13.166,33.805,13.166c13.039,0,24.909-4.994,33.81-13.171
		c-7.742,7.092-17.724,11.777-28.763,12.873C53.402,99.961,51.734,100.047,50.047,100.047z"/>
	<path display="inline" fill="#ED1C24" d="M13.499,84.252c-0.124-0.133-0.252-0.261-0.375-0.395
		C13.246,83.991,13.375,84.119,13.499,84.252z"/>
	<path display="inline" fill="#ED1C24" d="M85.379,85.421c-0.385,0.384-0.779,0.758-1.177,1.129
		C84.599,86.178,84.995,85.806,85.379,85.421z"/>
	<path display="inline" fill="#ED1C24" d="M86.881,83.853c-0.144,0.156-0.294,0.307-0.439,0.461
		C86.587,84.159,86.737,84.009,86.881,83.853z"/>
	<path display="inline" fill="#ED1C24" d="M49.953,100.047l5-4.508v-0.18l-10-10v-0.063l10-10v-0.094l-10-10v-0.031l10-10L50,50.22
		l-4.875,4.875l-10-10l-9.969,9.969l-9.969-9.969h-0.063l-10,10H5l-5-5c0,1.688,0.086,3.355,0.25,5
		c1.096,11.039,5.783,21.021,12.875,28.763c0.123,0.134,0.251,0.262,0.375,0.395c0.371,0.396,0.744,0.79,1.127,1.174
		c0.364,0.363,0.738,0.716,1.112,1.067c0.153,0.145,0.302,0.293,0.457,0.436c7.742,7.089,17.722,11.772,28.758,12.868
		C46.597,99.961,48.265,100.047,49.953,100.047z"/>
	<path display="inline" fill="#ED1C24" d="M86.881,83.853C93.97,76.11,98.654,66.131,99.75,55.095c0.164-1.645,0.25-3.313,0.25-5
		l-4.509-5h-0.179l-10,10H85.25l-10-10h-0.094l-10,10h-0.031l-10-10l-5.078,5.078l5,5l-10,10v0.031l10,10l0.047,0.047l-0.047,0.047
		l-10,10v0.063l10,10v0.18l-5,4.508c1.687,0,3.355-0.086,5-0.25c11.039-1.096,21.021-5.781,28.763-12.873
		c0.134-0.122,0.261-0.25,0.393-0.374c0.397-0.371,0.792-0.745,1.177-1.129c0.361-0.362,0.712-0.734,1.063-1.107
		C86.587,84.159,86.737,84.009,86.881,83.853z"/>
	<path display="inline" fill="#ED1C24" d="M86.463,15.803c0.138,0.147,0.28,0.289,0.416,0.438
		C86.743,16.092,86.601,15.95,86.463,15.803z"/>
	<path display="inline" fill="#ED1C24" d="M84.233,13.574c0.386,0.361,0.77,0.724,1.144,1.098
		C85.004,14.298,84.618,13.936,84.233,13.574z"/>
	<path display="inline" fill="#ED1C24" d="M49.953,0.047l-5,5v0.125l10,10v0.063l-9.969,9.969l9.969,9.969l-10,10l5,5L50,50.125
		l-4.953-4.953l10-10l-9.968-9.969l9.968-9.969v-0.063l-10-10V5.047l5-5c1.687,0,3.355,0.086,5,0.25
		c11.038,1.096,21.019,5.782,28.761,12.872C74.907,4.994,63.038,0,50,0S25.093,4.994,16.192,13.168
		c7.742-7.09,17.723-11.775,28.76-12.872C46.597,0.134,48.265,0.047,49.953,0.047z"/>
	<path display="inline" fill="#ED1C24" d="M13.121,16.24c0.133-0.145,0.272-0.284,0.408-0.428
		C13.394,15.956,13.254,16.095,13.121,16.24z"/>
	<path display="inline" fill="#ED1C24" d="M14.624,14.671c0.373-0.372,0.756-0.734,1.141-1.095
		C15.381,13.938,14.996,14.298,14.624,14.671z"/>
	<path display="inline" fill="#ED1C24" d="M0,50l5,5h0.125l10-10h0.063l9.969,9.969L35.125,45l10,10l4.828-4.828l-5-5l10-10
		l-9.969-9.969l9.969-9.969v-0.063l-10-10V5.047l5-5c-1.688,0-3.355,0.086-5,0.25c-11.038,1.096-21.018,5.782-28.76,12.872
		c-0.145,0.133-0.284,0.273-0.428,0.408c-0.384,0.36-0.768,0.723-1.141,1.095c-0.373,0.373-0.735,0.757-1.095,1.141
		c-0.135,0.144-0.274,0.283-0.408,0.428C6.031,23.982,1.346,33.962,0.25,45C0.086,46.645,0,48.313,0,50z"/>
	<path display="inline" fill="#ED1C24" d="M50.047,0.047l-5,5v0.125l10,10v0.063l-9.968,9.969l9.968,9.969l-10,10L50,50.125
		L55.125,45l10,10h0.031l10-10l0.047-0.047L75.25,45l10,10h0.063l10-10h0.179L100,50c0-1.688-0.086-3.355-0.25-5
		c-1.096-11.037-5.781-21.018-12.871-28.759c-0.136-0.148-0.278-0.291-0.416-0.438c-0.357-0.381-0.717-0.761-1.086-1.131
		c-0.374-0.374-0.758-0.736-1.144-1.098c-0.144-0.134-0.281-0.273-0.426-0.406C76.065,6.079,66.085,1.393,55.047,0.297
		C53.402,0.134,51.734,0.047,50.047,0.047z"/>
</g>
<g id="Simple_-_copie" display="none">
	<path display="inline" fill="#ED1C24" d="M2.034,64.151c-0.176-0.598-0.334-1.203-0.488-1.81C1.7,62.949,1.858,63.554,2.034,64.151
		z"/>
	<path display="inline" fill="#ED1C24" d="M0.535,57.316c-0.092-0.629-0.166-1.263-0.234-1.898
		C0.37,56.054,0.443,56.688,0.535,57.316z"/>
	<path display="inline" fill="#ED1C24" d="M0.36,44.088c0.055-0.467,0.106-0.935,0.174-1.397C0.466,43.153,0.415,43.621,0.36,44.088
		z"/>
	<path display="inline" fill="#ED1C24" d="M1.432,61.913c-0.149-0.61-0.281-1.228-0.407-1.847
		C1.151,60.686,1.282,61.303,1.432,61.913z"/>
	<path display="inline" fill="#ED1C24" d="M0.69,41.76c0.077-0.463,0.15-0.927,0.239-1.386C0.84,40.833,0.767,41.297,0.69,41.76z"/>
	<path display="inline" fill="#ED1C24" d="M0.931,59.633c-0.122-0.622-0.225-1.251-0.323-1.882
		C0.706,58.382,0.809,59.011,0.931,59.633z"/>
	<path display="inline" fill="#ED1C24" d="M19.087,10.715c0.211-0.167,0.418-0.338,0.632-0.501
		C19.505,10.376,19.298,10.548,19.087,10.715z"/>
	<path display="inline" fill="#ED1C24" d="M12.404,17.057c0.23-0.262,0.456-0.529,0.69-0.786
		C12.859,16.528,12.634,16.794,12.404,17.057z"/>
	<path display="inline" fill="#ED1C24" d="M8.222,22.544c0.221-0.335,0.438-0.674,0.667-1.004
		C8.659,21.87,8.443,22.209,8.222,22.544z"/>
	<path display="inline" fill="#ED1C24" d="M10.927,18.82c0.229-0.287,0.453-0.577,0.688-0.858
		C11.38,18.243,11.156,18.534,10.927,18.82z"/>
	<path display="inline" fill="#ED1C24" d="M9.531,20.652c0.227-0.312,0.448-0.626,0.682-0.933
		C9.979,20.026,9.757,20.341,9.531,20.652z"/>
	<path display="inline" fill="#ED1C24" d="M13.963,15.358c0.228-0.237,0.451-0.479,0.683-0.711
		C14.414,14.88,14.191,15.121,13.963,15.358z"/>
	<path display="inline" fill="#ED1C24" d="M17.306,12.186c0.219-0.189,0.433-0.384,0.655-0.57
		C17.739,11.802,17.525,11.997,17.306,12.186z"/>
	<path display="inline" fill="#ED1C24" d="M15.599,13.734c0.224-0.213,0.443-0.431,0.671-0.639
		C16.042,13.304,15.823,13.521,15.599,13.734z"/>
	<path display="inline" fill="#ED1C24" d="M2.311,34.975c0.138-0.439,0.273-0.88,0.423-1.314
		C2.584,34.095,2.449,34.535,2.311,34.975z"/>
	<path display="inline" fill="#ED1C24" d="M1.127,39.46c0.098-0.456,0.192-0.914,0.303-1.366C1.319,38.546,1.225,39.003,1.127,39.46
		z"/>
	<path display="inline" fill="#ED1C24" d="M7.002,24.493c0.213-0.358,0.421-0.718,0.643-1.07
		C7.423,23.774,7.215,24.135,7.002,24.493z"/>
	<path display="inline" fill="#ED1C24" d="M1.667,37.202c0.119-0.45,0.234-0.901,0.365-1.346
		C1.901,36.301,1.786,36.752,1.667,37.202z"/>
	<path display="inline" fill="#ED1C24" d="M3.057,32.786c0.156-0.426,0.309-0.854,0.476-1.274
		C3.365,31.932,3.213,32.36,3.057,32.786z"/>
	<path display="inline" fill="#ED1C24" d="M5.872,26.498c0.203-0.379,0.401-0.762,0.613-1.135
		C6.273,25.736,6.074,26.118,5.872,26.498z"/>
	<path display="inline" fill="#ED1C24" d="M4.835,28.552c0.19-0.398,0.376-0.8,0.576-1.192C5.211,27.752,5.025,28.153,4.835,28.552z
		"/>
	<path display="inline" fill="#ED1C24" d="M3.899,30.644c0.174-0.413,0.344-0.827,0.528-1.234
		C4.243,29.816,4.073,30.23,3.899,30.644z"/>
	<path display="inline" fill="#ED1C24" d="M0.241,45.116c0.002-0.025,0.004-0.05,0.006-0.076C0.086,46.672,0,48.326,0,50
		c0-0.829,0.022-1.652,0.063-2.472C0.102,46.719,0.163,45.915,0.241,45.116z"/>
	<path display="inline" fill="#ED1C24" d="M26.827,5.695c0.178-0.093,0.352-0.192,0.531-0.283
		C27.179,5.503,27.005,5.603,26.827,5.695z"/>
	<path display="inline" fill="#ED1C24" d="M0,50c0,1.675,0.086,3.33,0.247,4.963c-0.081-0.825-0.143-1.655-0.184-2.491
		C0.022,51.652,0,50.829,0,50z"/>
	<path display="inline" fill="#ED1C24" d="M28.9,4.67c0.17-0.08,0.337-0.165,0.508-0.242C29.237,4.505,29.07,4.59,28.9,4.67z"/>
	<path display="inline" fill="#ED1C24" d="M24.806,6.815c0.186-0.108,0.368-0.223,0.556-0.33
		C25.174,6.592,24.992,6.707,24.806,6.815z"/>
	<path display="inline" fill="#ED1C24" d="M22.837,8.029c0.196-0.126,0.387-0.259,0.584-0.383
		C23.224,7.77,23.033,7.902,22.837,8.029z"/>
	<path display="inline" fill="#ED1C24" d="M20.934,9.327c0.203-0.145,0.401-0.296,0.606-0.438
		C21.334,9.031,21.136,9.182,20.934,9.327z"/>
	<path display="inline" fill="#ED1C24" d="M31.027,3.737c0.161-0.066,0.319-0.138,0.48-0.203
		C31.346,3.599,31.188,3.671,31.027,3.737z"/>
	<path display="inline" fill="#ED1C24" d="M37.653,1.547c0.146-0.037,0.29-0.08,0.437-0.116C37.943,1.467,37.799,1.51,37.653,1.547z
		"/>
	<path display="inline" fill="#ED1C24" d="M39.922,1.027c0.15-0.031,0.298-0.067,0.448-0.097C40.22,0.959,40.072,0.996,39.922,1.027
		z"/>
	<path display="inline" fill="#ED1C24" d="M42.238,0.61c0.15-0.023,0.298-0.053,0.449-0.075C42.536,0.557,42.388,0.586,42.238,0.61z
		"/>
	<path display="inline" fill="#ED1C24" d="M42.674,99.463c-0.107-0.016-0.212-0.037-0.319-0.053
		C42.462,99.427,42.567,99.447,42.674,99.463z"/>
	<path display="inline" fill="#ED1C24" d="M44.702,99.713c0.1,0.011,0.198,0.027,0.298,0.037v-0.001
		C44.9,99.739,44.802,99.724,44.702,99.713z"/>
	<path display="inline" fill="#ED1C24" d="M35.404,2.175c0.15-0.046,0.297-0.097,0.448-0.142
		C35.701,2.078,35.554,2.129,35.404,2.175z"/>
	<path display="inline" fill="#ED1C24" d="M33.191,2.907c0.156-0.056,0.31-0.118,0.466-0.172C33.5,2.79,33.347,2.852,33.191,2.907z"
		/>
	<path display="inline" fill="#ED1C24" d="M31.499,96.462c-0.139-0.056-0.274-0.117-0.412-0.174
		C31.225,96.345,31.36,96.406,31.499,96.462z"/>
	<path display="inline" fill="#ED1C24" d="M40.357,99.067c-0.108-0.021-0.213-0.048-0.321-0.069
		C40.144,99.02,40.25,99.046,40.357,99.067z"/>
	<path display="inline" fill="#ED1C24" d="M27.349,94.583c-0.163-0.083-0.321-0.173-0.483-0.258
		C27.028,94.41,27.187,94.5,27.349,94.583z"/>
	<path display="inline" fill="#ED1C24" d="M25.355,93.511c-0.182-0.104-0.357-0.215-0.538-0.319
		C24.998,93.296,25.173,93.407,25.355,93.511z"/>
	<path display="inline" fill="#ED1C24" d="M38.079,98.566c-0.112-0.027-0.221-0.061-0.332-0.089
		C37.858,98.506,37.967,98.539,38.079,98.566z"/>
	<path display="inline" fill="#ED1C24" d="M45,0.25c-0.143,0.014-0.282,0.037-0.424,0.052C44.718,0.287,44.858,0.265,45,0.251V0.25z
		"/>
	<path display="inline" fill="#ED1C24" d="M29.398,95.568c-0.149-0.067-0.293-0.142-0.441-0.211
		C29.105,95.427,29.25,95.501,29.398,95.568z"/>
	<path display="inline" fill="#ED1C24" d="M35.841,97.963c-0.117-0.034-0.232-0.075-0.349-0.11
		C35.609,97.888,35.724,97.929,35.841,97.963z"/>
	<path display="inline" fill="#ED1C24" d="M33.647,97.261c-0.129-0.044-0.255-0.096-0.384-0.142
		C33.392,97.165,33.518,97.217,33.647,97.261z"/>
	<path display="inline" fill="#ED1C24" d="M70.588,4.425c0.3,0.135,0.592,0.283,0.888,0.424C71.18,4.708,70.888,4.561,70.588,4.425z
		"/>
	<path display="inline" fill="#ED1C24" d="M72.638,5.41c0.3,0.153,0.593,0.317,0.89,0.476C73.23,5.727,72.938,5.563,72.638,5.41z"/>
	<path display="inline" fill="#ED1C24" d="M74.635,6.484c0.301,0.17,0.594,0.353,0.891,0.529
		C75.229,6.836,74.936,6.654,74.635,6.484z"/>
	<path display="inline" fill="#ED1C24" d="M76.575,7.643c0.305,0.191,0.601,0.394,0.9,0.592C77.176,8.037,76.88,7.834,76.575,7.643z
		"/>
	<path display="inline" fill="#ED1C24" d="M89.785,19.717c0.311,0.407,0.607,0.825,0.906,1.242
		C90.393,20.542,90.096,20.124,89.785,19.717z"/>
	<path display="inline" fill="#ED1C24" d="M68.486,3.532c0.3,0.119,0.594,0.25,0.891,0.376C69.08,3.783,68.786,3.651,68.486,3.532z"
		/>
	<path display="inline" fill="#ED1C24" d="M94.586,27.354c0.267,0.524,0.518,1.057,0.767,1.591
		C95.104,28.412,94.853,27.878,94.586,27.354z"/>
	<path display="inline" fill="#ED1C24" d="M92.353,23.418c0.294,0.467,0.573,0.943,0.852,1.42
		C92.926,24.362,92.646,23.885,92.353,23.418z"/>
	<path display="inline" fill="#ED1C24" d="M93.513,25.358c0.28,0.495,0.546,0.999,0.811,1.503
		C94.059,26.357,93.793,25.853,93.513,25.358z"/>
	<path display="inline" fill="#ED1C24" d="M97.262,33.651c0.21,0.605,0.402,1.217,0.588,1.833
		C97.664,34.868,97.472,34.256,97.262,33.651z"/>
	<path display="inline" fill="#ED1C24" d="M96.463,31.502c0.23,0.578,0.444,1.165,0.653,1.753
		C96.907,32.667,96.693,32.081,96.463,31.502z"/>
	<path display="inline" fill="#ED1C24" d="M95.57,29.403c0.25,0.553,0.484,1.115,0.716,1.679
		C96.055,30.518,95.82,29.957,95.57,29.403z"/>
	<path display="inline" fill="#ED1C24" d="M80.278,10.211c0.313,0.238,0.615,0.487,0.922,0.732
		C80.894,10.698,80.591,10.449,80.278,10.211z"/>
	<path display="inline" fill="#ED1C24" d="M82.036,11.614c0.313,0.262,0.617,0.536,0.925,0.806
		C82.653,12.149,82.35,11.876,82.036,11.614z"/>
	<path display="inline" fill="#ED1C24" d="M88.382,17.959c0.314,0.376,0.617,0.764,0.921,1.149
		C88.998,18.723,88.696,18.335,88.382,17.959z"/>
	<path display="inline" fill="#ED1C24" d="M78.458,8.887c0.308,0.213,0.606,0.438,0.909,0.659C79.064,9.325,78.766,9.1,78.458,8.887
		z"/>
	<path display="inline" fill="#ED1C24" d="M83.729,13.093c0.314,0.289,0.62,0.588,0.928,0.884
		C84.348,13.681,84.044,13.381,83.729,13.093z"/>
	<path display="inline" fill="#ED1C24" d="M85.352,14.645c0.316,0.316,0.621,0.644,0.929,0.968
		C85.973,15.289,85.668,14.961,85.352,14.645z"/>
	<path display="inline" fill="#ED1C24" d="M86.903,16.268c0.317,0.347,0.622,0.705,0.93,1.06
		C87.525,16.973,87.221,16.615,86.903,16.268z"/>
	<path display="inline" fill="#ED1C24" d="M71.05,95.354c-0.15,0.07-0.298,0.146-0.449,0.214
		C70.752,95.5,70.899,95.425,71.05,95.354z"/>
	<path display="inline" fill="#ED1C24" d="M75.183,93.191c-0.181,0.104-0.356,0.216-0.537,0.319
		C74.826,93.407,75.002,93.296,75.183,93.191z"/>
	<path display="inline" fill="#ED1C24" d="M77.17,91.966c-0.195,0.127-0.388,0.261-0.586,0.385
		C76.782,92.227,76.975,92.093,77.17,91.966z"/>
	<path display="inline" fill="#ED1C24" d="M79.104,90.645c-0.214,0.154-0.423,0.313-0.64,0.464
		C78.682,90.958,78.891,90.799,79.104,90.645z"/>
	<path display="inline" fill="#ED1C24" d="M97.964,35.844c0.185,0.625,0.352,1.258,0.512,1.893
		C98.315,37.102,98.148,36.469,97.964,35.844z"/>
	<path display="inline" fill="#ED1C24" d="M73.139,94.322c-0.164,0.086-0.324,0.178-0.488,0.262
		C72.815,94.5,72.975,94.408,73.139,94.322z"/>
	<path display="inline" fill="#ED1C24" d="M80.977,89.234c-0.231,0.183-0.458,0.371-0.692,0.55
		C80.519,89.605,80.745,89.417,80.977,89.234z"/>
	<path display="inline" fill="#ED1C24" d="M86.162,84.511c-0.27,0.281-0.534,0.567-0.809,0.843
		C85.628,85.078,85.893,84.792,86.162,84.511z"/>
	<path display="inline" fill="#ED1C24" d="M84.511,86.162c-0.26,0.248-0.516,0.5-0.78,0.742
		C83.995,86.662,84.251,86.41,84.511,86.162z"/>
	<path display="inline" fill="#ED1C24" d="M66.337,2.733c0.302,0.104,0.598,0.221,0.896,0.33
		C66.935,2.954,66.639,2.838,66.337,2.733z"/>
	<path display="inline" fill="#ED1C24" d="M82.778,87.74c-0.246,0.214-0.487,0.433-0.737,0.642
		C82.291,88.173,82.532,87.954,82.778,87.74z"/>
	<path display="inline" fill="#ED1C24" d="M68.915,96.287c-0.139,0.057-0.274,0.119-0.414,0.175
		C68.641,96.406,68.776,96.344,68.915,96.287z"/>
	<path display="inline" fill="#ED1C24" d="M61.904,1.429c0.307,0.075,0.608,0.162,0.913,0.243
		C62.513,1.591,62.211,1.504,61.904,1.429z"/>
	<path display="inline" fill="#ED1C24" d="M59.624,0.929c0.313,0.061,0.622,0.135,0.933,0.202
		C60.246,1.063,59.938,0.99,59.624,0.929z"/>
	<path display="inline" fill="#ED1C24" d="M66.737,97.119c-0.129,0.046-0.256,0.098-0.385,0.142
		C66.481,97.217,66.608,97.165,66.737,97.119z"/>
	<path display="inline" fill="#ED1C24" d="M57.308,0.534c0.318,0.046,0.632,0.106,0.948,0.159C57.939,0.64,57.626,0.58,57.308,0.534
		z"/>
	<path display="inline" fill="#ED1C24" d="M64.142,2.031c0.304,0.09,0.603,0.191,0.904,0.286
		C64.744,2.223,64.446,2.121,64.142,2.031z"/>
	<path display="inline" fill="#ED1C24" d="M64.508,97.853c-0.117,0.035-0.231,0.076-0.349,0.11
		C64.276,97.929,64.391,97.888,64.508,97.853z"/>
	<path display="inline" fill="#ED1C24" d="M57.645,99.41c-0.106,0.016-0.212,0.037-0.319,0.053
		C57.433,99.447,57.538,99.427,57.645,99.41z"/>
	<path display="inline" fill="#ED1C24" d="M62.253,98.478c-0.111,0.028-0.221,0.062-0.332,0.089
		C62.032,98.539,62.142,98.506,62.253,98.478z"/>
	<path display="inline" fill="#ED1C24" d="M59.964,98.998c-0.108,0.021-0.214,0.048-0.321,0.069
		C59.75,99.046,59.855,99.02,59.964,98.998z"/>
	<path display="inline" fill="#ED1C24" d="M91.109,21.537c0.303,0.438,0.593,0.885,0.883,1.333
		C91.702,22.422,91.412,21.974,91.109,21.537z"/>
	<path display="inline" fill="#ED1C24" d="M96.285,68.919c-0.23,0.564-0.466,1.128-0.717,1.682
		C95.819,70.047,96.055,69.483,96.285,68.919z"/>
	<path display="inline" fill="#ED1C24" d="M95.354,71.052c-0.25,0.537-0.502,1.071-0.77,1.598
		C94.852,72.123,95.104,71.589,95.354,71.052z"/>
	<path display="inline" fill="#ED1C24" d="M93.191,75.183c-0.275,0.471-0.551,0.941-0.841,1.401
		C92.641,76.124,92.916,75.653,93.191,75.183z"/>
	<path display="inline" fill="#ED1C24" d="M94.317,73.148c-0.263,0.503-0.527,1.004-0.807,1.497
		C93.79,74.152,94.054,73.651,94.317,73.148z"/>
	<path display="inline" fill="#ED1C24" d="M97.119,66.738c-0.211,0.592-0.426,1.181-0.657,1.762
		C96.693,67.919,96.908,67.33,97.119,66.738z"/>
	<path display="inline" fill="#ED1C24" d="M97.853,64.508c-0.188,0.619-0.381,1.235-0.592,1.845
		C97.472,65.743,97.665,65.127,97.853,64.508z"/>
	<path display="inline" fill="#ED1C24" d="M98.998,59.964c-0.133,0.656-0.273,1.31-0.432,1.957
		C98.725,61.274,98.865,60.62,98.998,59.964z"/>
	<path display="inline" fill="#ED1C24" d="M99.41,57.645c-0.104,0.67-0.214,1.337-0.343,1.998
		C99.196,58.981,99.307,58.314,99.41,57.645z"/>
	<path display="inline" fill="#ED1C24" d="M98.478,62.253c-0.161,0.64-0.329,1.276-0.515,1.906
		C98.148,63.529,98.316,62.893,98.478,62.253z"/>
	<path display="inline" fill="#ED1C24" d="M55.924,0.361c-0.288-0.034-0.573-0.078-0.863-0.107v0.004
		C55.35,0.288,55.636,0.327,55.924,0.361z"/>
	<path display="inline" fill="#ED1C24" d="M100,50c0-1.678-0.086-3.335-0.248-4.971c0.02,0.202,0.029,0.407,0.047,0.609
		C99.924,47.077,100,48.529,100,50z"/>
	<path display="inline" fill="#ED1C24" d="M55,99.75c0.1-0.01,0.198-0.026,0.298-0.037C55.198,99.724,55.1,99.739,55,99.75L55,99.75
		z"/>
	<path display="inline" fill="#ED1C24" d="M90.645,79.104c-0.283,0.396-0.565,0.793-0.86,1.18
		C90.079,79.897,90.361,79.5,90.645,79.104z"/>
	<path display="inline" fill="#ED1C24" d="M91.966,77.17c-0.282,0.435-0.563,0.87-0.857,1.295
		C91.403,78.04,91.684,77.604,91.966,77.17z"/>
	<path display="inline" fill="#ED1C24" d="M87.74,82.778c-0.277,0.318-0.551,0.641-0.836,0.952
		C87.189,83.419,87.463,83.097,87.74,82.778z"/>
	<path display="inline" fill="#ED1C24" d="M89.234,80.977c-0.282,0.356-0.561,0.715-0.853,1.064
		C88.674,81.692,88.952,81.333,89.234,80.977z"/>
	<path display="inline" fill="#ED1C24" d="M99.713,55.298c-0.071,0.68-0.151,1.356-0.25,2.027
		C99.562,56.654,99.642,55.978,99.713,55.298z"/>
	<path display="inline" fill="#ED1C24" d="M99.916,52.784c-0.041,0.733-0.092,1.464-0.164,2.189
		C99.823,54.248,99.876,53.518,99.916,52.784z"/>
	<path display="inline" fill="#ED1C24" d="M98.566,38.082c0.157,0.641,0.296,1.288,0.428,1.938
		C98.862,39.37,98.724,38.722,98.566,38.082z"/>
	<path display="inline" fill="#ED1C24" d="M100,50c0,0.836-0.021,1.668-0.063,2.494C99.978,51.668,100,50.837,100,50z"/>
	<path display="inline" fill="#ED1C24" d="M99.067,40.36c0.128,0.655,0.238,1.316,0.34,1.98
		C99.306,41.677,99.195,41.016,99.067,40.36z"/>
	<path display="inline" fill="#ED1C24" d="M99.464,42.677c0.098,0.667,0.177,1.34,0.248,2.016
		C99.641,44.017,99.562,43.344,99.464,42.677z"/>
	<path display="inline" fill="#ED1C24" d="M45.039,0.247C45.026,0.248,45.013,0.248,45,0.25v0.001
		C45.013,0.25,45.025,0.248,45.039,0.247z"/>
	<path display="inline" fill="#ED1C24" d="M47.505,99.938c-0.097-0.005-0.193-0.016-0.29-0.021
		C47.313,99.922,47.408,99.933,47.505,99.938z"/>
	<path display="inline" fill="#ED1C24" d="M45,99.75c0.009,0.001,0.018,0.001,0.027,0.002C45.018,99.751,45.009,99.75,45,99.75
		L45,99.75z"/>
	<path display="inline" fill="#ED1C24" d="M55.061,0.254c-0.034-0.003-0.067-0.005-0.102-0.008c0.034,0.003,0.067,0.009,0.102,0.012
		V0.254z"/>
	<path display="inline" fill="#ED1C24" d="M54.973,99.752c0.009-0.001,0.019-0.001,0.027-0.002v-0.001
		C54.99,99.75,54.981,99.751,54.973,99.752z"/>
	<path display="inline" fill="#ED1C24" d="M2.174,64.593c-0.045-0.147-0.096-0.293-0.14-0.441C2.078,64.3,2.129,64.445,2.174,64.593
		z"/>
	<path display="inline" fill="#ED1C24" d="M1.024,60.066c-0.03-0.146-0.065-0.288-0.094-0.434
		C0.959,59.778,0.995,59.921,1.024,60.066z"/>
	<path display="inline" fill="#ED1C24" d="M26.866,94.325c-0.507-0.266-1.014-0.532-1.511-0.814
		C25.852,93.793,26.358,94.06,26.866,94.325z"/>
	<path display="inline" fill="#ED1C24" d="M28.957,95.357c-0.54-0.251-1.079-0.505-1.608-0.774
		C27.878,94.853,28.417,95.106,28.957,95.357z"/>
	<path display="inline" fill="#ED1C24" d="M1.546,62.342c-0.037-0.144-0.079-0.285-0.114-0.429
		C1.467,62.057,1.509,62.198,1.546,62.342z"/>
	<path display="inline" fill="#ED1C24" d="M31.087,96.288c-0.567-0.232-1.132-0.468-1.688-0.72
		C29.955,95.82,30.52,96.056,31.087,96.288z"/>
	<path display="inline" fill="#ED1C24" d="M61.921,98.566c-0.647,0.158-1.301,0.299-1.957,0.432
		C60.62,98.865,61.274,98.725,61.921,98.566z"/>
	<path display="inline" fill="#ED1C24" d="M76.584,92.351c-0.46,0.29-0.931,0.565-1.401,0.841
		C75.653,92.916,76.124,92.641,76.584,92.351z"/>
	<path display="inline" fill="#ED1C24" d="M74.646,93.511c-0.496,0.281-1.001,0.547-1.507,0.812
		C73.645,94.058,74.149,93.792,74.646,93.511z"/>
	<path display="inline" fill="#ED1C24" d="M50,100c1.679,0,3.336-0.086,4.973-0.248c-0.203,0.02-0.408,0.029-0.611,0.047
		C52.923,99.924,51.471,100,50,100z"/>
	<path display="inline" fill="#ED1C24" d="M78.465,91.108c-0.425,0.294-0.86,0.575-1.295,0.857
		C77.604,91.684,78.04,91.403,78.465,91.108z"/>
	<path display="inline" fill="#ED1C24" d="M70.601,95.568c-0.556,0.252-1.119,0.487-1.686,0.719
		C69.481,96.056,70.045,95.82,70.601,95.568z"/>
	<path display="inline" fill="#ED1C24" d="M72.65,94.584c-0.527,0.268-1.063,0.521-1.601,0.771
		C71.587,95.104,72.123,94.852,72.65,94.584z"/>
	<path display="inline" fill="#ED1C24" d="M80.284,89.784c-0.387,0.295-0.784,0.577-1.18,0.86
		C79.5,90.361,79.897,90.079,80.284,89.784z"/>
	<path display="inline" fill="#ED1C24" d="M86.162,84.511c0.248-0.26,0.5-0.516,0.742-0.78
		C86.662,83.995,86.41,84.251,86.162,84.511z"/>
	<path display="inline" fill="#ED1C24" d="M85.354,85.354c-0.275,0.274-0.562,0.539-0.843,0.809
		C84.792,85.893,85.078,85.628,85.354,85.354z"/>
	<path display="inline" fill="#ED1C24" d="M83.73,86.904c-0.312,0.285-0.634,0.559-0.952,0.836
		C83.097,87.463,83.419,87.189,83.73,86.904z"/>
	<path display="inline" fill="#ED1C24" d="M82.041,88.382c-0.35,0.292-0.708,0.57-1.064,0.853
		C81.333,88.952,81.692,88.674,82.041,88.382z"/>
	<path display="inline" fill="#ED1C24" d="M0.25,55c0.014,0.141,0.037,0.278,0.051,0.418c-0.015-0.14-0.036-0.277-0.05-0.418H0.25z"
		/>
	<path display="inline" fill="#ED1C24" d="M35.492,97.853c-0.619-0.188-1.236-0.381-1.845-0.592
		C34.256,97.472,34.873,97.665,35.492,97.853z"/>
	<path display="inline" fill="#ED1C24" d="M40.037,98.998c-0.657-0.133-1.311-0.273-1.958-0.432
		C38.726,98.725,39.38,98.865,40.037,98.998z"/>
	<path display="inline" fill="#ED1C24" d="M42.355,99.41c-0.67-0.104-1.337-0.214-1.998-0.343
		C41.018,99.196,41.686,99.307,42.355,99.41z"/>
	<path display="inline" fill="#ED1C24" d="M44.702,99.713c-0.68-0.071-1.356-0.151-2.028-0.25
		C43.346,99.562,44.022,99.642,44.702,99.713z"/>
	<path display="inline" fill="#ED1C24" d="M68.501,96.462c-0.582,0.231-1.172,0.447-1.764,0.657
		C67.329,96.909,67.919,96.693,68.501,96.462z"/>
	<path display="inline" fill="#ED1C24" d="M33.263,97.119c-0.592-0.21-1.182-0.426-1.764-0.657
		C32.081,96.693,32.671,96.909,33.263,97.119z"/>
	<path display="inline" fill="#ED1C24" d="M37.747,98.478c-0.64-0.161-1.277-0.329-1.906-0.515
		C36.471,98.148,37.107,98.316,37.747,98.478z"/>
	<path display="inline" fill="#ED1C24" d="M47.215,99.916c-0.733-0.041-1.464-0.092-2.188-0.164
		C45.751,99.823,46.482,99.876,47.215,99.916z"/>
	<path display="inline" fill="#ED1C24" d="M64.159,97.963c-0.63,0.186-1.267,0.354-1.906,0.515
		C62.893,98.316,63.529,98.148,64.159,97.963z"/>
	<path display="inline" fill="#ED1C24" d="M66.353,97.261c-0.609,0.211-1.226,0.404-1.845,0.592
		C65.127,97.665,65.743,97.472,66.353,97.261z"/>
	<path display="inline" fill="#ED1C24" d="M57.325,99.463c-0.671,0.099-1.348,0.179-2.027,0.25
		C55.978,99.642,56.654,99.562,57.325,99.463z"/>
	<path display="inline" fill="#ED1C24" d="M0.608,57.751c-0.023-0.146-0.051-0.289-0.073-0.435
		C0.557,57.462,0.585,57.605,0.608,57.751z"/>
	<path display="inline" fill="#ED1C24" d="M50,100c-0.836,0-1.668-0.021-2.495-0.063C48.332,99.978,49.163,100,50,100z"/>
	<path display="inline" fill="#ED1C24" d="M59.643,99.067c-0.661,0.129-1.328,0.239-1.998,0.343
		C58.314,99.307,58.981,99.196,59.643,99.067z"/>
	<path display="inline" fill="#ED1C24" d="M96.462,68.5c-0.056,0.142-0.119,0.278-0.177,0.419
		C96.343,68.778,96.406,68.642,96.462,68.5z"/>
	<path display="inline" fill="#ED1C24" d="M95.568,70.601c-0.068,0.152-0.145,0.301-0.215,0.451
		C95.424,70.901,95.5,70.753,95.568,70.601z"/>
	<path display="inline" fill="#ED1C24" d="M99.713,55.298c0.011-0.1,0.027-0.198,0.037-0.298h-0.001
		C99.739,55.1,99.724,55.198,99.713,55.298z"/>
	<path display="inline" fill="#ED1C24" d="M99.067,59.643c-0.021,0.107-0.048,0.213-0.069,0.321
		C99.02,59.855,99.046,59.75,99.067,59.643z"/>
	<path display="inline" fill="#ED1C24" d="M97.963,64.159c-0.034,0.117-0.075,0.231-0.11,0.349
		C97.888,64.391,97.929,64.276,97.963,64.159z"/>
	<path display="inline" fill="#ED1C24" d="M98.566,61.921c-0.027,0.111-0.061,0.221-0.089,0.332
		C98.506,62.142,98.539,62.032,98.566,61.921z"/>
	<path display="inline" fill="#ED1C24" d="M97.261,66.353c-0.045,0.13-0.096,0.257-0.142,0.386
		C97.165,66.609,97.216,66.482,97.261,66.353z"/>
	<path display="inline" fill="#ED1C24" d="M92.351,76.584c-0.124,0.198-0.258,0.391-0.385,0.586
		C92.093,76.975,92.227,76.782,92.351,76.584z"/>
	<path display="inline" fill="#ED1C24" d="M94.584,72.649c-0.086,0.168-0.18,0.332-0.267,0.499
		C94.404,72.981,94.498,72.817,94.584,72.649z"/>
	<path display="inline" fill="#ED1C24" d="M91.108,78.465c-0.15,0.217-0.31,0.426-0.464,0.64
		C90.799,78.891,90.958,78.682,91.108,78.465z"/>
	<path display="inline" fill="#ED1C24" d="M88.382,82.041c-0.209,0.25-0.428,0.491-0.642,0.737
		C87.954,82.532,88.173,82.291,88.382,82.041z"/>
	<path display="inline" fill="#ED1C24" d="M89.784,80.284c-0.179,0.234-0.367,0.461-0.55,0.692
		C89.417,80.745,89.605,80.519,89.784,80.284z"/>
	<path display="inline" fill="#ED1C24" d="M93.511,74.646c-0.104,0.181-0.215,0.356-0.319,0.537
		C93.296,75.002,93.407,74.826,93.511,74.646z"/>
	<path display="inline" fill="#ED1C24" d="M99.463,57.325c-0.016,0.107-0.037,0.213-0.053,0.319
		C99.427,57.538,99.447,57.433,99.463,57.325z"/>
	<polygon display="inline" fill="#ED1C24" points="55.047,80.328 55,80.281 55,80.375 	"/>
	<polygon display="inline" fill="#ED1C24" points="45,90.438 45,90.375 44.969,90.406 	"/>
	<polygon display="inline" fill="#ED1C24" points="44.984,70.266 45,70.281 45,70.25 	"/>
	<path display="inline" fill="#ED1C24" d="M0.063,47.528C0.022,48.348,0,49.171,0,50s0.022,1.652,0.063,2.472V47.528z"/>
	<path display="inline" fill="#ED1C24" d="M58.256,0.692c0.457,0.076,0.915,0.148,1.368,0.236
		C59.171,0.84,58.713,0.769,58.256,0.692z"/>
	<path display="inline" fill="#ED1C24" d="M98.476,37.737c0.028,0.116,0.063,0.229,0.091,0.345
		C98.539,37.966,98.504,37.853,98.476,37.737z"/>
	<path display="inline" fill="#ED1C24" d="M50,0c-1.675,0-3.329,0.086-4.961,0.247c0.824-0.081,1.654-0.143,2.49-0.184
		C48.348,0.022,49.171,0,50,0z"/>
	<path display="inline" fill="#ED1C24" d="M55.924,0.361c0.462,0.055,0.926,0.105,1.384,0.172
		C56.85,0.466,56.386,0.416,55.924,0.361z"/>
	<path display="inline" fill="#ED1C24" d="M54.885,0.241c0.024,0.002,0.049,0.004,0.074,0.005C53.327,0.085,51.674,0,50,0
		c0.829,0,1.652,0.022,2.472,0.063C53.281,0.102,54.085,0.163,54.885,0.241z"/>
	<path display="inline" fill="#ED1C24" d="M94.323,26.862c0.086,0.165,0.178,0.327,0.263,0.493
		C94.501,27.188,94.409,27.027,94.323,26.862z"/>
	<path display="inline" fill="#ED1C24" d="M33.657,2.735c0.577-0.199,1.161-0.381,1.747-0.56
		C34.818,2.354,34.234,2.536,33.657,2.735z"/>
	<path display="inline" fill="#ED1C24" d="M95.353,28.946c0.071,0.153,0.147,0.303,0.218,0.458
		C95.5,29.249,95.424,29.099,95.353,28.946z"/>
	<path display="inline" fill="#ED1C24" d="M87.833,17.328c0.183,0.211,0.37,0.417,0.549,0.631
		C88.203,17.745,88.016,17.539,87.833,17.328z"/>
	<path display="inline" fill="#ED1C24" d="M17.961,11.616c0.369-0.308,0.748-0.604,1.125-0.901
		C18.709,11.013,18.33,11.308,17.961,11.616z"/>
	<path display="inline" fill="#ED1C24" d="M35.852,2.034c0.595-0.175,1.197-0.333,1.801-0.487
		C37.049,1.701,36.447,1.858,35.852,2.034z"/>
	<path display="inline" fill="#ED1C24" d="M40.37,0.93c0.618-0.121,1.242-0.223,1.868-0.32C41.612,0.708,40.988,0.81,40.37,0.93z"/>
	<path display="inline" fill="#ED1C24" d="M99.407,42.341c0.018,0.112,0.04,0.223,0.057,0.336
		C99.447,42.564,99.425,42.453,99.407,42.341z"/>
	<path display="inline" fill="#ED1C24" d="M97.116,33.256c0.048,0.132,0.1,0.262,0.146,0.395
		C97.216,33.518,97.164,33.388,97.116,33.256z"/>
	<path display="inline" fill="#ED1C24" d="M42.687,0.535c0.625-0.092,1.256-0.165,1.889-0.233
		C43.943,0.37,43.312,0.443,42.687,0.535z"/>
	<path display="inline" fill="#ED1C24" d="M38.09,1.431c0.605-0.148,1.218-0.278,1.832-0.404C39.308,1.153,38.695,1.283,38.09,1.431
		z"/>
	<path display="inline" fill="#ED1C24" d="M84.656,13.977c0.231,0.223,0.468,0.441,0.695,0.668
		C85.124,14.418,84.888,14.2,84.656,13.977z"/>
	<path display="inline" fill="#ED1C24" d="M75.525,7.013c0.351,0.209,0.705,0.414,1.05,0.63C76.23,7.426,75.876,7.222,75.525,7.013z
		"/>
	<path display="inline" fill="#ED1C24" d="M73.527,5.885c0.371,0.198,0.743,0.392,1.107,0.599
		C74.271,6.277,73.898,6.083,73.527,5.885z"/>
	<path display="inline" fill="#ED1C24" d="M91.992,22.869c0.119,0.184,0.244,0.364,0.36,0.549
		C92.236,23.233,92.111,23.053,91.992,22.869z"/>
	<path display="inline" fill="#ED1C24" d="M89.303,19.108c0.159,0.204,0.325,0.402,0.482,0.608
		C89.628,19.511,89.462,19.312,89.303,19.108z"/>
	<path display="inline" fill="#ED1C24" d="M77.476,8.235c0.328,0.216,0.659,0.428,0.982,0.652
		C78.135,8.663,77.804,8.451,77.476,8.235z"/>
	<path display="inline" fill="#ED1C24" d="M82.961,12.419c0.256,0.224,0.516,0.444,0.768,0.673
		C83.477,12.863,83.217,12.644,82.961,12.419z"/>
	<path display="inline" fill="#ED1C24" d="M60.557,1.131c0.45,0.097,0.902,0.189,1.348,0.298C61.458,1.32,61.007,1.228,60.557,1.131
		z"/>
	<path display="inline" fill="#ED1C24" d="M90.691,20.958c0.138,0.193,0.282,0.383,0.418,0.578
		C90.974,21.341,90.829,21.152,90.691,20.958z"/>
	<path display="inline" fill="#ED1C24" d="M79.367,9.545c0.305,0.221,0.612,0.438,0.911,0.666
		C79.979,9.983,79.672,9.767,79.367,9.545z"/>
	<path display="inline" fill="#ED1C24" d="M65.046,2.317c0.432,0.136,0.865,0.269,1.291,0.416
		C65.911,2.586,65.478,2.454,65.046,2.317z"/>
	<path display="inline" fill="#ED1C24" d="M71.476,4.849c0.389,0.185,0.779,0.366,1.162,0.561
		C72.255,5.215,71.864,5.034,71.476,4.849z"/>
	<path display="inline" fill="#ED1C24" d="M0.36,44.088c-0.034,0.285-0.077,0.566-0.106,0.852h0.004
		C0.287,44.654,0.326,44.372,0.36,44.088z"/>
	<path display="inline" fill="#ED1C24" d="M97.85,35.483c0.037,0.121,0.079,0.239,0.114,0.36
		C97.928,35.723,97.887,35.604,97.85,35.483z"/>
	<path display="inline" fill="#ED1C24" d="M62.817,1.672c0.442,0.117,0.887,0.23,1.324,0.359C63.704,1.902,63.26,1.789,62.817,1.672
		z"/>
	<path display="inline" fill="#ED1C24" d="M69.377,3.908c0.405,0.17,0.812,0.336,1.211,0.517
		C70.188,4.245,69.782,4.078,69.377,3.908z"/>
	<path display="inline" fill="#ED1C24" d="M93.204,24.839c0.102,0.174,0.209,0.344,0.309,0.52
		C93.413,25.183,93.306,25.013,93.204,24.839z"/>
	<path display="inline" fill="#ED1C24" d="M86.28,15.613c0.208,0.219,0.42,0.433,0.623,0.655
		C86.7,16.046,86.488,15.832,86.28,15.613z"/>
	<path display="inline" fill="#ED1C24" d="M67.233,3.063c0.419,0.154,0.84,0.304,1.253,0.469
		C68.073,3.367,67.652,3.217,67.233,3.063z"/>
	<path display="inline" fill="#ED1C24" d="M99.75,45c-0.01-0.103-0.027-0.204-0.038-0.307C99.723,44.796,99.738,44.897,99.75,45
		L99.75,45z"/>
	<path display="inline" fill="#ED1C24" d="M2.734,33.661c0.102-0.294,0.215-0.583,0.322-0.875
		C2.949,33.078,2.836,33.366,2.734,33.661z"/>
	<path display="inline" fill="#ED1C24" d="M1.43,38.094c0.073-0.3,0.159-0.595,0.237-0.893C1.588,37.5,1.503,37.794,1.43,38.094z"/>
	<path display="inline" fill="#ED1C24" d="M98.994,40.02c0.023,0.114,0.051,0.226,0.073,0.34
		C99.045,40.246,99.018,40.134,98.994,40.02z"/>
	<path display="inline" fill="#ED1C24" d="M3.533,31.512c0.117-0.292,0.245-0.579,0.366-0.868
		C3.777,30.933,3.649,31.219,3.533,31.512z"/>
	<path display="inline" fill="#ED1C24" d="M2.032,35.856c0.087-0.296,0.187-0.587,0.279-0.881
		C2.219,35.269,2.119,35.56,2.032,35.856z"/>
	<path display="inline" fill="#ED1C24" d="M0.929,40.374c0.06-0.307,0.132-0.609,0.198-0.914
		C1.062,39.765,0.989,40.067,0.929,40.374z"/>
	<path display="inline" fill="#ED1C24" d="M19.719,10.213c0.398-0.304,0.807-0.594,1.215-0.886
		C20.525,9.619,20.117,9.91,19.719,10.213z"/>
	<path display="inline" fill="#ED1C24" d="M21.54,8.889c0.426-0.295,0.862-0.577,1.298-0.86C22.402,8.312,21.966,8.593,21.54,8.889z
		"/>
	<path display="inline" fill="#ED1C24" d="M0.534,42.69c0.046-0.312,0.104-0.62,0.156-0.93C0.638,42.07,0.58,42.378,0.534,42.69z"/>
	<path display="inline" fill="#ED1C24" d="M4.427,29.409c0.131-0.289,0.273-0.571,0.409-0.857C4.7,28.838,4.558,29.12,4.427,29.409z
		"/>
	<path display="inline" fill="#ED1C24" d="M5.412,27.359c0.147-0.291,0.307-0.574,0.46-0.861
		C5.718,26.785,5.559,27.068,5.412,27.359z"/>
	<path display="inline" fill="#ED1C24" d="M11.615,17.962c0.257-0.307,0.525-0.604,0.789-0.905
		C12.14,17.357,11.872,17.655,11.615,17.962z"/>
	<path display="inline" fill="#ED1C24" d="M16.27,13.095c0.339-0.31,0.688-0.608,1.036-0.909
		C16.958,12.487,16.609,12.785,16.27,13.095z"/>
	<path display="inline" fill="#ED1C24" d="M10.212,19.72c0.232-0.305,0.476-0.6,0.715-0.899
		C10.688,19.12,10.444,19.415,10.212,19.72z"/>
	<path display="inline" fill="#ED1C24" d="M14.646,14.647c0.311-0.311,0.633-0.611,0.952-0.914
		C15.279,14.037,14.958,14.336,14.646,14.647z"/>
	<path display="inline" fill="#ED1C24" d="M8.888,21.54c0.208-0.3,0.428-0.592,0.643-0.888C9.316,20.948,9.097,21.24,8.888,21.54z"
		/>
	<path display="inline" fill="#ED1C24" d="M6.485,25.363c0.167-0.294,0.345-0.58,0.517-0.87C6.83,24.783,6.651,25.069,6.485,25.363z
		"/>
	<path display="inline" fill="#ED1C24" d="M7.645,23.423c0.187-0.297,0.385-0.586,0.577-0.878
		C8.029,22.837,7.831,23.126,7.645,23.423z"/>
	<path display="inline" fill="#ED1C24" d="M13.094,16.271c0.284-0.31,0.578-0.609,0.869-0.912
		C13.672,15.661,13.378,15.96,13.094,16.271z"/>
	<path display="inline" fill="#ED1C24" d="M29.408,4.428c0.533-0.242,1.076-0.467,1.619-0.69C30.484,3.96,29.941,4.186,29.408,4.428
		z"/>
	<path display="inline" fill="#ED1C24" d="M25.362,6.486c0.482-0.274,0.974-0.533,1.465-0.791
		C26.335,5.954,25.844,6.212,25.362,6.486z"/>
	<path display="inline" fill="#ED1C24" d="M27.358,5.412c0.507-0.258,1.024-0.501,1.542-0.742
		C28.382,4.911,27.866,5.154,27.358,5.412z"/>
	<path display="inline" fill="#ED1C24" d="M31.508,3.535c0.555-0.221,1.119-0.426,1.683-0.627
		C32.626,3.109,32.063,3.313,31.508,3.535z"/>
	<path display="inline" fill="#ED1C24" d="M96.286,31.082c0.058,0.141,0.12,0.279,0.177,0.42
		C96.406,31.361,96.344,31.223,96.286,31.082z"/>
	<path display="inline" fill="#ED1C24" d="M23.422,7.646c0.455-0.286,0.92-0.558,1.384-0.83C24.341,7.087,23.877,7.359,23.422,7.646
		z"/>
	<path display="inline" fill="#ED1C24" d="M52.472,0.063C51.652,0.022,50.829,0,50,0s-1.652,0.022-2.472,0.063H52.472z"/>
	<polygon display="inline" fill="#ED1C24" points="44.938,10.188 45,10.25 45,10.125 	"/>
	<polygon display="inline" fill="#ED1C24" points="55.031,20.281 55,20.25 55,20.313 	"/>
	<polygon display="inline" fill="#ED1C24" points="10.188,55.063 10.25,55 10.125,55 	"/>
	<polygon display="inline" fill="#ED1C24" points="80.328,44.953 80.281,45 80.375,45 	"/>
	<polygon display="inline" fill="#ED1C24" points="20.281,44.969 20.25,45 20.313,45 	"/>
	<polygon display="inline" fill="#ED1C24" points="90.406,55.031 90.438,55 90.375,55 	"/>
	<polygon display="inline" fill="#ED1C24" points="70.266,55.016 70.281,55 70.25,55 	"/>
	<path display="inline" fill="#ED1C24" d="M0.247,54.963C0.248,54.976,0.248,54.988,0.25,55h0.001
		C0.25,54.987,0.248,54.976,0.247,54.963z"/>
	<path display="inline" fill="#8DC63F" d="M44.984,70.266L45,70.25l10-10L49.75,55l-4.5-5L45,49.75L40.25,45l-9.969,9.969L20.313,45
		H20.25l-10,10l-0.063,0.063L10.125,55l-9.884-9.884c-0.078,0.799-0.139,1.603-0.178,2.413v4.943
		c0.041,0.836,0.103,1.666,0.184,2.491C0.248,54.976,0.25,54.987,0.251,55c0.014,0.141,0.035,0.278,0.05,0.418
		c0.069,0.636,0.142,1.27,0.234,1.898c0.021,0.146,0.05,0.289,0.073,0.435c0.098,0.631,0.201,1.26,0.323,1.882
		c0.028,0.146,0.064,0.288,0.094,0.434c0.126,0.619,0.258,1.236,0.407,1.847c0.035,0.144,0.078,0.285,0.114,0.429
		c0.154,0.606,0.313,1.212,0.488,1.81c0.044,0.148,0.095,0.294,0.14,0.441c0.179,0.588,0.362,1.175,0.563,1.753
		c0.053,0.155,0.114,0.307,0.169,0.461c0.202,0.566,0.408,1.132,0.63,1.688c0.064,0.161,0.136,0.318,0.202,0.479
		c0.224,0.545,0.45,1.088,0.691,1.623c0.078,0.17,0.163,0.336,0.242,0.506c0.241,0.518,0.484,1.035,0.743,1.543
		c0.093,0.183,0.194,0.36,0.289,0.541c0.256,0.488,0.513,0.977,0.785,1.455c0.11,0.195,0.23,0.384,0.343,0.577
		c0.268,0.457,0.535,0.915,0.816,1.362c0.132,0.21,0.273,0.413,0.408,0.621c0.275,0.423,0.549,0.847,0.836,1.261
		c0.156,0.225,0.321,0.441,0.48,0.663c0.278,0.388,0.554,0.777,0.843,1.156c0.185,0.242,0.379,0.476,0.568,0.715
		c0.276,0.349,0.549,0.7,0.834,1.042c0.214,0.256,0.438,0.503,0.657,0.754c0.272,0.313,0.541,0.631,0.821,0.937
		c0.245,0.269,0.501,0.526,0.752,0.79c0.266,0.278,0.527,0.561,0.799,0.833c0.278,0.278,0.567,0.546,0.852,0.817
		c0.257,0.245,0.509,0.494,0.771,0.734c0.314,0.287,0.64,0.563,0.961,0.843c0.243,0.212,0.481,0.428,0.729,0.635
		c0.352,0.294,0.714,0.575,1.073,0.859c0.229,0.18,0.452,0.366,0.684,0.543c0.39,0.297,0.79,0.581,1.188,0.866
		c0.211,0.151,0.417,0.309,0.631,0.457c0.426,0.296,0.863,0.577,1.298,0.86c0.195,0.126,0.386,0.259,0.583,0.383
		c0.461,0.29,0.931,0.565,1.402,0.841c0.18,0.104,0.356,0.216,0.538,0.319c0.497,0.282,1.003,0.549,1.511,0.814
		c0.162,0.085,0.321,0.175,0.483,0.258c0.529,0.27,1.068,0.523,1.608,0.774c0.148,0.069,0.292,0.144,0.441,0.211
		c0.556,0.252,1.121,0.487,1.688,0.72c0.138,0.057,0.273,0.118,0.412,0.174c0.582,0.231,1.172,0.447,1.764,0.657
		c0.129,0.046,0.255,0.098,0.384,0.142c0.609,0.211,1.226,0.404,1.845,0.592c0.117,0.035,0.231,0.076,0.349,0.11
		c0.629,0.186,1.267,0.354,1.906,0.515c0.111,0.028,0.22,0.062,0.332,0.089c0.647,0.158,1.301,0.299,1.958,0.432
		c0.107,0.021,0.213,0.048,0.321,0.069c0.661,0.129,1.328,0.239,1.998,0.343c0.106,0.016,0.212,0.037,0.319,0.053
		c0.671,0.099,1.348,0.179,2.028,0.25c0.1,0.011,0.198,0.026,0.298,0.036c0.009,0.001,0.018,0.002,0.027,0.003
		c0.725,0.072,1.455,0.123,2.188,0.164c0.097,0.006,0.193,0.017,0.29,0.021C48.332,99.979,49.164,100,50,100
		c1.471,0,2.923-0.076,4.361-0.201L45,90.438l-0.031-0.031L45,90.375l10-10v-0.094l-10-10L44.984,70.266z"/>
	<path display="inline" fill="#ED1C24" d="M99.938,52.494c-0.005,0.098-0.016,0.193-0.021,0.29
		C99.922,52.688,99.933,52.592,99.938,52.494z"/>
	<path display="inline" fill="#ED1C24" d="M99.75,55c0.001-0.009,0.001-0.018,0.002-0.026C99.751,54.982,99.75,54.991,99.75,55
		L99.75,55z"/>
	<path display="inline" fill="#FFF200" d="M99.799,45.639L90.438,55l-0.031,0.031L90.375,55l-10-10h-0.094l-10,10l-0.016,0.016
		L70.25,55l-10-10L55,50.25l-5.055,4.945l0,0L55,60.25l-10,10v0.031l10,10l0.047,0.047L55,80.375l-10,10v0.063l9.361,9.361
		c0.203-0.018,0.408-0.027,0.611-0.047c0.009-0.001,0.018-0.002,0.027-0.003c0.1-0.01,0.198-0.025,0.298-0.036
		c0.68-0.071,1.356-0.151,2.027-0.25c0.107-0.016,0.213-0.037,0.319-0.053c0.67-0.104,1.337-0.214,1.998-0.343
		c0.107-0.021,0.213-0.048,0.321-0.069c0.656-0.133,1.31-0.273,1.957-0.432c0.111-0.027,0.221-0.061,0.332-0.089
		c0.64-0.161,1.276-0.329,1.906-0.515c0.117-0.034,0.231-0.075,0.349-0.11c0.619-0.188,1.235-0.381,1.845-0.592
		c0.129-0.044,0.256-0.096,0.385-0.142c0.592-0.21,1.182-0.426,1.764-0.657c0.14-0.056,0.275-0.118,0.414-0.175
		c0.566-0.231,1.13-0.467,1.686-0.719c0.151-0.068,0.299-0.144,0.449-0.214c0.537-0.25,1.073-0.503,1.601-0.771
		c0.164-0.084,0.324-0.176,0.488-0.262c0.506-0.265,1.011-0.53,1.507-0.812c0.181-0.104,0.356-0.215,0.537-0.319
		c0.471-0.275,0.941-0.551,1.401-0.841c0.198-0.124,0.391-0.258,0.586-0.385c0.435-0.282,0.87-0.563,1.295-0.857
		c0.217-0.15,0.426-0.31,0.64-0.464c0.396-0.283,0.793-0.565,1.18-0.86c0.234-0.179,0.461-0.367,0.692-0.55
		c0.356-0.282,0.715-0.561,1.064-0.853c0.25-0.209,0.491-0.428,0.737-0.642c0.318-0.277,0.641-0.551,0.952-0.836
		c0.265-0.242,0.521-0.494,0.78-0.742c0.281-0.27,0.567-0.534,0.843-0.809c0.274-0.275,0.539-0.562,0.809-0.843
		c0.248-0.26,0.5-0.516,0.742-0.78c0.285-0.312,0.559-0.634,0.836-0.952c0.214-0.246,0.433-0.487,0.642-0.737
		c0.292-0.35,0.57-0.708,0.853-1.064c0.183-0.231,0.371-0.458,0.55-0.692c0.295-0.387,0.577-0.784,0.86-1.18
		c0.154-0.214,0.313-0.423,0.464-0.64c0.294-0.425,0.575-0.86,0.857-1.295c0.127-0.195,0.261-0.388,0.385-0.586
		c0.29-0.46,0.565-0.931,0.841-1.401c0.104-0.181,0.216-0.356,0.319-0.537c0.279-0.493,0.544-0.994,0.807-1.497
		c0.087-0.167,0.181-0.331,0.267-0.499c0.268-0.526,0.52-1.061,0.77-1.598c0.07-0.15,0.146-0.299,0.215-0.451
		c0.251-0.554,0.486-1.117,0.717-1.682c0.058-0.141,0.121-0.277,0.177-0.419c0.231-0.581,0.446-1.17,0.657-1.762
		c0.046-0.129,0.097-0.256,0.142-0.386c0.211-0.609,0.404-1.226,0.592-1.845c0.035-0.117,0.076-0.231,0.11-0.349
		c0.186-0.63,0.354-1.267,0.515-1.906c0.028-0.111,0.062-0.221,0.089-0.332c0.158-0.647,0.299-1.301,0.432-1.957
		c0.021-0.108,0.048-0.214,0.069-0.321c0.129-0.661,0.239-1.328,0.343-1.998c0.016-0.106,0.037-0.212,0.053-0.319
		c0.099-0.671,0.179-1.348,0.25-2.027c0.011-0.1,0.026-0.198,0.036-0.298c0.001-0.009,0.002-0.018,0.003-0.026
		c0.072-0.726,0.123-1.456,0.164-2.189c0.006-0.097,0.017-0.192,0.021-0.29C99.979,51.668,100,50.836,100,50
		C100,48.529,99.924,47.077,99.799,45.639z"/>
	<path display="inline" fill="#ED1C24" d="M0.254,44.94c-0.003,0.033-0.005,0.067-0.007,0.1c0.003-0.033,0.008-0.066,0.012-0.1
		H0.254z"/>
	<path display="inline" fill="#00AEEF" d="M55,20.25l-10-10l-0.063-0.063L45,10.125l9.885-9.884c-0.8-0.078-1.604-0.139-2.413-0.178
		h-4.943c-0.836,0.041-1.666,0.103-2.49,0.184C45.025,0.248,45.013,0.25,45,0.251c-0.142,0.014-0.282,0.036-0.424,0.051
		c-0.633,0.068-1.264,0.141-1.889,0.233c-0.151,0.022-0.299,0.052-0.449,0.075c-0.626,0.098-1.25,0.2-1.868,0.32
		c-0.15,0.029-0.298,0.066-0.448,0.097c-0.614,0.126-1.227,0.256-1.832,0.404c-0.147,0.036-0.291,0.079-0.437,0.116
		c-0.604,0.154-1.206,0.312-1.801,0.487c-0.15,0.044-0.298,0.096-0.448,0.142c-0.586,0.179-1.17,0.361-1.747,0.56
		c-0.157,0.054-0.31,0.116-0.466,0.172c-0.564,0.202-1.128,0.406-1.683,0.627c-0.162,0.064-0.319,0.136-0.48,0.203
		c-0.543,0.223-1.086,0.449-1.619,0.69C29.237,4.505,29.07,4.59,28.9,4.67c-0.518,0.241-1.034,0.484-1.542,0.742
		c-0.179,0.091-0.354,0.19-0.531,0.283c-0.492,0.258-0.983,0.517-1.465,0.791c-0.188,0.106-0.37,0.221-0.556,0.33
		c-0.464,0.272-0.929,0.544-1.384,0.83c-0.198,0.124-0.389,0.257-0.584,0.383c-0.436,0.283-0.872,0.564-1.298,0.86
		c-0.205,0.143-0.403,0.293-0.606,0.438c-0.408,0.292-0.816,0.583-1.215,0.886c-0.214,0.163-0.421,0.335-0.632,0.501
		c-0.378,0.297-0.757,0.593-1.125,0.901c-0.222,0.186-0.436,0.38-0.655,0.57c-0.348,0.301-0.697,0.599-1.036,0.909
		c-0.228,0.208-0.447,0.426-0.671,0.639c-0.319,0.303-0.641,0.603-0.952,0.914c-0.232,0.232-0.455,0.474-0.683,0.711
		c-0.291,0.303-0.585,0.602-0.869,0.912c-0.235,0.257-0.46,0.524-0.69,0.786c-0.264,0.301-0.532,0.598-0.789,0.905
		c-0.235,0.281-0.459,0.572-0.688,0.858c-0.239,0.299-0.482,0.595-0.715,0.899c-0.233,0.306-0.455,0.621-0.682,0.933
		c-0.215,0.296-0.434,0.587-0.643,0.888c-0.229,0.33-0.445,0.669-0.667,1.004c-0.192,0.292-0.391,0.582-0.577,0.878
		c-0.221,0.352-0.43,0.712-0.643,1.07c-0.172,0.29-0.351,0.576-0.517,0.87c-0.212,0.374-0.411,0.756-0.613,1.135
		c-0.153,0.287-0.313,0.571-0.46,0.861c-0.2,0.393-0.386,0.794-0.576,1.192C4.7,28.838,4.558,29.12,4.427,29.409
		c-0.184,0.407-0.354,0.821-0.528,1.234c-0.122,0.29-0.25,0.576-0.366,0.868c-0.167,0.42-0.32,0.848-0.476,1.274
		c-0.107,0.292-0.221,0.58-0.322,0.875c-0.15,0.434-0.285,0.875-0.423,1.314c-0.092,0.294-0.192,0.585-0.279,0.881
		c-0.131,0.445-0.247,0.896-0.365,1.346C1.588,37.5,1.503,37.794,1.43,38.094c-0.11,0.452-0.205,0.91-0.303,1.366
		c-0.065,0.305-0.138,0.607-0.198,0.914C0.84,40.833,0.767,41.297,0.69,41.76c-0.052,0.31-0.11,0.618-0.156,0.93
		c-0.068,0.463-0.119,0.931-0.174,1.397c-0.034,0.284-0.073,0.566-0.102,0.852c-0.003,0.034-0.008,0.067-0.012,0.1
		c-0.002,0.025-0.003,0.051-0.006,0.076L10.125,55h0.125l10-10l0.031-0.031L20.313,45l9.969,9.969L40.25,45L45,49.75L45.25,50l5-5
		L55,40.25l-9.969-9.969L55,20.313V20.25z"/>
	<path display="inline" fill="#ED1C24" d="M99.752,45.029c-0.001-0.01-0.001-0.02-0.002-0.029h-0.001
		C99.75,45.01,99.751,45.02,99.752,45.029z"/>
	<path display="inline" fill="#ED1C24" d="M99.752,45.029c-0.001-0.01-0.002-0.02-0.003-0.029c-0.011-0.103-0.026-0.204-0.037-0.307
		c-0.071-0.676-0.15-1.349-0.248-2.016c-0.017-0.113-0.039-0.224-0.057-0.336c-0.102-0.664-0.212-1.325-0.34-1.98
		c-0.022-0.114-0.05-0.227-0.073-0.34c-0.132-0.65-0.271-1.298-0.428-1.938c-0.027-0.116-0.063-0.229-0.091-0.345
		c-0.16-0.635-0.327-1.268-0.512-1.893c-0.035-0.121-0.077-0.239-0.114-0.36c-0.186-0.615-0.378-1.228-0.588-1.833
		c-0.046-0.133-0.098-0.263-0.146-0.395c-0.209-0.589-0.423-1.175-0.653-1.753c-0.057-0.142-0.119-0.28-0.177-0.42
		c-0.231-0.564-0.466-1.125-0.716-1.679c-0.07-0.154-0.146-0.304-0.218-0.458c-0.249-0.534-0.5-1.067-0.767-1.591
		c-0.085-0.166-0.177-0.328-0.263-0.493c-0.265-0.505-0.53-1.009-0.811-1.503c-0.1-0.175-0.207-0.345-0.309-0.52
		c-0.278-0.477-0.558-0.954-0.852-1.42c-0.116-0.186-0.241-0.365-0.36-0.549c-0.29-0.447-0.58-0.895-0.883-1.333
		c-0.136-0.195-0.28-0.385-0.418-0.578c-0.299-0.417-0.596-0.834-0.906-1.242c-0.157-0.206-0.323-0.405-0.482-0.608
		c-0.304-0.386-0.606-0.773-0.921-1.149c-0.179-0.214-0.366-0.42-0.549-0.631c-0.308-0.355-0.612-0.713-0.93-1.06
		c-0.203-0.222-0.415-0.436-0.623-0.655c-0.308-0.325-0.612-0.652-0.929-0.968c-0.228-0.227-0.464-0.445-0.695-0.668
		c-0.308-0.296-0.613-0.596-0.928-0.884c-0.252-0.229-0.512-0.449-0.768-0.673c-0.308-0.27-0.611-0.543-0.925-0.806
		c-0.274-0.229-0.558-0.447-0.836-0.67c-0.307-0.245-0.609-0.495-0.922-0.732c-0.299-0.228-0.606-0.444-0.911-0.666
		c-0.303-0.22-0.602-0.445-0.909-0.659c-0.323-0.224-0.654-0.436-0.982-0.652c-0.3-0.198-0.596-0.4-0.9-0.592
		c-0.345-0.217-0.699-0.421-1.05-0.63c-0.297-0.176-0.59-0.358-0.891-0.529c-0.364-0.207-0.736-0.401-1.107-0.599
		c-0.297-0.159-0.59-0.323-0.89-0.476c-0.383-0.195-0.773-0.375-1.162-0.561c-0.296-0.141-0.588-0.289-0.888-0.424
		c-0.399-0.181-0.806-0.347-1.211-0.517c-0.297-0.125-0.591-0.257-0.891-0.376c-0.413-0.165-0.834-0.315-1.253-0.469
		c-0.299-0.109-0.595-0.226-0.896-0.33c-0.426-0.147-0.859-0.28-1.291-0.416c-0.302-0.095-0.601-0.196-0.904-0.286
		c-0.438-0.129-0.882-0.242-1.324-0.359c-0.305-0.081-0.606-0.168-0.913-0.243c-0.445-0.109-0.897-0.202-1.348-0.298
		c-0.311-0.067-0.619-0.141-0.933-0.202c-0.453-0.088-0.911-0.16-1.368-0.236c-0.316-0.053-0.63-0.112-0.948-0.159
		c-0.458-0.067-0.922-0.118-1.384-0.172c-0.288-0.034-0.574-0.074-0.863-0.103c-0.034-0.003-0.067-0.009-0.102-0.012
		c-0.025-0.001-0.05-0.003-0.074-0.005L45,10.125v0.125l10,10l0.031,0.031L55,20.313l-9.969,9.969L55,40.25L50.25,45l-5,5
		l4.695,5.195L55,50.25L60.25,45l10,10h0.031l10-10l0.047-0.047L80.375,45l10,10h0.063l9.361-9.361
		C99.781,45.436,99.771,45.231,99.752,45.029z"/>
</g>
<g id="Calque_7" display="none">
	<g display="inline">
		<path fill="#FFF200" d="M50,50v50c27.614,0,50-22.386,50-50H50z"/>
		<g>
			<path fill="#ED1C24" d="M50,0v50h50C100,22.386,77.614,0,50,0z"/>
			<path fill="#00AEEF" d="M0,50h50V0C22.386,0,0,22.386,0,50z"/>
		</g>
		<path fill="#39B54A" d="M0,50c0,27.614,22.386,50,50,50V50H0z"/>
	</g>
	<g display="inline">
		<line fill="none" x1="0" y1="50" x2="7.125" y2="42.875"/>
		<line fill="none" x1="15.375" y1="53.125" x2="7.125" y2="42.875"/>
		<line fill="none" x1="15.375" y1="53.125" x2="25" y2="42.875"/>
		<line fill="none" x1="25" y1="42.875" x2="34.125" y2="53.125"/>
		<line fill="none" x1="34.125" y1="53.125" x2="43.375" y2="42.875"/>
		<line fill="none" x1="43.375" y1="42.875" x2="50" y2="50"/>
		<line fill="none" x1="50" y1="50" x2="53" y2="53.125"/>
		<line fill="none" x1="53" y1="53.125" x2="62.375" y2="44.625"/>
		<line fill="none" x1="62.375" y1="44.625" x2="69.75" y2="53.125"/>
		<line fill="none" x1="69.75" y1="53.125" x2="78.5" y2="45.5"/>
		<line fill="none" x1="78.5" y1="45.5" x2="84.25" y2="53.125"/>
		<line fill="none" x1="84.25" y1="53.125" x2="93.375" y2="44.625"/>
		<line fill="none" x1="93.375" y1="44.625" x2="100" y2="50"/>
	</g>
	<g display="inline">
		<line fill="none" x1="45.25" y1="73.25" x2="53" y2="80.875"/>
		<g>
			<line fill="none" x1="50" y1="0" x2="54.875" y2="7"/>
			<line fill="none" x1="54.875" y1="7" x2="45.25" y2="17.375"/>
			<line fill="none" x1="45.25" y1="17.375" x2="54.875" y2="23.625"/>
			<line fill="none" x1="54.875" y1="23.625" x2="45.25" y2="35.5"/>
			<line fill="none" x1="45.25" y1="35.5" x2="54.875" y2="42.375"/>
			<line fill="none" x1="54.875" y1="42.375" x2="50" y2="50"/>
			<line fill="none" x1="50" y1="50" x2="45.875" y2="58.125"/>
			<line fill="none" x1="45.875" y1="58.125" x2="53" y2="67.125"/>
			<line fill="none" x1="53" y1="67.125" x2="45.25" y2="73.25"/>
			<line fill="none" x1="53" y1="80.875" x2="45.875" y2="86.75"/>
			<line fill="none" x1="45.875" y1="86.75" x2="53" y2="94.875"/>
			<line fill="none" x1="53" y1="94.875" x2="50" y2="100"/>
		</g>
	</g>
</g>
<g id="Calque_7_-_copie">
	<path fill="#ED1C24" d="M50,0l4.875,7L50,12.255l-4.75,5.12L50,20.459l4.875,3.166L50,29.64l-4.75,5.86L50,38.893l4.875,3.482
		L50,50l3,3.125L56.446,50l5.929-5.375L67.039,50l2.711,3.125L73.336,50l5.164-4.5l3.394,4.5l2.356,3.125L87.604,50l5.771-5.375
		L100,50C100,22.386,77.614,0,50,0z"/>
	<path fill="#00AEEF" d="M54.875,23.625L50,20.459l-4.75-3.084l4.75-5.12L54.875,7L50,0C22.386,0,0,22.386,0,50l7.125-7.125
		L12.86,50l2.515,3.125L18.31,50L25,42.875L31.343,50l2.782,3.125L36.945,50l6.43-7.125L50,50l4.875-7.625L50,38.893L45.25,35.5
		L50,29.64L54.875,23.625z"/>
	<path fill="#39B54A" d="M53,80.875l-3-2.951l-4.75-4.674L50,69.496l3-2.371l-3-3.789l-4.125-5.211L50,50l-6.625-7.125L36.945,50
		l-2.82,3.125L31.343,50L25,42.875L18.31,50l-2.935,3.125L12.86,50l-5.735-7.125L0,50c0,27.614,22.386,50,50,50l3-5.125l-3-3.421
		l-4.125-4.704L50,83.349L53,80.875z"/>
	<path fill="#FFF200" d="M93.375,44.625L87.604,50l-3.354,3.125L81.894,50L78.5,45.5L73.336,50l-3.586,3.125L67.039,50l-4.664-5.375
		L56.446,50L53,53.125L50,50l-4.125,8.125L50,63.336l3,3.789l-3,2.371l-4.75,3.754L50,77.924l3,2.951l-3,2.474l-4.125,3.401
		L50,91.454l3,3.421L50,100c27.614,0,50-22.386,50-50L93.375,44.625z"/>
</g>
<g id="Split" display="none">
	<polygon display="inline" fill="none" points="10.188,55.063 10.25,55 10.125,55 	"/>
	<polygon display="inline" fill="none" points="80.328,44.953 80.281,45 80.375,45 	"/>
	<polygon display="inline" fill="none" points="20.281,44.969 20.25,45 20.313,45 	"/>
	<polygon display="inline" fill="none" points="100.531,44.906 100.438,45 100.616,45 	"/>
	<polygon display="inline" fill="none" points="90.406,55.031 90.438,55 90.375,55 	"/>
	<polygon display="inline" fill="none" points="70.266,55.016 70.281,55 70.25,55 	"/>
	<g display="inline">
		<polygon fill="none" points="30.281,54.969 20.313,45 20.25,45 10.25,55 50.25,55 40.25,45 		"/>
		<polygon fill="none" points="0.063,55 10.125,55 0.063,44.938 		"/>
		<polygon fill="none" points="100.438,45 90.438,55 105.125,55 105.125,50 100.616,45 		"/>
		<polygon fill="none" points="80.281,45 70.281,55 90.375,55 80.375,45 		"/>
		<polygon fill="none" points="50.25,55 70.25,55 60.25,45 		"/>
	</g>
	<g display="inline">
		<polygon fill="none" points="40.25,45 20.313,45 30.281,54.969 		"/>
		<polygon fill="none" points="5.125,45 0.063,44.938 10.125,55 10.25,55 20.25,45 		"/>
		<polygon fill="none" points="40.25,45 50.25,55 60.25,45 		"/>
		<polygon fill="none" points="100.616,45 105.125,50 105.125,45 		"/>
		<polygon fill="none" points="80.375,45 90.375,55 90.438,55 100.438,45 		"/>
		<polygon fill="none" points="60.25,45 70.25,55 70.281,55 80.281,45 		"/>
	</g>
</g>
</svg>
