<?xml version="1.0" encoding="utf-8"?>
<!-- Generator: Adobe Illustrator 15.0.0, SVG Export Plug-In . SVG Version: 6.00 Build 0)  -->
<!DOCTYPE svg PUBLIC "-//W3C//DTD SVG 1.1//EN" "http://www.w3.org/Graphics/SVG/1.1/DTD/svg11.dtd">
<svg version="1.1" xmlns="http://www.w3.org/2000/svg" xmlns:xlink="http://www.w3.org/1999/xlink" x="0px" y="0px" width="100px"
	 height="100px" viewBox="0 0 100 100" enable-background="new 0 0 100 100" xml:space="preserve">
<g id="Calque_1">
	<path fill="#EDEFEF" d="M50,100c27.614,0,50-22.386,50-50H50V100z"/>
	<path fill="#EDEFEF" d="M0,50c0,27.614,22.386,50,50,50V50H0z"/>
	<polygon fill="#33211C" points="99.299,50.701 100,50 98.598,50 	"/>
	<polygon fill="#33211C" points="83.253,50.581 83.834,50 82.672,50 	"/>
	<polygon fill="#33211C" points="68.848,53.043 71.891,50 65.805,50 	"/>
	<polygon fill="#33211C" points="94.926,50.754 95.68,50 94.172,50 	"/>
	<polygon fill="#EDEFEF" points="71.891,50 82.672,50 77.281,44.61 	"/>
	<polygon fill="#EDEFEF" points="97.139,48.542 95.68,50 98.598,50 	"/>
	<path fill="#33211C" d="M98.598,50H100c0-27.614-22.386-50-50-50v50h2.667l6.568-6.568L65.805,50h6.086l5.391-5.39L82.672,50h1.162
		l5.169-5.169L94.172,50h1.508l1.459-1.458L98.598,50z"/>
	<polygon fill="#EDEFEF" points="83.834,50 94.172,50 89.003,44.831 	"/>
	<polygon fill="#EDEFEF" points="52.667,50 65.805,50 59.235,43.432 	"/>
	<line fill="none" x1="14.156" y1="52.101" x2="21.045" y2="45.212"/>
	<g>
		<polygon fill="#33211C" points="27.667,51.834 29.5,50 25.833,50 		"/>
		<polygon fill="#33211C" points="14.156,52.101 16.257,50 12.056,50 		"/>
		<polygon fill="#33211C" points="41.134,50.633 41.768,50 40.501,50 		"/>
		<polygon fill="#EDEFEF" points="0,50 12.056,50 6.028,43.972 		"/>
		<polygon fill="#EDEFEF" points="16.257,50 25.833,50 21.045,45.212 		"/>
		<polygon fill="#EDEFEF" points="29.5,50 40.501,50 35.001,44.5 		"/>
		<path fill="#33211C" d="M50,0C22.386,0,0,22.386,0,50l6.028-6.028L12.056,50h4.201l4.788-4.788L25.833,50H29.5l5.5-5.5l5.5,5.5
			h1.267l3.95-3.95l3.95,3.95H50V0z"/>
		<polygon fill="#EDEFEF" points="41.768,50 49.667,50 45.717,46.05 		"/>
	</g>
	<polyline fill="#33211C" points="52.667,50 51.25,51.417 49.667,50 	"/>
</g>
<g id="Calque_3">
	<polyline fill="none" points="0,50 6.028,43.972 14.156,52.101 21.045,45.212 27.667,51.834 35.001,44.5 41.134,50.633 
		45.717,46.05 51.167,51.5 59.235,43.432 68.848,53.043 77.281,44.61 83.253,50.581 89.003,44.831 94.926,50.754 97.139,48.542 
		99.299,50.701 100,50 	"/>
</g>
<g id="Calque_2">
	
		<ellipse transform="matrix(0.7071 0.7071 -0.7071 0.7071 55.8014 -1.9767)" fill="#C4C4C3" cx="30.287" cy="66.365" rx="7.002" ry="3.536"/>
	
		<ellipse transform="matrix(0.7027 -0.7115 0.7115 0.7027 -22.5782 66.3384)" fill="#C4C4C3" cx="68.086" cy="60.185" rx="4.809" ry="2.193"/>
	
		<ellipse transform="matrix(0.9708 -0.2399 0.2399 0.9708 -17.387 15.5935)" fill="#C4C4C3" cx="55.353" cy="79.209" rx="3.688" ry="2.152"/>
	
		<ellipse transform="matrix(0.96 0.2799 -0.2799 0.96 26.4476 -5.1731)" fill="#C4C4C3" cx="31.334" cy="90.001" rx="3.248" ry="1.854"/>
	
		<ellipse transform="matrix(0.2719 0.9623 -0.9623 0.2719 60.97 31.5172)" fill="#C4C4C3" cx="9.656" cy="56.052" rx="5.375" ry="3.607"/>
	
		<ellipse transform="matrix(0.7329 -0.6803 0.6803 0.7329 -33.8092 76.6495)" fill="#C4C4C3" cx="80.722" cy="81.387" rx="5.722" ry="2.844"/>
	
		<ellipse transform="matrix(-0.0897 0.996 -0.996 -0.0897 158.7286 -25.8462)" fill="#C4C4C3" cx="91.175" cy="59.611" rx="4.402" ry="2.143"/>
</g>
</svg>
