<?xml version="1.0" encoding="utf-8"?>
<!-- Generator: Adobe Illustrator 15.0.0, SVG Export Plug-In . SVG Version: 6.00 Build 0)  -->
<!DOCTYPE svg PUBLIC "-//W3C//DTD SVG 1.1//EN" "http://www.w3.org/Graphics/SVG/1.1/DTD/svg11.dtd">
<svg version="1.1" xmlns="http://www.w3.org/2000/svg" xmlns:xlink="http://www.w3.org/1999/xlink" x="0px" y="0px" width="200px"
	 height="200px" viewBox="0 0 200 200" enable-background="new 0 0 200 200" xml:space="preserve">
<g id="Quarter_1_" display="none">
	<path display="inline" fill="#ED1C24" d="M-50-100l4.875,7L-50-87.745l-4.75,5.12l4.75,3.084l4.875,3.166L-50-70.36l-4.75,5.86
		l4.75,3.393l4.875,3.482L-50-50l3,3.125L-43.554-50l5.929-5.375L-32.961-50l2.711,3.125L-26.664-50l5.164-4.5l3.394,4.5
		l2.356,3.125L-12.396-50l5.771-5.375L0-50C0-77.614-22.386-100-50-100z"/>
	<path display="inline" fill="#00AEEF" d="M-45.125-76.375L-50-79.541l-4.75-3.084l4.75-5.12L-45.125-93L-50-100
		c-27.614,0-50,22.386-50,50l7.125-7.125L-87.14-50l2.515,3.125L-81.69-50l6.69-7.125L-68.657-50l2.782,3.125l2.82-3.125l6.43-7.125
		L-50-50l4.875-7.625L-50-61.107l-4.75-3.393l4.75-5.86L-45.125-76.375z"/>
	<path display="inline" fill="#39B54A" d="M-47-19.125l-3-2.951l-4.75-4.674l4.75-3.754l3-2.371l-3-3.789l-4.125-5.211L-50-50
		l-6.625-7.125L-63.055-50l-2.82,3.125L-68.657-50L-75-57.125L-81.69-50l-2.935,3.125L-87.14-50l-5.735-7.125L-100-50
		c0,27.614,22.386,50,50,50l3-5.125l-3-3.421l-4.125-4.704L-50-16.651L-47-19.125z"/>
	<path display="inline" fill="#FFF200" d="M-6.625-55.375L-12.396-50l-3.354,3.125L-18.106-50l-3.394-4.5l-5.164,4.5l-3.586,3.125
		L-32.961-50l-4.664-5.375L-43.554-50L-47-46.875L-50-50l-4.125,8.125L-50-36.664l3,3.789l-3,2.371l-4.75,3.754l4.75,4.674l3,2.951
		l-3,2.474l-4.125,3.401L-50-8.546l3,3.421L-50,0C-22.386,0,0-22.386,0-50L-6.625-55.375z"/>
</g>
<g id="Double" display="none">
	<path display="inline" fill="#00AEEF" d="M-50-100c-27.614,0-50,22.386-50,50l7.125-7.125L-87.14-50l2.515,3.125L-81.69-50
		l6.69-7.125L-68.657-50l2.782,3.125l2.82-3.125l6.43-7.125L-50-50l3,3.125L-43.554-50l5.929-5.375L-32.961-50l2.711,3.125
		L-26.664-50l5.164-4.5l3.394,4.5l2.356,3.125L-12.396-50l5.771-5.375L0-50C0-77.614-22.386-100-50-100z"/>
	<path display="inline" fill="#FFF200" d="M-6.625-55.375L-12.396-50l-3.354,3.125L-18.106-50l-3.394-4.5l-5.164,4.5l-3.586,3.125
		L-32.961-50l-4.664-5.375L-43.554-50L-47-46.875L-50-50l-6.625-7.125L-63.055-50l-2.82,3.125L-68.657-50L-75-57.125L-81.69-50
		l-2.935,3.125L-87.14-50l-5.735-7.125L-100-50c0,27.614,22.386,50,50,50S0-22.386,0-50L-6.625-55.375z"/>
</g>
<g id="Simple" display="none">
	<circle display="inline" fill="#FFF200" cx="-50" cy="-50" r="50"/>
</g>
<g id="_x30_011" display="none">
	<path display="inline" fill="#8DC63F" d="M-50-100c-27.614,0-50,22.386-50,50l7.125-7.125L-87.14-50l2.515,3.125L-81.69-50
		l6.69-7.125L-68.657-50l2.782,3.125l2.82-3.125l6.43-7.125L-50-50l3,3.125L-43.554-50l5.929-5.375L-32.961-50l2.711,3.125
		L-26.664-50l5.164-4.5l3.394,4.5l2.356,3.125L-12.396-50l5.771-5.375L0-50C0-77.614-22.386-100-50-100z"/>
	<path display="inline" fill="#00AEEF" d="M-6.625-55.375L-12.396-50l-3.354,3.125L-18.106-50l-3.394-4.5l-5.164,4.5l-3.586,3.125
		L-32.961-50l-4.664-5.375L-43.554-50L-47-46.875L-50-50l-6.625-7.125L-63.055-50l-2.82,3.125L-68.657-50L-75-57.125L-81.69-50
		l-2.935,3.125L-87.14-50l-5.735-7.125L-100-50c0,27.614,22.386,50,50,50S0-22.386,0-50L-6.625-55.375z"/>
	
		<rect x="-79.683" y="-74.818" transform="matrix(-0.6795 0.7337 -0.7337 -0.6795 -183.8795 -59.6463)" display="inline" fill="#9B5524" width="1.542" height="9.666"/>
	
		<rect x="-77.469" y="-83.291" transform="matrix(0.7448 -0.6672 0.6672 0.7448 34.5318 -72.0719)" display="inline" fill="#9B5524" width="1" height="4.208"/>
	
		<rect x="-58.218" y="-80.024" transform="matrix(0.9088 -0.4173 0.4173 0.9088 26.3991 -30.7293)" display="inline" fill="#9B5524" width="2.27" height="8.562"/>
	
		<rect x="-66.056" y="-62.261" transform="matrix(0.6051 -0.7962 0.7962 0.6051 21.5568 -75.5619)" display="inline" fill="#9B5524" width="1.334" height="5.5"/>
	
		<rect x="-56.075" y="-95.322" transform="matrix(0.9881 -0.1536 0.1536 0.9881 13.6023 -9.6304)" display="inline" fill="#9B5524" width="1.135" height="5"/>
	
		<rect x="-34.862" y="-78.957" transform="matrix(0.795 0.6066 -0.6066 0.795 -53.051 5.155)" display="inline" fill="#9B5524" width="1.418" height="6.083"/>
	
		<rect x="-30.132" y="-96.064" transform="matrix(0.8813 0.4726 -0.4726 0.8813 -47.1984 3.0261)" display="inline" fill="#9B5524" width="1.022" height="7.292"/>
	
		<rect x="-29.16" y="-68.413" transform="matrix(0.8051 0.5931 -0.5931 0.8051 -44.851 4.0969)" display="inline" fill="#9B5524" width="0.999" height="4.417"/>
	
		<rect x="-17.837" y="-73.105" transform="matrix(0.7053 0.7089 -0.7089 0.7053 -55.0614 -8.5788)" display="inline" fill="#9B5524" width="1.25" height="5.167"/>
	
		<rect x="-45.525" y="-64.755" transform="matrix(0.8639 0.5037 -0.5037 0.8639 -37.3496 14.128)" display="inline" fill="#9B5524" width="1.416" height="5.416"/>
	
		<ellipse transform="matrix(0.6795 -0.7337 0.7337 0.6795 27.9109 -83.7784)" display="inline" fill="#588A3E" cx="-81.934" cy="-73.835" rx="5.708" ry="2.917"/>
	
		<ellipse transform="matrix(0.9088 -0.4173 0.4173 0.9088 28.3438 -32.169)" display="inline" fill="#588A3E" cx="-59.396" cy="-80.905" rx="7.5" ry="3.792"/>
	
		<ellipse transform="matrix(0.7449 -0.6672 0.6672 0.7449 35.632 -73.4242)" display="inline" fill="#588A3E" cx="-78.195" cy="-83.305" rx="2.583" ry="1.666"/>
	
		<ellipse transform="matrix(0.6051 -0.7962 0.7962 0.6051 22.2304 -78.4874)" display="inline" fill="#588A3E" cx="-68" cy="-61.652" rx="4.208" ry="2.042"/>
	
		<ellipse transform="matrix(0.9088 -0.4173 0.4173 0.9088 26.4129 -32.7194)" display="inline" fill="#588A3E" cx="-61.622" cy="-76.765" rx="4.084" ry="1.875"/>
	
		<ellipse transform="matrix(-0.9881 0.1538 -0.1538 -0.9881 -124.9756 -182.4117)" display="inline" fill="#588A3E" cx="-55.434" cy="-96.039" rx="4.833" ry="1.75"/>
	
		<ellipse transform="matrix(0.7949 0.6067 -0.6067 0.7949 -54.5693 3.0135)" display="inline" fill="#588A3E" cx="-31.742" cy="-79.212" rx="5.542" ry="2.291"/>
	
		<ellipse transform="matrix(0.8638 0.5038 -0.5038 0.8638 -38.306 12.9544)" display="inline" fill="#588A3E" cx="-43.117" cy="-64.383" rx="4.25" ry="1.417"/>
	
		<ellipse transform="matrix(0.8813 0.4726 -0.4726 0.8813 -48.675 2.0151)" display="inline" fill="#588A3E" cx="-28.348" cy="-95.872" rx="3.521" ry="1.625"/>
	
		<ellipse transform="matrix(0.705 0.7092 -0.7092 0.705 -55.9168 -11.1265)" display="inline" fill="#588A3E" cx="-14.583" cy="-72.782" rx="5.125" ry="1.458"/>
	
		<ellipse transform="matrix(0.8052 0.5931 -0.5931 0.8052 -45.9218 2.723)" display="inline" fill="#588A3E" cx="-27.105" cy="-68.527" rx="2.542" ry="1.001"/>
	<path display="inline" fill="#E7F6FD" d="M-97.2-36.974c0-1.112,0.337-2.117,0.877-2.9c-1.189,0.756-2.012,2.285-2.012,4.067
		c0,2.528,1.637,4.577,3.657,4.577c1.247,0,2.346-0.785,3.005-1.978c-0.558,0.445-1.218,0.712-1.931,0.712
		C-95.59-32.495-97.2-34.5-97.2-36.974z"/>
	<path display="inline" fill="#E7F6FD" d="M-95.762-39.311c0-0.742,0.223-1.413,0.576-1.937c-0.78,0.506-1.32,1.525-1.32,2.716
		c0,1.688,1.075,3.056,2.4,3.056c0.818,0,1.539-0.524,1.972-1.319c-0.367,0.298-0.8,0.476-1.268,0.476
		C-94.705-36.319-95.762-37.657-95.762-39.311z"/>
	<path display="inline" fill="#E7F6FD" d="M-90.921-20.723c0.587,2.246,2.35,3.731,3.936,3.317c0.873-0.229,1.499-0.996,1.798-2.001
		c-0.322,0.39-0.718,0.682-1.193,0.806c-1.613,0.423-3.409-1.097-4.009-3.393c-0.23-0.88-0.249-1.743-0.098-2.498
		C-91.094-23.562-91.297-22.163-90.921-20.723z"/>
	<g display="inline">
		<path fill="#E7F6FD" d="M-77.449-10.899c0.783,1.518,2.497,2.387,3.825,1.943c0.731-0.248,1.182-0.847,1.32-1.58
			c-0.232,0.303-0.542,0.549-0.939,0.683c-1.353,0.454-3.099-0.438-3.898-1.988c-0.307-0.594-0.428-1.197-0.388-1.742
			C-77.944-12.871-77.953-11.872-77.449-10.899z"/>
		<path fill="#E7F6FD" d="M-79.074-9.467c0.75,2.314,3.002,3.846,5.029,3.418c1.115-0.235,1.916-1.026,2.298-2.062
			c-0.411,0.401-0.917,0.702-1.524,0.83c-2.062,0.436-4.357-1.129-5.124-3.495c-0.294-0.907-0.318-1.797-0.125-2.575
			C-79.296-12.392-79.556-10.951-79.074-9.467z"/>
	</g>
	<path display="inline" fill="#E7F6FD" d="M-3.684-42.433c1.145-1.006,1.313-2.683,0.378-3.751c-0.517-0.588-1.258-0.852-2.01-0.816
		c0.376,0.138,0.729,0.354,1.009,0.676c0.952,1.084,0.776,2.795-0.396,3.82c-0.444,0.394-0.976,0.626-1.509,0.708
		C-5.372-41.582-4.418-41.788-3.684-42.433z"/>
	<path display="inline" fill="#E7F6FD" d="M-1.867-41.673c1.875-1.647,2.306-4.222,0.963-5.757
		c-0.741-0.842-1.866-1.172-3.036-1.043c0.572,0.174,1.097,0.47,1.497,0.93c1.368,1.556,0.924,4.183-0.995,5.863
		c-0.734,0.646-1.577,1.055-2.413,1.233C-4.574-40.207-3.071-40.616-1.867-41.673z"/>
	<path display="inline" fill="#E7F6FD" d="M-12.974-21.282c1.711-0.014,3.086-1.461,3.073-3.237
		c-0.008-0.976-0.444-1.833-1.11-2.415c0.22,0.439,0.359,0.932,0.362,1.465c0.015,1.803-1.391,3.277-3.139,3.287
		c-0.669,0.007-1.29-0.206-1.805-0.564C-15.034-21.86-14.07-21.273-12.974-21.282z"/>
	<path display="inline" fill="#E7F6FD" d="M-11.731-18.952c2.515-0.02,4.535-2.068,4.519-4.581c-0.012-1.38-0.653-2.595-1.632-3.419
		c0.323,0.622,0.528,1.32,0.531,2.073c0.022,2.553-2.044,4.638-4.613,4.654c-0.983,0.009-1.896-0.291-2.651-0.799
		C-14.76-19.771-13.344-18.938-11.731-18.952z"/>
	<path display="inline" fill="#E7F6FD" d="M-29.449-7.815c1.998,0.73,4.129-0.084,4.762-1.816c0.348-0.953,0.152-1.98-0.41-2.836
		c0.098,0.525,0.078,1.064-0.112,1.584c-0.641,1.763-2.817,2.587-4.859,1.841c-0.782-0.283-1.428-0.76-1.895-1.332
		C-31.638-9.272-30.73-8.281-29.449-7.815z"/>
	<path display="inline" fill="#1C738E" d="M-7.208-54.832L-12.396-50l-3.354,3.125L-18.106-50l-3.394-4.5l-5.164,4.5l-3.586,3.125
		L-32.961-50l-4.664-5.375L-43.554-50L-47-46.875L-50-50l-6.625-7.125L-63.055-50l-2.82,3.125L-68.657-50L-75-57.125L-81.69-50
		l-2.935,3.125L-87.14-50l-3.19-3.963c-0.123,1.305-0.192,2.626-0.192,3.963c0,23.086,18.715,41.801,41.8,41.801
		C-25.636-8.199-6.921-26.914-6.921-50C-6.921-51.635-7.025-53.246-7.208-54.832z"/>
	<g display="inline">
		<path fill="#E7F6FD" d="M-54.044-8.494c1.521,1.153,3.473,1.288,4.355,0.3c0.486-0.549,0.534-1.319,0.24-2.092
			c-0.027,0.391-0.153,0.761-0.417,1.057c-0.899,1.008-2.89,0.867-4.444-0.312c-0.595-0.45-1.039-0.989-1.31-1.537
			C-55.574-10.211-55.021-9.233-54.044-8.494z"/>
		<path fill="#E7F6FD" d="M-54.626-6.42c1.941,1.946,4.724,2.498,6.214,1.236c0.817-0.693,1.058-1.8,0.801-2.971
			c-0.125,0.564-0.388,1.07-0.833,1.446c-1.516,1.288-4.353,0.719-6.338-1.271c-0.76-0.762-1.281-1.618-1.553-2.459
			C-56.459-9.178-55.872-7.665-54.626-6.42z"/>
	</g>
</g>
<g id="_x32_233Old" display="none">
	<path display="inline" fill="#F3BE35" d="M100,50c-27.614,0-50,22.386-50,50l7.125-7.125L62.859,100l2.516,3.125L68.31,100
		L75,92.875L81.343,100l2.782,3.125l2.82-3.125l6.43-7.125L100,100l3,3.125l3.446-3.125l5.929-5.375l4.664,5.375l2.711,3.125
		l3.586-3.125l5.164-4.5l3.394,4.5l2.356,3.125l3.354-3.125l5.771-5.375L150,100C150,72.386,127.614,50,100,50z"/>
	<path display="inline" fill="#5E1C37" d="M143.375,94.625L137.604,100l-3.354,3.125L131.894,100l-3.394-4.5l-5.164,4.5
		l-3.586,3.125L117.039,100l-4.664-5.375L106.446,100L103,103.125L100,100l-6.625-7.125L86.945,100l-2.82,3.125L81.343,100
		L75,92.875L68.31,100l-2.935,3.125L62.859,100l-5.734-7.125L50,100c0,27.614,22.386,50,50,50s50-22.386,50-50L143.375,94.625z"/>
	<path display="inline" fill="#C48F2C" d="M67.917,82.75c0,0-3.333-4.833-0.333-9s9.166,0.5,9.166,0.5s-6.418-1.098-7.75,0.417
		C67.334,76.563,67.584,80.333,67.917,82.75z"/>
	<path display="inline" fill="#C48F2C" d="M90.32,63.128c0,0,0.297-5.753,5.288-6.53s7.081,6.876,7.081,6.876
		s-4.497-5.337-6.507-5.226C93.67,58.387,91.544,61.201,90.32,63.128z"/>
	<path display="inline" fill="#C48F2C" d="M92.793,66.037c0,0,0.56-4.17,4.134-5.033c3.574-0.865,4.584,4.53,4.584,4.53
		s-2.853-3.577-4.278-3.376C95.447,62.412,93.775,64.572,92.793,66.037z"/>
	<path display="inline" fill="#C48F2C" d="M122.232,68.348c0,0,5.027-4.334,9.896-1.16c4.869,3.174,0.284,10.826,0.284,10.826
		s0.625-7.645-1.168-9.082C129.003,67.133,124.867,67.75,122.232,68.348z"/>
	<path display="inline" fill="#C48F2C" d="M123.618,69.781c0,0,2.228-2.018,4.398-0.525c2.17,1.494,0.146,5.064,0.146,5.064
		s0.265-3.574-0.536-4.25C126.627,69.226,124.788,69.506,123.618,69.781z"/>
	<rect x="108.75" y="75.875" display="inline" fill="#A4772B" width="0.969" height="4.688"/>
	<ellipse display="inline" fill="#64CADF" cx="105.938" cy="85" rx="5.938" ry="2.75"/>
	<ellipse display="inline" fill="#64CADF" cx="109.875" cy="82.75" rx="2" ry="1.563"/>
	<path display="inline" fill="#51B848" d="M109.452,75.108c1.481,2.038-5.765,1.698-5.765,1.698S107.476,72.391,109.452,75.108z"/>
	<path display="inline" fill="#51B848" d="M109.424,75.135c-1.3,2.158,5.89,1.195,5.89,1.195S111.159,72.257,109.424,75.135z"/>
	<path display="inline" fill="#51B848" d="M109.325,75.23c2.313,0.1,0.229-2.713,0.229-2.713S106.242,75.098,109.325,75.23z"/>
	<path display="inline" fill="#51B848" d="M109.722,75.712c-2.702,1.114,3.991,4.966,3.991,4.966S113.325,74.228,109.722,75.712z"/>
	<path display="inline" fill="#C48F2C" d="M83.445,92.883c0,0-3.263-2.165-2.543-5.511s5.643-1.997,5.643-1.997
		s-4.146,0.934-4.553,2.211C81.484,89.184,82.615,91.464,83.445,92.883z"/>
	<path display="inline" fill="#C48F2C" d="M119.565,89.704c0,0,3.401,0.632,4.288,3.515c0.888,2.885-3.423,3.447-3.423,3.447
		s2.743-2.109,2.506-3.254C122.637,91.98,120.803,90.551,119.565,89.704z"/>
	<path display="inline" fill="#A01C4D" d="M60.75,113.625c0,0,3.75-3.25,0-4.375s-2.125,5.375-0.125,6.75s3.375,1.375,4,2.875
		s-0.25,5.25-1.375,5.375c0,0,0.875-3.375-0.375-5c-0.463-0.603-6.875-4.875-7.25-6.125s2.25-7.125,4.375-6
		S65.375,111.875,60.75,113.625z"/>
	<path display="inline" fill="#A01C4D" d="M115.154,134.149c0,0-4.316-2.449-4.124,1.46c0.192,3.911,5.776,0.209,6.404-2.135
		c0.629-2.346,0.17-3.642,1.375-4.731s5.031-1.517,5.526-0.499c0,0-3.475,0.303-4.59,2.022c-0.412,0.639-2.298,8.109-3.352,8.88
		c-1.053,0.771-7.467,0.259-7.116-2.12S111.961,130.374,115.154,134.149z"/>
	<path display="inline" fill="#A01C4D" d="M128.875,129.125c0,0,4.855-1.448,6.532-3.38c1.678-1.932-0.088-8.209,1.324-9.657
		s7.238-5.021,8.033-6.084c0.794-1.063-0.618-4.442-1.766-3.38s-0.529,0.966-0.089,1.932c0,0-2.383-0.29-1.147-3.283
		c1.236-2.994,5.297,3.572,4.414,4.828s-5.649,6.566-6.974,8.305c-0.84,1.104-2.472,7.726-3.267,8.112
		C135.143,126.904,128.875,129.125,128.875,129.125z"/>
	<path display="inline" fill="#A01C4D" d="M75.75,134.875c0,0.625,0.75-4.875,2.5-5.125s5.375-0.5,5.75-1.875S86.375,131,84.75,132
		s-4.125-0.75-5.25,0.375S75.75,134.875,75.75,134.875z"/>
	<g display="inline">
		<path fill="#5B4B1E" d="M102.117,135.829c0,0,0.129,4.772-2.94,5.692c-3.389,1.016-5.036,4.538-5.036,4.538s-0.04-4.328,2.1-6.119
			c2.143-1.795,1.199-3.29-0.334-5.062"/>
		<polyline fill="#D3C090" points="100.576,139.961 100.119,142.104 98.881,141.182 		"/>
		<polyline fill="#D3C090" points="95.146,143.463 93.586,142.063 95.301,141.951 		"/>
		<polyline fill="#D3C090" points="98.479,138.868 96.252,138.712 97.636,137.211 		"/>
	</g>
	<g display="inline">
		<path fill="#5B4B1E" d="M123.209,103.808c0,0,3.183,1.414,2.753,3.575c-0.474,2.386,1.288,4.492,1.288,4.492
			s-2.861-1.329-3.318-3.195c-0.458-1.868-1.76-1.761-3.442-1.379"/>
		<polyline fill="#D3C090" points="125.407,106.04 126.662,106.989 125.639,107.457 		"/>
		<polyline fill="#D3C090" points="125.881,110.449 124.434,110.964 124.938,109.882 		"/>
		<polyline fill="#D3C090" points="123.981,106.979 123.128,108.289 122.606,106.975 		"/>
	</g>
	<g display="inline">
		<path fill="#5B4B1E" d="M80.2,107.907c0,0-2.748,1.108-2.731,3.242c0.018,2.354-1.703,4.252-1.703,4.252s2.479-1.052,3.124-2.826
			c0.646-1.775,1.667-1.563,2.948-1.053"/>
		<polyline fill="#D3C090" points="78.113,109.891 76.971,110.708 77.715,111.247 		"/>
		<polyline fill="#D3C090" points="77.07,114.131 78.145,114.751 77.906,113.659 		"/>
		<polyline fill="#D3C090" points="79.106,110.92 79.588,112.264 80.201,111.03 		"/>
	</g>
</g>
<g id="_x32_233">
	<path fill="#F3BE35" d="M100,50c-27.614,0-50,22.386-50,50l7.125-7.125L62.859,100l2.516,3.125L68.31,100L75,92.875L81.343,100
		l2.782,3.125l2.82-3.125l6.43-7.125L100,100l3,3.125l3.446-3.125l5.929-5.375l4.664,5.375l2.711,3.125l3.586-3.125l5.164-4.5
		l3.394,4.5l2.356,3.125l3.354-3.125l5.771-5.375L150,100C150,72.386,127.614,50,100,50z"/>
	<path fill="#5E1C37" d="M143.375,94.625L137.604,100l-3.354,3.125L131.894,100l-3.394-4.5l-5.164,4.5l-3.586,3.125L117.039,100
		l-4.664-5.375L106.446,100L103,103.125L100,100l-6.625-7.125L86.945,100l-2.82,3.125L81.343,100L75,92.875L68.31,100l-2.935,3.125
		L62.859,100l-5.734-7.125L50,100c0,27.614,22.386,50,50,50s50-22.386,50-50L143.375,94.625z"/>
</g>
<g id="Calque_8">
	<path fill="#A01C4D" d="M120.26,124.354c0,0-5.571-2.813-5.01,3.146c0.561,5.961,7.521,0.606,8.24-2.956
		c0.721-3.565-0.066-6.731,1.567-8.377c1.632-1.646,9.164-3.349,9.942-1.792c0,0-8.662,1.146-8.875,4.125
		c-0.25,3.5-2.193,11.134-3.635,12.294c-1.439,1.162-10.694,1.489-10.37-2.13C112.753,121.576,116.049,119.294,120.26,124.354z"/>
	<g>
		<path fill="#5B4B1E" d="M87.362,129.423c0,0-2.983,11.218-11.506,11.011c-9.408-0.228-16.086,6.718-16.086,6.718
			s2.902-10.114,9.642-12.649c6.75-2.541,5.365-6.746,2.657-12.047"/>
		<polyline fill="#D3C090" points="80.535,137.869 77.873,142.512 75.333,139.416 		"/>
		<polyline fill="#D3C090" points="64.158,141.872 61.121,137.417 65.604,138.468 		"/>
		<polyline fill="#D3C090" points="75.906,133.718 70.295,131.649 74.893,129.211 		"/>
	</g>
	<path fill="#A01C4D" d="M76.695,112.125c0,0,0.214-8.959-5.732-4.669c-5.946,4.294,4.512,8.85,8.696,7.388
		c4.188-1.464,5.826-3.476,8.54-2.792c2.71,0.685,6.581,5.969,5.404,7.75c0,0-3.381-4.884-7-4.787
		c-1.342,0.035-14.588,4.868-16.673,4.082c-2.086-0.783-6.656-10.896-2.647-12.809S79.919,103.484,76.695,112.125z"/>
	<g>
		<path fill="#5B4B1E" d="M133.834,118.521c0,0-0.054,7.804,3.424,8.698c2.646,0.679,9.872,2.248,12.558,5.956
			c1.345,1.855,1.6,5.966-0.871,8.813c-2.103,2.425-7.413,2.677-8.318,1.734c-1.967-2.05-4.105-2.563-1.521-4.841
			c2.584-2.275,3.885,0.389,3.885,0.389s-3.647,0.64-3.408,1.67c0.237,1.03,2.478,1.824,4.122,1.422
			c1.643-0.404,5.782-4.503,3.141-7.549c-2.642-3.047-9.853-1.601-13.022-2.023c-2.188-0.292-6.905-2.457-6.905-2.457"/>
		<polyline fill="#D3C090" points="134.847,126.666 139.447,123.787 138.347,128.764 		"/>
		<polyline fill="#D3C090" points="146.765,131.602 152.959,130.165 149.826,134.944 		"/>
		<polyline fill="#D3C090" points="136.609,131.866 134.188,137.646 132.692,131.442 		"/>
		<polyline fill="#D3C090" points="149.516,139.522 149.959,144.711 146.727,142.056 		"/>
	</g>
	<path fill="#A01C4D" d="M80.75,142.898c0,0,6.306-0.982,10.709,1.945c4.724,3.142,9.291,2.394,9.291,2.394
		c-4.725-2.095-6.299-5.835-8.819-5.984C88.133,141.027,80.75,142.898,80.75,142.898z"/>
</g>
<g id="Calque_7">
	<g>
		<path fill="#F3BE35" d="M57.672,57.539c0.273,5.591-2.633,24.941-2.633,24.941s19.574-22.945,19.495-23.212
			C69.239,59.936,60.404,56.94,57.672,57.539z"/>
		<path fill="#C48F2C" d="M53.696,86.534c0,0,5.589-25.642,1.1-29.447c10.942-2.604,13.917,4.306,21.433,0.976
			c-4.234,5.099-12.864-0.656-18.283,0.274C61.315,65.427,53.696,86.534,53.696,86.534z"/>
	</g>
	<g>
		<path fill="#F3BE35" d="M69.489,47.816c-0.499,5.958-6.445,25.838-6.445,25.838S87.742,53.18,87.693,52.884
			C81.804,52.57,72.565,47.709,69.489,47.816z"/>
		<path fill="#C48F2C" d="M60.995,77.678c0,0,9.779-26.009,5.411-30.893c12.347-0.646,14.614,7.222,23.314,5.149
			c-5.363,4.571-13.982-3.165-20.045-3.222C72.348,56.847,60.995,77.678,60.995,77.678z"/>
	</g>
	<g>
		<path fill="#F3BE35" d="M83.047,46.665c-1.426,4.762-9.657,19.796-9.657,19.796s23.556-11.759,23.565-12.009
			C92.229,53.014,85.562,47.192,83.047,46.665z"/>
		<path fill="#C48F2C" d="M71.038,69.333c0,0,12.393-19.266,9.683-24.127c10.133,1.948,10.626,8.824,18.044,8.877
			c-5.137,2.655-10.809-5.387-15.721-6.648C83.821,54.608,71.038,69.333,71.038,69.333z"/>
	</g>
	<g>
		<path fill="#52AD17" d="M133.347,55.866c-1.868,3.637-5.186,5.725-7.408,4.666c-2.223-1.06-2.505-4.867-0.634-8.506
			c1.867-3.636,5.186-5.726,7.406-4.665C134.933,48.42,135.217,52.229,133.347,55.866z"/>
		<path fill="#52AD17" d="M129.354,69.855c-1.098,2.441,2.043,6.104,7.015,8.184c4.977,2.078,9.896,1.784,10.997-0.656
			c1.101-2.439-2.041-6.102-7.013-8.181C135.376,67.122,130.452,67.416,129.354,69.855z"/>
		<g>
			<path fill="#36750D" d="M135.332,50.133c-0.461,0.615-2.087,0.242-3.629-0.834c-1.543-1.078-2.419-2.451-1.954-3.067
				c0.462-0.617,2.09-0.245,3.631,0.833C134.924,48.146,135.799,49.519,135.332,50.133z"/>
			<path fill="#D80E73" d="M135.92,48.553c-1.234,1.095-3.082,1.09-4.127-0.008c-1.045-1.096-0.893-2.869,0.344-3.961
				c1.235-1.092,3.085-1.091,4.128,0.005C137.31,45.688,137.158,47.459,135.92,48.553z"/>
		</g>
		<g>
			<path fill="#36750D" d="M148.914,77.275c-0.555,0.522-2.275-0.313-3.844-1.862c-1.567-1.55-2.391-3.228-1.836-3.749
				c0.556-0.521,2.276,0.313,3.845,1.863C148.646,75.077,149.47,76.755,148.914,77.275z"/>
			<path fill="#D80E73" d="M149.299,75.101c-0.865,0.813-2.426,0.624-3.485-0.423c-1.058-1.047-1.216-2.556-0.351-3.366
				c0.864-0.813,2.427-0.622,3.484,0.423C150.008,72.781,150.163,74.29,149.299,75.101z"/>
		</g>
		<path fill="#52AD17" d="M139.023,57.283c-3.287-3.25-10.699-1.422-16.557,4.078c-3.404,3.197-5.522,6.929-6.064,10.134
			c1.252,0.682,2.604,1.579,3.946,2.659c1.824,1.467,3.315,3.01,4.315,4.383c3.115-0.654,6.624-2.52,9.707-5.414
			C140.228,67.623,142.313,60.532,139.023,57.283z"/>
		<path fill="#52AD17" d="M142.818,59.89c-3.143,0.295-5.503,1.967-5.272,3.729c0.229,1.762,2.964,2.946,6.105,2.648
			c3.139-0.299,5.504-1.968,5.271-3.729C148.695,60.777,145.961,59.59,142.818,59.89z"/>
		<g>
			<path fill="#36750D" d="M147.152,59.662c-0.542,0.221-0.501,1.408,0.095,2.654c0.595,1.246,1.518,2.077,2.059,1.852
				c0.543-0.222,0.503-1.413-0.094-2.655C148.613,60.266,147.693,59.436,147.152,59.662z"/>
			<path fill="#D80E73" d="M148.453,59.509c-1.025,0.681-1.299,1.965-0.615,2.866c0.684,0.902,2.067,1.082,3.089,0.402
				c1.022-0.685,1.3-1.97,0.615-2.869C150.856,59.005,149.477,58.823,148.453,59.509z"/>
		</g>
		<path fill="#36750D" d="M139.023,57.283c0,0-13.949-2.222-21.854,14.603C126.194,57.226,139.023,57.283,139.023,57.283z"/>
		<path fill="#36750D" d="M139.023,57.283c0,0-10.832,2.616-18.675,16.871C129.812,63.224,139.023,57.283,139.023,57.283z"/>
		<path fill="#36750D" d="M139.023,57.283c0,0-1.4,11.591-15.236,20.152C140.77,69.994,139.023,57.283,139.023,57.283z"/>
	</g>
	<g>
		<path fill="#F3BE35" d="M81.996,72.068c-0.649,3.802-5.801,16.277-5.801,16.277s18.268-11.918,18.249-12.111
			C90.35,75.738,84.147,72.152,81.996,72.068z"/>
		<path fill="#C48F2C" d="M74.563,90.827c0,0,8.135-16.219,5.333-19.576c8.649,0.204,9.835,5.372,16.012,4.476
			c-3.975,2.668-9.6-2.733-13.827-3.073C83.535,78.013,74.563,90.827,74.563,90.827z"/>
	</g>
</g>
</svg>
