<?xml version="1.0" encoding="utf-8"?>
<!-- Generator: Adobe Illustrator 15.0.0, SVG Export Plug-In . SVG Version: 6.00 Build 0)  -->
<!DOCTYPE svg PUBLIC "-//W3C//DTD SVG 1.1//EN" "http://www.w3.org/Graphics/SVG/1.1/DTD/svg11.dtd">
<svg version="1.1" xmlns="http://www.w3.org/2000/svg" xmlns:xlink="http://www.w3.org/1999/xlink" x="0px" y="0px" width="100px"
	 height="100px" viewBox="0 0 100 100" enable-background="new 0 0 100 100" xml:space="preserve">
<g id="Quarter_1_" display="none">
	<path display="inline" fill="#ED1C24" d="M50,0l4.875,7L50,12.255l-4.75,5.12L50,20.459l4.875,3.166L50,29.64l-4.75,5.86L50,38.893
		l4.875,3.482L50,50l3,3.125L56.446,50l5.929-5.375L67.039,50l2.711,3.125L73.336,50l5.164-4.5l3.394,4.5l2.356,3.125L87.604,50
		l5.771-5.375L100,50C100,22.386,77.614,0,50,0z"/>
	<path display="inline" fill="#00AEEF" d="M54.875,23.625L50,20.459l-4.75-3.084l4.75-5.12L54.875,7L50,0C22.386,0,0,22.386,0,50
		l7.125-7.125L12.86,50l2.515,3.125L18.31,50L25,42.875L31.343,50l2.782,3.125L36.945,50l6.43-7.125L50,50l4.875-7.625L50,38.893
		L45.25,35.5L50,29.64L54.875,23.625z"/>
	<path display="inline" fill="#39B54A" d="M53,80.875l-3-2.951l-4.75-4.674L50,69.496l3-2.371l-3-3.789l-4.125-5.211L50,50
		l-6.625-7.125L36.945,50l-2.82,3.125L31.343,50L25,42.875L18.31,50l-2.935,3.125L12.86,50l-5.735-7.125L0,50
		c0,27.614,22.386,50,50,50l3-5.125l-3-3.421l-4.125-4.704L50,83.349L53,80.875z"/>
	<path display="inline" fill="#FFF200" d="M93.375,44.625L87.604,50l-3.354,3.125L81.894,50L78.5,45.5L73.336,50l-3.586,3.125
		L67.039,50l-4.664-5.375L56.446,50L53,53.125L50,50l-4.125,8.125L50,63.336l3,3.789l-3,2.371l-4.75,3.754L50,77.924l3,2.951
		l-3,2.474l-4.125,3.401L50,91.454l3,3.421L50,100c27.614,0,50-22.386,50-50L93.375,44.625z"/>
</g>
<g id="Double" display="none">
	<path display="inline" fill="#00AEEF" d="M50,0C22.386,0,0,22.386,0,50l7.125-7.125L12.86,50l2.515,3.125L18.31,50L25,42.875
		L31.343,50l2.782,3.125L36.945,50l6.43-7.125L50,50l3,3.125L56.446,50l5.929-5.375L67.039,50l2.711,3.125L73.336,50l5.164-4.5
		l3.394,4.5l2.356,3.125L87.604,50l5.771-5.375L100,50C100,22.386,77.614,0,50,0z"/>
	<path display="inline" fill="#FFF200" d="M93.375,44.625L87.604,50l-3.354,3.125L81.894,50L78.5,45.5L73.336,50l-3.586,3.125
		L67.039,50l-4.664-5.375L56.446,50L53,53.125L50,50l-6.625-7.125L36.945,50l-2.82,3.125L31.343,50L25,42.875L18.31,50l-2.935,3.125
		L12.86,50l-5.735-7.125L0,50c0,27.614,22.386,50,50,50s50-22.386,50-50L93.375,44.625z"/>
</g>
<g id="Simple" display="none">
	<circle display="inline" fill="#FFF200" cx="50" cy="50" r="50"/>
</g>
<g id="_x30_011">
	<path fill="#8DC63F" d="M50,0C22.386,0,0,22.386,0,50l7.125-7.125L12.86,50l2.515,3.125L18.31,50L25,42.875L31.343,50l2.782,3.125
		L36.945,50l6.43-7.125L50,50l3,3.125L56.446,50l5.929-5.375L67.039,50l2.711,3.125L73.336,50l5.164-4.5l3.394,4.5l2.356,3.125
		L87.604,50l5.771-5.375L100,50C100,22.386,77.614,0,50,0z"/>
	<path fill="#00AEEF" d="M93.375,44.625L87.604,50l-3.354,3.125L81.894,50L78.5,45.5L73.336,50l-3.586,3.125L67.039,50l-4.664-5.375
		L56.446,50L53,53.125L50,50l-6.625-7.125L36.945,50l-2.82,3.125L31.343,50L25,42.875L18.31,50l-2.935,3.125L12.86,50l-5.735-7.125
		L0,50c0,27.614,22.386,50,50,50s50-22.386,50-50L93.375,44.625z"/>
	
		<rect x="20.317" y="25.182" transform="matrix(-0.6795 0.7337 -0.7337 -0.6795 57.4382 34.9391)" fill="#9B5524" width="1.542" height="9.666"/>
	
		<rect x="22.531" y="16.709" transform="matrix(0.7448 -0.6672 0.6672 0.7448 -6.6765 20.1673)" fill="#9B5524" width="1" height="4.208"/>
	
		<rect x="41.782" y="19.976" transform="matrix(0.9088 -0.4173 0.4173 0.9088 -6.2069 20.1215)" fill="#9B5524" width="2.27" height="8.562"/>
	
		<rect x="33.944" y="37.739" transform="matrix(0.6051 -0.7962 0.7962 0.6051 -18.5677 43.546)" fill="#9B5524" width="1.334" height="5.5"/>
	
		<rect x="43.925" y="4.678" transform="matrix(0.9881 -0.1536 0.1536 0.9881 -0.5745 6.9211)" fill="#9B5524" width="1.135" height="5"/>
	
		<rect x="65.138" y="21.043" transform="matrix(0.795 0.6066 -0.6066 0.795 28.107 -35.0055)" fill="#9B5524" width="1.418" height="6.083"/>
	
		<rect x="69.868" y="3.936" transform="matrix(0.8813 0.4726 -0.4726 0.8813 11.9409 -32.3637)" fill="#9B5524" width="1.022" height="7.292"/>
	
		<rect x="70.84" y="31.587" transform="matrix(0.8051 0.5931 -0.5931 0.8051 33.9459 -35.7259)" fill="#9B5524" width="0.999" height="4.417"/>
	
		<rect x="82.163" y="26.895" transform="matrix(0.7053 0.7089 -0.7089 0.7053 45.2901 -49.9997)" fill="#9B5524" width="1.25" height="5.167"/>
	
		<rect x="54.475" y="35.245" transform="matrix(0.8639 0.5037 -0.5037 0.8639 26.6257 -22.628)" fill="#9B5524" width="1.416" height="5.416"/>
	
		<ellipse transform="matrix(0.6795 -0.7337 0.7337 0.6795 -13.4066 21.6406)" fill="#588A3E" cx="18.066" cy="26.165" rx="5.708" ry="2.917"/>
	
		<ellipse transform="matrix(0.9088 -0.4173 0.4173 0.9088 -4.2641 18.687)" fill="#588A3E" cx="40.604" cy="19.095" rx="7.5" ry="3.792"/>
	
		<ellipse transform="matrix(0.7449 -0.6672 0.6672 0.7449 -5.5758 18.8075)" fill="#588A3E" cx="21.805" cy="16.695" rx="2.583" ry="1.666"/>
	
		<ellipse transform="matrix(0.6051 -0.7962 0.7962 0.6051 -17.894 40.6221)" fill="#588A3E" cx="32" cy="38.348" rx="4.208" ry="2.042"/>
	
		<ellipse transform="matrix(0.9088 -0.4173 0.4173 0.9088 -6.1947 18.1357)" fill="#588A3E" cx="38.378" cy="23.235" rx="4.084" ry="1.875"/>
	
		<ellipse transform="matrix(-0.9881 0.1538 -0.1538 -0.9881 89.211 1.0234)" fill="#588A3E" cx="44.566" cy="3.961" rx="4.833" ry="1.75"/>
	
		<ellipse transform="matrix(0.7949 0.6067 -0.6067 0.7949 26.6107 -37.15)" fill="#588A3E" cx="68.258" cy="20.788" rx="5.542" ry="2.291"/>
	
		<ellipse transform="matrix(0.8638 0.5038 -0.5038 0.8638 25.6885 -23.8067)" fill="#588A3E" cx="56.883" cy="35.617" rx="4.25" ry="1.417"/>
	
		<ellipse transform="matrix(0.8813 0.4726 -0.4726 0.8813 10.4577 -33.3727)" fill="#588A3E" cx="71.652" cy="4.128" rx="3.521" ry="1.625"/>
	
		<ellipse transform="matrix(0.705 0.7092 -0.7092 0.705 44.4977 -52.5472)" fill="#588A3E" cx="85.417" cy="27.218" rx="5.125" ry="1.458"/>
	
		<ellipse transform="matrix(0.8052 0.5931 -0.5931 0.8052 32.8686 -37.0989)" fill="#588A3E" cx="72.895" cy="31.473" rx="2.542" ry="1.001"/>
	<path fill="#E7F6FD" d="M2.8,63.026c0-1.112,0.337-2.117,0.877-2.9c-1.189,0.756-2.012,2.285-2.012,4.067
		c0,2.528,1.637,4.577,3.657,4.577c1.247,0,2.346-0.785,3.005-1.978c-0.558,0.445-1.218,0.712-1.931,0.712
		C4.41,67.505,2.8,65.5,2.8,63.026z"/>
	<path fill="#E7F6FD" d="M4.238,60.689c0-0.742,0.223-1.413,0.576-1.937c-0.78,0.506-1.32,1.525-1.32,2.716
		c0,1.688,1.075,3.056,2.4,3.056c0.818,0,1.539-0.524,1.972-1.319c-0.367,0.298-0.8,0.476-1.268,0.476
		C5.295,63.681,4.238,62.343,4.238,60.689z"/>
	<path fill="#E7F6FD" d="M9.079,79.277c0.587,2.246,2.35,3.731,3.936,3.317c0.873-0.229,1.499-0.996,1.798-2.001
		c-0.322,0.39-0.718,0.682-1.193,0.806c-1.613,0.423-3.409-1.097-4.009-3.393c-0.23-0.88-0.249-1.743-0.098-2.498
		C8.906,76.438,8.703,77.837,9.079,79.277z"/>
	<g>
		<path fill="#E7F6FD" d="M22.551,89.101c0.783,1.518,2.497,2.387,3.825,1.943c0.731-0.248,1.182-0.847,1.32-1.58
			c-0.232,0.303-0.542,0.549-0.939,0.683c-1.353,0.454-3.099-0.438-3.898-1.988c-0.307-0.594-0.428-1.197-0.388-1.742
			C22.056,87.129,22.047,88.128,22.551,89.101z"/>
		<path fill="#E7F6FD" d="M20.926,90.533c0.75,2.314,3.002,3.846,5.029,3.418c1.115-0.235,1.916-1.026,2.298-2.062
			c-0.411,0.401-0.917,0.702-1.524,0.83c-2.062,0.436-4.357-1.129-5.124-3.495c-0.294-0.907-0.318-1.797-0.125-2.575
			C20.704,87.608,20.444,89.049,20.926,90.533z"/>
	</g>
	<path fill="#E7F6FD" d="M96.316,57.567c1.145-1.006,1.313-2.683,0.378-3.751c-0.517-0.588-1.258-0.852-2.01-0.816
		c0.376,0.138,0.729,0.354,1.009,0.676c0.952,1.084,0.776,2.795-0.396,3.82c-0.444,0.394-0.976,0.626-1.509,0.708
		C94.628,58.418,95.582,58.212,96.316,57.567z"/>
	<path fill="#E7F6FD" d="M98.133,58.327c1.875-1.647,2.306-4.222,0.963-5.757c-0.741-0.842-1.866-1.172-3.036-1.043
		c0.572,0.174,1.097,0.47,1.497,0.93c1.368,1.556,0.924,4.183-0.995,5.863c-0.734,0.646-1.577,1.055-2.413,1.233
		C95.426,59.793,96.929,59.384,98.133,58.327z"/>
	<path fill="#E7F6FD" d="M87.026,78.718c1.711-0.014,3.086-1.461,3.073-3.237c-0.008-0.976-0.444-1.833-1.11-2.415
		c0.22,0.439,0.359,0.932,0.362,1.465c0.015,1.803-1.391,3.277-3.139,3.287c-0.669,0.007-1.29-0.206-1.805-0.564
		C84.966,78.14,85.93,78.727,87.026,78.718z"/>
	<path fill="#E7F6FD" d="M88.269,81.048c2.515-0.02,4.535-2.068,4.519-4.581c-0.012-1.38-0.653-2.595-1.632-3.419
		c0.323,0.622,0.528,1.32,0.531,2.073c0.022,2.553-2.044,4.638-4.613,4.654c-0.983,0.009-1.896-0.291-2.651-0.799
		C85.24,80.229,86.656,81.063,88.269,81.048z"/>
	<path fill="#E7F6FD" d="M70.551,92.185c1.998,0.73,4.129-0.084,4.762-1.816c0.348-0.953,0.152-1.98-0.41-2.836
		c0.098,0.525,0.078,1.064-0.112,1.584c-0.641,1.763-2.817,2.587-4.859,1.841c-0.782-0.283-1.428-0.76-1.895-1.332
		C68.362,90.728,69.27,91.719,70.551,92.185z"/>
	<path fill="#1C738E" d="M92.792,45.168L87.604,50l-3.354,3.125L81.894,50L78.5,45.5L73.336,50l-3.586,3.125L67.039,50l-4.664-5.375
		L56.446,50L53,53.125L50,50l-6.625-7.125L36.945,50l-2.82,3.125L31.343,50L25,42.875L18.31,50l-2.935,3.125L12.86,50l-3.19-3.963
		C9.547,47.342,9.478,48.663,9.478,50c0,23.086,18.715,41.801,41.8,41.801c23.086,0,41.801-18.715,41.801-41.801
		C93.079,48.365,92.975,46.754,92.792,45.168z"/>
	<g>
		<path fill="#E7F6FD" d="M45.956,91.506c1.521,1.153,3.473,1.288,4.355,0.3c0.486-0.549,0.534-1.319,0.24-2.092
			c-0.027,0.391-0.153,0.761-0.417,1.057c-0.899,1.008-2.89,0.867-4.444-0.312c-0.595-0.45-1.039-0.989-1.31-1.537
			C44.426,89.789,44.979,90.767,45.956,91.506z"/>
		<path fill="#E7F6FD" d="M45.374,93.58c1.941,1.946,4.724,2.498,6.214,1.236c0.817-0.693,1.058-1.8,0.801-2.971
			c-0.125,0.564-0.388,1.07-0.833,1.446c-1.516,1.288-4.353,0.719-6.338-1.271c-0.76-0.762-1.281-1.618-1.553-2.459
			C43.541,90.822,44.128,92.335,45.374,93.58z"/>
	</g>
</g>
</svg>
