<?xml version="1.0" encoding="utf-8"?>
<!-- Generator: Adobe Illustrator 15.0.0, SVG Export Plug-In . SVG Version: 6.00 Build 0)  -->
<!DOCTYPE svg PUBLIC "-//W3C//DTD SVG 1.1//EN" "http://www.w3.org/Graphics/SVG/1.1/DTD/svg11.dtd">
<svg version="1.1" xmlns="http://www.w3.org/2000/svg" xmlns:xlink="http://www.w3.org/1999/xlink" x="0px" y="0px" width="200px"
	 height="200px" viewBox="0 0 200 200" enable-background="new 0 0 200 200" xml:space="preserve">
<g id="Calque_1">
	<g id="Quarter_1_" display="none">
		<path display="inline" fill="#ED1C24" d="M-50-100l4.875,7L-50-87.745l-4.75,5.12l4.75,3.084l4.875,3.166L-50-70.36l-4.75,5.86
			l4.75,3.393l4.875,3.482L-50-50l3,3.125L-43.554-50l5.929-5.375L-32.961-50l2.711,3.125L-26.664-50l5.164-4.5l3.394,4.5
			l2.356,3.125L-12.396-50l5.771-5.375L0-50C0-77.614-22.386-100-50-100z"/>
		<path display="inline" fill="#00AEEF" d="M-45.125-76.375L-50-79.541l-4.75-3.084l4.75-5.12L-45.125-93L-50-100
			c-27.614,0-50,22.386-50,50l7.125-7.125L-87.14-50l2.515,3.125L-81.69-50l6.69-7.125L-68.657-50l2.782,3.125l2.82-3.125
			l6.43-7.125L-50-50l4.875-7.625L-50-61.107l-4.75-3.393l4.75-5.86L-45.125-76.375z"/>
		<path display="inline" fill="#39B54A" d="M-47-19.125l-3-2.951l-4.75-4.674l4.75-3.754l3-2.371l-3-3.789l-4.125-5.211L-50-50
			l-6.625-7.125L-63.055-50l-2.82,3.125L-68.657-50L-75-57.125L-81.69-50l-2.935,3.125L-87.14-50l-5.735-7.125L-100-50
			c0,27.614,22.386,50,50,50l3-5.125l-3-3.421l-4.125-4.704L-50-16.651L-47-19.125z"/>
		<path display="inline" fill="#FFF200" d="M-6.625-55.375L-12.396-50l-3.354,3.125L-18.106-50l-3.394-4.5l-5.164,4.5l-3.586,3.125
			L-32.961-50l-4.664-5.375L-43.554-50L-47-46.875L-50-50l-4.125,8.125L-50-36.664l3,3.789l-3,2.371l-4.75,3.754l4.75,4.674l3,2.951
			l-3,2.474l-4.125,3.401L-50-8.546l3,3.421L-50,0C-22.386,0,0-22.386,0-50L-6.625-55.375z"/>
	</g>
	<g id="Double" display="none">
		<path display="inline" fill="#00AEEF" d="M-50-100c-27.614,0-50,22.386-50,50l7.125-7.125L-87.14-50l2.515,3.125L-81.69-50
			l6.69-7.125L-68.657-50l2.782,3.125l2.82-3.125l6.43-7.125L-50-50l3,3.125L-43.554-50l5.929-5.375L-32.961-50l2.711,3.125
			L-26.664-50l5.164-4.5l3.394,4.5l2.356,3.125L-12.396-50l5.771-5.375L0-50C0-77.614-22.386-100-50-100z"/>
		<path display="inline" fill="#FFF200" d="M-6.625-55.375L-12.396-50l-3.354,3.125L-18.106-50l-3.394-4.5l-5.164,4.5l-3.586,3.125
			L-32.961-50l-4.664-5.375L-43.554-50L-47-46.875L-50-50l-6.625-7.125L-63.055-50l-2.82,3.125L-68.657-50L-75-57.125L-81.69-50
			l-2.935,3.125L-87.14-50l-5.735-7.125L-100-50c0,27.614,22.386,50,50,50S0-22.386,0-50L-6.625-55.375z"/>
	</g>
	<g id="Simple" display="none">
		<circle display="inline" fill="#FFF200" cx="-50" cy="-50" r="50"/>
	</g>
	<g id="_x30_011" display="none">
		<path display="inline" fill="#8DC63F" d="M100,50c-27.614,0-50,22.386-50,50l7.125-7.125L62.859,100l2.516,3.125L68.31,100
			L75,92.875L81.343,100l2.782,3.125l2.82-3.125l6.43-7.125L100,100l3,3.125l3.445-3.125l5.93-5.375l4.664,5.375l2.711,3.125
			l3.586-3.125l5.164-4.5l3.395,4.5l2.355,3.125l3.354-3.125l5.771-5.375L150,100C150,72.386,127.613,50,100,50z"/>
		<path display="inline" fill="#00AEEF" d="M143.375,94.625L137.604,100l-3.354,3.125L131.895,100l-3.395-4.5l-5.164,4.5
			l-3.586,3.125L117.039,100l-4.664-5.375l-5.93,5.375L103,103.125L100,100l-6.625-7.125L86.945,100l-2.82,3.125L81.343,100
			L75,92.875L68.31,100l-2.935,3.125L62.859,100l-5.734-7.125L50,100c0,27.614,22.386,50,50,50c27.613,0,50-22.386,50-50
			L143.375,94.625z"/>
		<path display="inline" fill="#1C738E" d="M140.29,97.498L137.604,100l-3.354,3.125L131.895,100l-3.395-4.5l-5.164,4.5
			l-3.586,3.125L117.039,100l-4.664-5.375l-5.93,5.375L103,103.125L100,100l-6.625-7.125L86.945,100l-2.82,3.125L81.343,100
			L75,92.875L68.31,100l-2.935,3.125L62.859,100l-3.052-3.792c-0.116,1.249-0.183,2.513-0.183,3.792
			c0,22.299,18.076,40.375,40.375,40.375s40.375-18.076,40.375-40.375C140.375,99.159,140.341,98.326,140.29,97.498z"/>
	</g>
	<g id="Calque_9" display="none">
		
			<rect x="76.667" y="54.352" transform="matrix(-0.8279 0.5608 -0.5608 -0.8279 179.685 72.6348)" display="inline" fill="#9B5524" width="4.066" height="19.06"/>
		<path display="inline" fill="#588A3E" d="M82.834,45.867c2.614,3.86-0.242,10.362-6.383,14.525
			c-6.142,4.164-13.239,4.409-15.855,0.55c-2.617-3.855,0.243-10.361,6.382-14.522C73.118,42.256,80.22,42.011,82.834,45.867z"/>
		<path display="inline" fill="#588A3E" d="M75.75,58.293c1.292,1.906-0.368,5.292-3.715,7.56c-3.344,2.264-7.103,2.558-8.395,0.648
			c-1.294-1.909,0.368-5.293,3.712-7.559C70.694,56.673,74.454,56.384,75.75,58.293z"/>
		
			<rect x="70.049" y="79.624" transform="matrix(-0.5413 0.8408 -0.8408 -0.5413 181.5459 71.9221)" display="inline" fill="#9B5524" width="2.212" height="11.716"/>
		<path display="inline" fill="#588A3E" d="M68.985,75.547c2.021,1.297,1.971,4.979-0.11,8.225
			c-2.081,3.245-5.408,4.824-7.431,3.529c-2.021-1.3-1.971-4.982,0.108-8.226C63.636,75.827,66.963,74.248,68.985,75.547z"/>
		
			<rect x="122.555" y="62.577" transform="matrix(-0.795 -0.6067 0.6067 -0.795 180.3224 199.3023)" display="inline" fill="#9B5524" width="2.572" height="13.203"/>
		<path display="inline" fill="#588A3E" d="M137.098,68.146c-1.666,2.184-6.598,1.219-11.016-2.152
			c-4.419-3.373-6.648-7.876-4.982-10.059c1.668-2.188,6.601-1.221,11.019,2.148C136.534,61.456,138.768,65.96,137.098,68.146z"/>
	</g>
	<g id="_x32_233" display="none">
		<path display="inline" fill="#F3BE35" d="M100,50c-27.614,0-50,22.386-50,50l7.125-7.125L62.859,100l2.516,3.125L68.31,100
			L75,92.875L81.343,100l2.782,3.125l2.82-3.125l6.43-7.125L100,100l3,3.125l3.445-3.125l5.93-5.375l4.664,5.375l2.711,3.125
			l3.586-3.125l5.164-4.5l3.395,4.5l2.355,3.125l3.354-3.125l5.771-5.375L150,100C150,72.386,127.613,50,100,50z"/>
		<path display="inline" fill="#5E1C37" d="M143.375,94.625L137.604,100l-3.354,3.125L131.895,100l-3.395-4.5l-5.164,4.5
			l-3.586,3.125L117.039,100l-4.664-5.375l-5.93,5.375L103,103.125L100,100l-6.625-7.125L86.945,100l-2.82,3.125L81.343,100
			L75,92.875L68.31,100l-2.935,3.125L62.859,100l-5.734-7.125L50,100c0,27.614,22.386,50,50,50c27.613,0,50-22.386,50-50
			L143.375,94.625z"/>
	</g>
	<g id="Calque_8" display="none">
		<path display="inline" fill="#A01C4D" d="M120.26,124.354c0,0-5.57-2.813-5.01,3.146c0.561,5.961,7.521,0.605,8.24-2.956
			c0.721-3.565-0.066-6.731,1.566-8.377s9.164-3.349,9.942-1.792c0,0-8.662,1.146-8.875,4.125c-0.25,3.5-2.192,11.134-3.636,12.294
			c-1.438,1.162-10.693,1.489-10.369-2.13C112.753,121.576,116.049,119.294,120.26,124.354z"/>
		<g display="inline">
			<path fill="#5B4B1E" d="M87.362,129.423c0,0-2.983,11.218-11.506,11.011c-9.408-0.228-16.086,6.719-16.086,6.719
				s2.902-10.114,9.642-12.649c6.75-2.541,5.365-6.746,2.657-12.047"/>
			<polyline fill="#D3C090" points="80.535,137.869 77.873,142.512 75.333,139.416 			"/>
			<polyline fill="#D3C090" points="64.158,141.872 61.121,137.417 65.604,138.468 			"/>
			<polyline fill="#D3C090" points="75.906,133.718 70.295,131.648 74.893,129.211 			"/>
		</g>
		<path display="inline" fill="#A01C4D" d="M76.695,112.125c0,0,0.214-8.959-5.732-4.669c-5.946,4.294,4.512,8.851,8.696,7.388
			c4.188-1.464,5.826-3.476,8.54-2.792c2.71,0.685,6.581,5.97,5.404,7.75c0,0-3.381-4.884-7-4.786
			c-1.342,0.034-14.588,4.867-16.673,4.082c-2.086-0.783-6.656-10.896-2.647-12.81C71.292,104.375,79.919,103.484,76.695,112.125z"
			/>
		<g display="inline">
			<path fill="#5B4B1E" d="M133.834,118.521c0,0-0.055,7.804,3.424,8.697c2.646,0.68,9.872,2.248,12.559,5.956
				c1.345,1.854,1.6,5.966-0.871,8.813c-2.104,2.425-7.413,2.677-8.318,1.734c-1.967-2.051-4.105-2.563-1.521-4.842
				c2.584-2.275,3.886,0.389,3.886,0.389s-3.647,0.641-3.408,1.67c0.237,1.031,2.478,1.824,4.122,1.422
				c1.643-0.403,5.781-4.502,3.141-7.549c-2.642-3.047-9.853-1.601-13.021-2.022c-2.188-0.292-6.905-2.457-6.905-2.457"/>
			<polyline fill="#D3C090" points="134.848,126.666 139.447,123.787 138.348,128.764 			"/>
			<polyline fill="#D3C090" points="146.766,131.602 152.959,130.165 149.826,134.943 			"/>
			<polyline fill="#D3C090" points="136.609,131.866 134.188,137.646 132.691,131.441 			"/>
			<polyline fill="#D3C090" points="149.516,139.521 149.959,144.711 146.727,142.057 			"/>
		</g>
		<path display="inline" fill="#A01C4D" d="M80.75,142.898c0,0,6.306-0.982,10.709,1.944c4.724,3.142,9.291,2.394,9.291,2.394
			c-4.725-2.094-6.299-5.834-8.819-5.983C88.133,141.027,80.75,142.898,80.75,142.898z"/>
	</g>
	<g id="Calque_7" display="none">
		<g display="inline">
			<path fill="#F3BE35" d="M57.672,57.539c0.273,5.591-2.633,24.941-2.633,24.941s19.574-22.945,19.495-23.212
				C69.239,59.936,60.404,56.94,57.672,57.539z"/>
			<path fill="#C48F2C" d="M53.696,86.534c0,0,5.589-25.642,1.1-29.447c10.942-2.604,13.917,4.306,21.433,0.976
				c-4.234,5.099-12.864-0.656-18.283,0.274C61.315,65.427,53.696,86.534,53.696,86.534z"/>
		</g>
		<g display="inline">
			<path fill="#F3BE35" d="M69.489,47.816c-0.499,5.958-6.445,25.838-6.445,25.838s24.698-20.474,24.649-20.77
				C81.804,52.57,72.565,47.709,69.489,47.816z"/>
			<path fill="#C48F2C" d="M60.995,77.678c0,0,9.779-26.009,5.411-30.893c12.347-0.646,14.614,7.222,23.314,5.149
				c-5.363,4.571-13.982-3.165-20.045-3.222C72.348,56.847,60.995,77.678,60.995,77.678z"/>
		</g>
		<g display="inline">
			<path fill="#F3BE35" d="M83.047,46.665c-1.426,4.762-9.657,19.796-9.657,19.796s23.556-11.759,23.565-12.009
				C92.229,53.014,85.562,47.192,83.047,46.665z"/>
			<path fill="#C48F2C" d="M71.038,69.333c0,0,12.393-19.266,9.683-24.127c10.133,1.948,10.626,8.824,18.044,8.877
				c-5.137,2.655-10.809-5.387-15.721-6.648C83.821,54.608,71.038,69.333,71.038,69.333z"/>
		</g>
		<g display="inline">
			<path fill="#52AD17" d="M133.348,55.866c-1.869,3.637-5.187,5.725-7.408,4.666c-2.224-1.06-2.506-4.867-0.635-8.506
				c1.867-3.636,5.187-5.726,7.406-4.665C134.934,48.42,135.217,52.229,133.348,55.866z"/>
			<path fill="#52AD17" d="M129.354,69.855c-1.098,2.441,2.043,6.104,7.016,8.184c4.977,2.078,9.896,1.784,10.997-0.656
				c1.101-2.439-2.041-6.102-7.013-8.181C135.376,67.122,130.452,67.416,129.354,69.855z"/>
			<g>
				<path fill="#36750D" d="M135.332,50.133c-0.461,0.615-2.087,0.242-3.629-0.834c-1.543-1.078-2.419-2.451-1.954-3.067
					c0.462-0.617,2.09-0.245,3.631,0.833C134.924,48.146,135.799,49.519,135.332,50.133z"/>
				<path fill="#D80E73" d="M135.92,48.553c-1.234,1.095-3.082,1.09-4.127-0.008c-1.045-1.096-0.893-2.869,0.344-3.961
					c1.235-1.092,3.086-1.091,4.129,0.005C137.311,45.688,137.158,47.459,135.92,48.553z"/>
			</g>
			<g>
				<path fill="#36750D" d="M148.914,77.275c-0.555,0.522-2.275-0.313-3.844-1.862c-1.567-1.55-2.391-3.228-1.836-3.749
					c0.556-0.521,2.275,0.313,3.845,1.863C148.646,75.077,149.471,76.755,148.914,77.275z"/>
				<path fill="#D80E73" d="M149.299,75.101c-0.865,0.813-2.426,0.624-3.484-0.423c-1.059-1.047-1.217-2.556-0.352-3.366
					c0.864-0.813,2.428-0.622,3.484,0.423C150.008,72.781,150.163,74.29,149.299,75.101z"/>
			</g>
			<path fill="#52AD17" d="M139.023,57.283c-3.287-3.25-10.699-1.422-16.558,4.078c-3.403,3.197-5.522,6.929-6.063,10.134
				c1.252,0.682,2.604,1.579,3.945,2.659c1.824,1.467,3.315,3.01,4.315,4.383c3.114-0.654,6.624-2.52,9.707-5.414
				C140.229,67.623,142.313,60.532,139.023,57.283z"/>
			<path fill="#52AD17" d="M142.818,59.89c-3.144,0.295-5.504,1.967-5.272,3.729c0.229,1.762,2.964,2.946,6.104,2.648
				c3.14-0.299,5.504-1.968,5.271-3.729C148.695,60.777,145.961,59.59,142.818,59.89z"/>
			<g>
				<path fill="#36750D" d="M147.152,59.662c-0.543,0.221-0.502,1.408,0.095,2.654c0.595,1.246,1.519,2.077,2.06,1.852
					c0.543-0.222,0.502-1.413-0.095-2.655C148.613,60.266,147.693,59.436,147.152,59.662z"/>
				<path fill="#D80E73" d="M148.453,59.509c-1.025,0.681-1.299,1.965-0.615,2.866c0.684,0.902,2.066,1.082,3.089,0.402
					c1.022-0.685,1.3-1.97,0.615-2.869C150.855,59.005,149.477,58.823,148.453,59.509z"/>
			</g>
			<path fill="#36750D" d="M139.023,57.283c0,0-13.949-2.222-21.854,14.603C126.193,57.226,139.023,57.283,139.023,57.283z"/>
			<path fill="#36750D" d="M139.023,57.283c0,0-10.832,2.616-18.676,16.871C129.813,63.224,139.023,57.283,139.023,57.283z"/>
			<path fill="#36750D" d="M139.023,57.283c0,0-1.4,11.591-15.236,20.152C140.77,69.994,139.023,57.283,139.023,57.283z"/>
		</g>
		<g display="inline">
			<path fill="#F3BE35" d="M81.996,72.068c-0.649,3.802-5.801,16.277-5.801,16.277s18.268-11.918,18.249-12.111
				C90.35,75.738,84.147,72.152,81.996,72.068z"/>
			<path fill="#C48F2C" d="M74.563,90.827c0,0,8.135-16.219,5.333-19.576c8.649,0.204,9.835,5.372,16.012,4.476
				c-3.975,2.668-9.6-2.733-13.827-3.073C83.535,78.013,74.563,90.827,74.563,90.827z"/>
		</g>
	</g>
	<g id="_x32_233_-_copie_2">
		<path fill="#5E1C37" d="M100,50c-27.614,0-50,22.386-50,50l7.125-7.125L62.859,100l2.516,3.125L68.31,100L75,92.875L81.343,100
			l2.782,3.125l2.82-3.125l6.43-7.125L100,100l3,3.125l3.445-3.125l5.93-5.375l4.664,5.375l2.711,3.125l3.586-3.125l5.164-4.5
			l3.395,4.5l2.355,3.125l3.354-3.125l5.771-5.375L150,100C150,72.386,127.613,50,100,50z"/>
	</g>
	<g id="Calque_8_-_copie">
		<path fill="#A01C4D" d="M117.768,74.77c0,0-5.319,3.263-5.252-2.722c0.066-5.987,7.445-1.225,8.457,2.266
			c1.012,3.494,0.488,6.714,2.252,8.22c1.762,1.506,9.409,2.581,10.058,0.965c0,0-8.728-0.427-9.187-3.378
			c-0.537-3.468-3.104-10.915-4.637-11.952c-1.529-1.04-10.779-0.603-10.159,2.978C110.516,78.157,113.988,80.16,117.768,74.77z"/>
		<g>
			<path fill="#5B4B1E" d="M87.362,70.577c0,0-2.983-11.218-11.506-11.011c-9.408,0.228-16.086-6.718-16.086-6.718
				s2.902,10.114,9.642,12.649c6.75,2.541,5.365,6.746,2.657,12.047"/>
			<polyline fill="#D3C090" points="80.535,62.131 77.873,57.488 75.333,60.584 			"/>
			<polyline fill="#D3C090" points="64.158,58.128 61.121,62.583 65.604,61.532 			"/>
			<polyline fill="#D3C090" points="75.906,66.282 70.295,68.351 74.893,70.789 			"/>
		</g>
		<path fill="#A01C4D" d="M73.285,86.183c0,0-1.2,8.881-6.396,3.707c-5.196-5.177,5.85-8.028,9.751-5.925
			c3.905,2.104,5.206,4.35,7.994,4.102c2.784-0.249,7.438-4.857,6.558-6.802c0,0-4.108,4.29-7.667,3.625
			c-1.319-0.246-13.639-7.105-15.821-6.657c-2.184,0.444-8.29,9.712-4.633,12.231C66.729,92.983,75.107,95.223,73.285,86.183z"/>
		<g>
			<path fill="#5B4B1E" d="M133.834,81.479c0,0-0.055-7.804,3.424-8.698c2.646-0.679,9.872-2.248,12.559-5.956
				c1.345-1.855,1.6-5.966-0.871-8.813c-2.104-2.425-7.413-2.677-8.318-1.734c-1.967,2.05-4.105,2.563-1.521,4.841
				c2.584,2.275,3.886-0.389,3.886-0.389s-3.647-0.64-3.408-1.67c0.237-1.03,2.478-1.824,4.122-1.422
				c1.643,0.404,5.781,4.503,3.141,7.549c-2.642,3.047-9.853,1.601-13.021,2.023c-2.188,0.292-6.905,2.457-6.905,2.457"/>
			<polyline fill="#D3C090" points="134.848,73.334 139.447,76.213 138.348,71.236 			"/>
			<polyline fill="#D3C090" points="146.766,68.398 152.959,69.835 149.826,65.056 			"/>
			<polyline fill="#D3C090" points="136.609,68.134 134.188,62.354 132.691,68.558 			"/>
			<polyline fill="#D3C090" points="149.516,60.478 149.959,55.289 146.727,57.944 			"/>
		</g>
		<path fill="#A01C4D" d="M85.16,55.6c0,0,6.167,1.645,10.855-0.801c5.029-2.624,9.492-1.396,9.492-1.396
			c-4.92,1.583-6.882,5.136-9.403,5.018C92.304,58.242,85.16,55.6,85.16,55.6z"/>
	</g>
</g>
<g id="Calque_2">
	<g id="_x30_011_1_">
		<path fill="#8DC63F" d="M143.375,94.625L137.604,100l-3.354,3.125L131.895,100l-3.395-4.5l-5.164,4.5l-3.586,3.125L117.039,100
			l-4.664-5.375l-5.93,5.375L103,103.125L100,100l-6.625-7.125L86.945,100l-2.82,3.125L81.343,100L75,92.875L68.31,100l-2.935,3.125
			L62.859,100l-5.734-7.125L50,100c0,27.614,22.386,50,50,50c27.613,0,50-22.386,50-50L143.375,94.625z"/>
	</g>
	<g>
		
			<rect x="82.055" y="121.159" transform="matrix(-0.8829 -0.4696 0.4696 -0.8829 96.8692 288.0981)" fill="#9B5524" width="4.612" height="21.62"/>
		<path fill="#588A3E" d="M73.253,153.082c-7.427-3.951-11.439-10.943-8.954-15.606c2.483-4.668,10.517-5.251,17.949-1.298
			c7.429,3.952,11.437,10.94,8.955,15.609C88.721,156.453,80.682,157.036,73.253,153.082z"/>
		<path fill="#588A3E" d="M72.16,138.914c-4.046-2.151-6.329-5.767-5.101-8.077c1.226-2.311,5.501-2.432,9.546-0.284
			c4.049,2.153,6.331,5.771,5.104,8.078C80.479,140.939,76.204,141.068,72.16,138.914z"/>
	</g>
	<g>
		
			<rect x="60.056" y="104.356" transform="matrix(-0.4097 -0.9122 0.9122 -0.4097 -15.3031 213.5608)" fill="#9B5524" width="2.785" height="14.752"/>
		<path fill="#588A3E" d="M48.289,117.904c-1.979-4.428-1.349-9.023,1.411-10.26c2.762-1.233,6.608,1.357,8.589,5.789
			c1.981,4.432,1.351,9.027-1.409,10.262C54.119,124.933,50.274,122.34,48.289,117.904z"/>
	</g>
	<g>
		
			<rect x="124.413" y="110.899" transform="matrix(-0.69 0.7238 -0.7238 -0.69 297.4797 107.595)" fill="#9B5524" width="2.572" height="13.203"/>
		<path fill="#588A3E" d="M135.614,127.159c-3.835,4.021-8.554,5.75-10.544,3.851c-1.988-1.895-0.494-6.69,3.342-10.716
			c3.834-4.022,8.554-5.749,10.542-3.854C140.946,118.336,139.446,123.135,135.614,127.159z"/>
	</g>
</g>
</svg>
