<?xml version="1.0" encoding="utf-8"?>
<!-- Generator: Adobe Illustrator 15.0.0, SVG Export Plug-In . SVG Version: 6.00 Build 0)  -->
<!DOCTYPE svg PUBLIC "-//W3C//DTD SVG 1.1//EN" "http://www.w3.org/Graphics/SVG/1.1/DTD/svg11.dtd">
<svg version="1.1" xmlns="http://www.w3.org/2000/svg" xmlns:xlink="http://www.w3.org/1999/xlink" x="0px" y="0px" width="200px"
	 height="200px" viewBox="0 0 200 200" enable-background="new 0 0 200 200" xml:space="preserve">
<g id="Calque_15" display="none">
	<rect display="inline" fill="#101111" width="200" height="200"/>
</g>
<g id="Quarter_1_" display="none">
	<path display="inline" fill="#ED1C24" d="M-50-100l4.875,7L-50-87.745l-4.75,5.12l4.75,3.084l4.875,3.166L-50-70.36l-4.75,5.86
		l4.75,3.393l4.875,3.482L-50-50l3,3.125L-43.554-50l5.929-5.375L-32.961-50l2.711,3.125L-26.664-50l5.164-4.5l3.394,4.5
		l2.356,3.125L-12.396-50l5.771-5.375L0-50C0-77.614-22.386-100-50-100z"/>
	<path display="inline" fill="#00AEEF" d="M-45.125-76.375L-50-79.541l-4.75-3.084l4.75-5.12L-45.125-93L-50-100
		c-27.614,0-50,22.386-50,50l7.125-7.125L-87.14-50l2.515,3.125L-81.69-50l6.69-7.125L-68.657-50l2.782,3.125l2.82-3.125l6.43-7.125
		L-50-50l4.875-7.625L-50-61.107l-4.75-3.393l4.75-5.86L-45.125-76.375z"/>
	<path display="inline" fill="#39B54A" d="M-47-19.125l-3-2.951l-4.75-4.674l4.75-3.754l3-2.371l-3-3.789l-4.125-5.211L-50-50
		l-6.625-7.125L-63.055-50l-2.82,3.125L-68.657-50L-75-57.125L-81.69-50l-2.935,3.125L-87.14-50l-5.735-7.125L-100-50
		c0,27.614,22.386,50,50,50l3-5.125l-3-3.421l-4.125-4.704L-50-16.651L-47-19.125z"/>
	<path display="inline" fill="#FFF200" d="M-6.625-55.375L-12.396-50l-3.354,3.125L-18.106-50l-3.394-4.5l-5.164,4.5l-3.586,3.125
		L-32.961-50l-4.664-5.375L-43.554-50L-47-46.875L-50-50l-4.125,8.125L-50-36.664l3,3.789l-3,2.371l-4.75,3.754l4.75,4.674l3,2.951
		l-3,2.474l-4.125,3.401L-50-8.546l3,3.421L-50,0C-22.386,0,0-22.386,0-50L-6.625-55.375z"/>
</g>
<g id="Double" display="none">
	<path display="inline" fill="#00AEEF" d="M-50-100c-27.614,0-50,22.386-50,50l7.125-7.125L-87.14-50l2.515,3.125L-81.69-50
		l6.69-7.125L-68.657-50l2.782,3.125l2.82-3.125l6.43-7.125L-50-50l3,3.125L-43.554-50l5.929-5.375L-32.961-50l2.711,3.125
		L-26.664-50l5.164-4.5l3.394,4.5l2.356,3.125L-12.396-50l5.771-5.375L0-50C0-77.614-22.386-100-50-100z"/>
	<path display="inline" fill="#FFF200" d="M-6.625-55.375L-12.396-50l-3.354,3.125L-18.106-50l-3.394-4.5l-5.164,4.5l-3.586,3.125
		L-32.961-50l-4.664-5.375L-43.554-50L-47-46.875L-50-50l-6.625-7.125L-63.055-50l-2.82,3.125L-68.657-50L-75-57.125L-81.69-50
		l-2.935,3.125L-87.14-50l-5.735-7.125L-100-50c0,27.614,22.386,50,50,50S0-22.386,0-50L-6.625-55.375z"/>
</g>
<g id="Simple" display="none">
	<circle display="inline" fill="#FFF200" cx="-50" cy="-50" r="50"/>
</g>
<g id="_x30_011" display="none">
	<path display="inline" fill="#8DC63F" d="M100,50c-27.614,0-50,22.386-50,50l7.125-7.125L62.859,100l2.516,3.125L68.31,100
		L75,92.875L81.343,100l2.782,3.125l2.82-3.125l6.43-7.125L100,100l3,3.125l3.446-3.125l5.929-5.375l4.664,5.375l2.711,3.125
		l3.586-3.125l5.164-4.5l3.394,4.5l2.356,3.125l3.354-3.125l5.771-5.375L150,100C150,72.386,127.614,50,100,50z"/>
	<path display="inline" fill="#00AEEF" d="M143.375,94.625L137.604,100l-3.354,3.125L131.894,100l-3.394-4.5l-5.164,4.5
		l-3.586,3.125L117.039,100l-4.664-5.375L106.446,100L103,103.125L100,100l-6.625-7.125L86.945,100l-2.82,3.125L81.343,100
		L75,92.875L68.31,100l-2.935,3.125L62.859,100l-5.734-7.125L50,100c0,27.614,22.386,50,50,50s50-22.386,50-50L143.375,94.625z"/>
	<path display="inline" fill="#1C738E" d="M140.29,97.498L137.604,100l-3.354,3.125L131.894,100l-3.394-4.5l-5.164,4.5l-3.586,3.125
		L117.039,100l-4.664-5.375L106.446,100L103,103.125L100,100l-6.625-7.125L86.945,100l-2.82,3.125L81.343,100L75,92.875L68.31,100
		l-2.935,3.125L62.859,100l-3.052-3.792c-0.116,1.249-0.183,2.513-0.183,3.792c0,22.299,18.076,40.375,40.375,40.375
		s40.375-18.076,40.375-40.375C140.375,99.159,140.341,98.326,140.29,97.498z"/>
</g>
<g id="Foret" display="none">
	<g display="inline">
		
			<ellipse transform="matrix(0.8902 0.4556 -0.4556 0.8902 49.5724 -41.3657)" fill="#588A3E" cx="110.601" cy="82.157" rx="5.899" ry="5.032"/>
		
			<ellipse transform="matrix(0.8902 0.4555 -0.4555 0.8902 50.6763 -44.7959)" fill="#588A3E" cx="118.288" cy="82.753" rx="6.333" ry="6.161"/>
		
			<ellipse transform="matrix(0.8902 0.4556 -0.4556 0.8902 53.8048 -45.0464)" fill="#588A3E" cx="120.351" cy="89.095" rx="5.94" ry="3.297"/>
		
			<rect x="108.804" y="84.576" transform="matrix(0.8903 0.4554 -0.4554 0.8903 52.255 -42.6933)" fill="#588A3E" width="11.84" height="5.033"/>
	</g>
	
		<rect x="76.671" y="54.351" transform="matrix(0.8279 -0.5608 0.5608 0.8279 -22.2839 55.1322)" display="inline" fill="#9B5524" width="4.066" height="19.061"/>
	<path display="inline" fill="#588A3E" d="M82.834,45.867c2.614,3.86-0.242,10.362-6.383,14.525
		c-6.142,4.164-13.239,4.409-15.855,0.55c-2.617-3.855,0.243-10.361,6.382-14.522C73.118,42.256,80.22,42.011,82.834,45.867z"/>
	<path display="inline" fill="#588A3E" d="M75.75,58.293c1.292,1.906-0.368,5.292-3.715,7.56c-3.344,2.264-7.103,2.558-8.395,0.648
		c-1.294-1.909,0.368-5.293,3.712-7.559C70.694,56.673,74.454,56.384,75.75,58.293z"/>
	
		<rect x="70.047" y="79.622" transform="matrix(0.5412 -0.8409 0.8409 0.5412 -39.2337 99.0528)" display="inline" fill="#9B5524" width="2.212" height="11.716"/>
	<path display="inline" fill="#588A3E" d="M68.985,75.547c2.021,1.297,1.971,4.979-0.11,8.225c-2.081,3.245-5.408,4.824-7.431,3.529
		c-2.021-1.3-1.971-4.982,0.108-8.226C63.636,75.827,66.963,74.248,68.985,75.547z"/>
	
		<rect x="122.556" y="62.574" transform="matrix(0.7951 0.6065 -0.6065 0.7951 67.3288 -60.9335)" display="inline" fill="#9B5524" width="2.573" height="13.203"/>
	<path display="inline" fill="#588A3E" d="M137.098,68.146c-1.666,2.184-6.598,1.219-11.016-2.152
		c-4.419-3.373-6.649-7.876-4.983-10.059c1.668-2.188,6.601-1.221,11.019,2.148C136.534,61.456,138.767,65.96,137.098,68.146z"/>
</g>
<g id="_x32_233" display="none">
	<path display="inline" fill="#F3BE35" d="M100,50c-27.614,0-50,22.386-50,50l7.125-7.125L62.859,100l2.516,3.125L68.31,100
		L75,92.875L81.343,100l2.782,3.125l2.82-3.125l6.43-7.125L100,100l3,3.125l3.446-3.125l5.929-5.375l4.664,5.375l2.711,3.125
		l3.586-3.125l5.164-4.5l3.394,4.5l2.356,3.125l3.354-3.125l5.771-5.375L150,100C150,72.386,127.614,50,100,50z"/>
	<path display="inline" fill="#5E1C37" d="M143.375,94.625L137.604,100l-3.354,3.125L131.894,100l-3.394-4.5l-5.164,4.5
		l-3.586,3.125L117.039,100l-4.664-5.375L106.446,100L103,103.125L100,100l-6.625-7.125L86.945,100l-2.82,3.125L81.343,100
		L75,92.875L68.31,100l-2.935,3.125L62.859,100l-5.734-7.125L50,100c0,27.614,22.386,50,50,50s50-22.386,50-50L143.375,94.625z"/>
</g>
<g id="Marais" display="none">
	<path display="inline" fill="#A01C4D" d="M120.26,124.354c0,0-5.571-2.813-5.01,3.146c0.561,5.961,7.521,0.606,8.24-2.956
		c0.721-3.565-0.066-6.731,1.567-8.377c1.632-1.646,9.164-3.349,9.942-1.792c0,0-8.662,1.146-8.875,4.125
		c-0.25,3.5-2.193,11.134-3.635,12.294c-1.439,1.162-10.694,1.489-10.37-2.13C112.753,121.576,116.049,119.294,120.26,124.354z"/>
	<g display="inline">
		<path fill="#5B4B1E" d="M87.362,129.423c0,0-2.983,11.218-11.506,11.011c-9.408-0.228-16.086,6.718-16.086,6.718
			s2.902-10.114,9.642-12.649c6.75-2.541,5.365-6.746,2.657-12.047"/>
		<polyline fill="#D3C090" points="80.535,137.869 77.873,142.512 75.333,139.416 		"/>
		<polyline fill="#D3C090" points="64.158,141.872 61.121,137.417 65.604,138.468 		"/>
		<polyline fill="#D3C090" points="75.906,133.718 70.295,131.649 74.893,129.211 		"/>
	</g>
	<path display="inline" fill="#A01C4D" d="M76.695,112.125c0,0,0.214-8.959-5.732-4.669c-5.946,4.294,4.512,8.85,8.696,7.388
		c4.188-1.464,5.826-3.476,8.54-2.792c2.71,0.685,6.581,5.969,5.404,7.75c0,0-3.381-4.884-7-4.787
		c-1.342,0.035-14.588,4.868-16.673,4.082c-2.086-0.783-6.656-10.896-2.647-12.809S79.919,103.484,76.695,112.125z"/>
	<g display="inline">
		<path fill="#5B4B1E" d="M133.834,118.521c0,0-0.054,7.804,3.424,8.698c2.646,0.679,9.872,2.248,12.558,5.956
			c1.345,1.855,1.6,5.966-0.871,8.813c-2.103,2.425-7.413,2.677-8.318,1.734c-1.967-2.05-4.105-2.563-1.521-4.841
			c2.584-2.275,3.885,0.389,3.885,0.389s-3.647,0.64-3.408,1.67c0.237,1.03,2.478,1.824,4.122,1.422
			c1.643-0.404,5.782-4.503,3.141-7.549c-2.642-3.047-9.853-1.601-13.022-2.023c-2.188-0.292-6.905-2.457-6.905-2.457"/>
		<polyline fill="#D3C090" points="134.847,126.666 139.447,123.787 138.347,128.764 		"/>
		<polyline fill="#D3C090" points="146.765,131.602 152.959,130.165 149.826,134.944 		"/>
		<polyline fill="#D3C090" points="136.609,131.866 134.188,137.646 132.692,131.442 		"/>
		<polyline fill="#D3C090" points="149.516,139.522 149.959,144.711 146.727,142.056 		"/>
	</g>
	<path display="inline" fill="#A01C4D" d="M80.75,142.898c0,0,6.306-0.982,10.709,1.945c4.724,3.142,9.291,2.394,9.291,2.394
		c-4.725-2.095-6.299-5.835-8.819-5.984C88.133,141.027,80.75,142.898,80.75,142.898z"/>
</g>
<g id="Desert" display="none">
	<g display="inline">
		<path fill="#F3BE35" d="M57.672,57.539c0.273,5.591-2.633,24.941-2.633,24.941s19.574-22.945,19.495-23.212
			C69.239,59.936,60.404,56.94,57.672,57.539z"/>
		<path fill="#C48F2C" d="M53.696,86.534c0,0,5.589-25.642,1.1-29.447c10.942-2.604,13.917,4.306,21.433,0.976
			c-4.234,5.099-12.864-0.656-18.283,0.274C61.315,65.427,53.696,86.534,53.696,86.534z"/>
	</g>
	<g display="inline">
		<path fill="#F3BE35" d="M69.489,47.816c-0.499,5.958-6.445,25.838-6.445,25.838S87.742,53.18,87.693,52.884
			C81.804,52.57,72.565,47.709,69.489,47.816z"/>
		<path fill="#C48F2C" d="M60.995,77.678c0,0,9.779-26.009,5.411-30.893c12.347-0.646,14.614,7.222,23.314,5.149
			c-5.363,4.571-13.982-3.165-20.045-3.222C72.348,56.847,60.995,77.678,60.995,77.678z"/>
	</g>
	<g display="inline">
		<path fill="#F3BE35" d="M83.047,46.665c-1.426,4.762-9.657,19.796-9.657,19.796s23.556-11.759,23.565-12.009
			C92.229,53.014,85.562,47.192,83.047,46.665z"/>
		<path fill="#C48F2C" d="M71.038,69.333c0,0,12.393-19.266,9.683-24.127c10.133,1.948,10.626,8.824,18.044,8.877
			c-5.137,2.655-10.809-5.387-15.721-6.648C83.821,54.608,71.038,69.333,71.038,69.333z"/>
	</g>
	<g display="inline">
		<path fill="#52AD17" d="M133.347,55.866c-1.868,3.637-5.186,5.725-7.408,4.666c-2.223-1.06-2.505-4.867-0.634-8.506
			c1.867-3.636,5.186-5.726,7.406-4.665C134.933,48.42,135.217,52.229,133.347,55.866z"/>
		<path fill="#52AD17" d="M129.354,69.855c-1.098,2.441,2.043,6.104,7.015,8.184c4.977,2.078,9.896,1.784,10.997-0.656
			c1.101-2.439-2.041-6.102-7.013-8.181C135.376,67.122,130.452,67.416,129.354,69.855z"/>
		<g>
			<path fill="#36750D" d="M135.332,50.133c-0.461,0.615-2.087,0.242-3.629-0.834c-1.543-1.078-2.419-2.451-1.954-3.067
				c0.462-0.617,2.09-0.245,3.631,0.833C134.924,48.146,135.799,49.519,135.332,50.133z"/>
			<path fill="#D80E73" d="M135.92,48.553c-1.234,1.095-3.082,1.09-4.127-0.008c-1.045-1.096-0.893-2.869,0.344-3.961
				c1.235-1.092,3.085-1.091,4.128,0.005C137.31,45.688,137.158,47.459,135.92,48.553z"/>
		</g>
		<g>
			<path fill="#36750D" d="M148.914,77.275c-0.555,0.522-2.275-0.313-3.844-1.862c-1.567-1.55-2.391-3.228-1.836-3.749
				c0.556-0.521,2.276,0.313,3.845,1.863C148.646,75.077,149.47,76.755,148.914,77.275z"/>
			<path fill="#D80E73" d="M149.299,75.101c-0.865,0.813-2.426,0.624-3.485-0.423c-1.058-1.047-1.216-2.556-0.351-3.366
				c0.864-0.813,2.427-0.622,3.484,0.423C150.008,72.781,150.163,74.29,149.299,75.101z"/>
		</g>
		<path fill="#52AD17" d="M139.023,57.283c-3.287-3.25-10.699-1.422-16.557,4.078c-3.404,3.197-5.522,6.929-6.064,10.134
			c1.252,0.682,2.604,1.579,3.946,2.659c1.824,1.467,3.315,3.01,4.315,4.383c3.115-0.654,6.624-2.52,9.707-5.414
			C140.228,67.623,142.313,60.532,139.023,57.283z"/>
		<path fill="#52AD17" d="M142.818,59.89c-3.143,0.295-5.503,1.967-5.272,3.729c0.229,1.762,2.964,2.946,6.105,2.648
			c3.139-0.299,5.504-1.968,5.271-3.729C148.695,60.777,145.961,59.59,142.818,59.89z"/>
		<g>
			<path fill="#36750D" d="M147.152,59.662c-0.542,0.221-0.501,1.408,0.095,2.654c0.595,1.246,1.518,2.077,2.059,1.852
				c0.543-0.222,0.503-1.413-0.094-2.655C148.613,60.266,147.693,59.436,147.152,59.662z"/>
			<path fill="#D80E73" d="M148.453,59.509c-1.025,0.681-1.299,1.965-0.615,2.866c0.684,0.902,2.067,1.082,3.089,0.402
				c1.022-0.685,1.3-1.97,0.615-2.869C150.856,59.005,149.477,58.823,148.453,59.509z"/>
		</g>
		<path fill="#36750D" d="M139.023,57.283c0,0-13.949-2.222-21.854,14.603C126.194,57.226,139.023,57.283,139.023,57.283z"/>
		<path fill="#36750D" d="M139.023,57.283c0,0-10.832,2.616-18.675,16.871C129.812,63.224,139.023,57.283,139.023,57.283z"/>
		<path fill="#36750D" d="M139.023,57.283c0,0-1.4,11.591-15.236,20.152C140.77,69.994,139.023,57.283,139.023,57.283z"/>
	</g>
	<g display="inline">
		<path fill="#F3BE35" d="M81.996,72.068c-0.649,3.802-5.801,16.277-5.801,16.277s18.268-11.918,18.249-12.111
			C90.35,75.738,84.147,72.152,81.996,72.068z"/>
		<path fill="#C48F2C" d="M74.563,90.827c0,0,8.135-16.219,5.333-19.576c8.649,0.204,9.835,5.372,16.012,4.476
			c-3.975,2.668-9.6-2.733-13.827-3.073C83.535,78.013,74.563,90.827,74.563,90.827z"/>
	</g>
</g>
<g id="_x34_455" display="none">
	<path display="inline" fill="#EF6237" d="M100,50c-27.614,0-50,22.386-50,50l7.125-7.125L62.859,100l2.516,3.125L68.31,100
		L75,92.875L81.343,100l2.782,3.125l2.82-3.125l6.43-7.125L100,100l3,3.125l3.446-3.125l5.929-5.375l4.664,5.375l2.711,3.125
		l3.586-3.125l5.164-4.5l3.394,4.5l2.356,3.125l3.354-3.125l5.771-5.375L150,100C150,72.386,127.614,50,100,50z"/>
	<path display="inline" fill="#D1D7DB" d="M143.375,94.625L137.604,100l-3.354,3.125L131.894,100l-3.394-4.5l-5.164,4.5
		l-3.586,3.125L117.039,100l-4.664-5.375L106.446,100L103,103.125L100,100l-6.625-7.125L86.945,100l-2.82,3.125L81.343,100
		L75,92.875L68.31,100l-2.935,3.125L62.859,100l-5.734-7.125L50,100c0,27.614,22.386,50,50,50s50-22.386,50-50L143.375,94.625z"/>
</g>
<g id="Lune" display="none">
	
		<ellipse transform="matrix(0.6947 -0.7193 0.7193 0.6947 -72.1449 91.534)" display="inline" fill="#A7A9AA" cx="71.75" cy="130.75" rx="3.999" ry="6.5"/>
	
		<ellipse transform="matrix(-0.0916 -0.9958 0.9958 -0.0916 -5.3032 231.2774)" display="inline" fill="#A7A9AA" cx="102.841" cy="118.058" rx="6.868" ry="11.16"/>
	
		<ellipse transform="matrix(-0.8216 -0.5701 0.5701 -0.8216 192.9897 285.5973)" display="inline" fill="#A7A9AA" cx="141.187" cy="112.599" rx="3.883" ry="6.311"/>
	
		<ellipse transform="matrix(-0.5157 -0.8567 0.8567 -0.5157 67.1474 312.9793)" display="inline" fill="#A7A9AA" cx="122.027" cy="137.513" rx="2.945" ry="4.787"/>
	
		<ellipse transform="matrix(-0.9915 0.1303 -0.1303 -0.9915 133.9864 205.2596)" display="inline" fill="#A7A9AA" cx="60.277" cy="107.014" rx="2.945" ry="4.787"/>
</g>
<g id="Volcan" display="none">
	<g display="inline">
		
			<ellipse transform="matrix(0.6829 -0.7305 0.7305 0.6829 -34.6971 73.191)" fill="#AF1F10" cx="66.959" cy="76.563" rx="8.125" ry="4.875"/>
		
			<ellipse transform="matrix(0.6829 -0.7305 0.7305 0.6829 -34.6973 73.1875)" fill="#EF0A0A" cx="66.959" cy="76.563" rx="6.706" ry="4.024"/>
	</g>
	<path display="inline" fill="#AF1F10" d="M115.625,63.272c0,0,8.102,1.144,19.213-8.087c3.175-2.579,5.703,1.313,5.953,5.557
		c-8.93,10.715-0.562,16.884-0.562,16.884s-10.417,0-15.604-3.319C121.385,72.233,115.625,63.272,115.625,63.272z"/>
	
		<ellipse transform="matrix(0.572 -0.8203 0.8203 0.572 10.5329 137.2859)" display="inline" fill="#EF0A0A" cx="136.815" cy="58.55" rx="1.833" ry="2.791"/>
	<polygon display="inline" fill="#AF1F10" points="91,54.807 86.623,63.701 89.96,65.956 87.506,72.472 92.102,64.29 89.831,62.723 
			"/>
	<polygon display="inline" fill="#AF1F10" points="116.016,87.062 107.861,83.092 105.834,84.315 99.866,81.785 107.372,85.722 
		108.782,84.896 	"/>
</g>
<g id="Calque_13" display="none">
	
		<text transform="matrix(0.9512 0.8547 -0.6684 0.7438 109.0439 78.0039)" display="inline" font-family="'MyriadPro-Regular'" font-size="27.9458">0</text>
	
		<text transform="matrix(-1.0162 0.9742 -0.692 -0.7219 120.4873 102.291)" display="inline" font-family="'MyriadPro-Regular'" font-size="30.4023">1</text>
	
		<text transform="matrix(-1.0539 -0.9333 0.663 -0.7486 94.7852 117.4951)" display="inline" font-family="'MyriadPro-Regular'" font-size="30.4023">2</text>
	
		<text transform="matrix(0.9925 -0.9983 0.7092 0.705 77.4375 90.1484)" display="inline" font-family="'MyriadPro-Regular'" font-size="30.4023">3</text>
</g>
<g id="_x36_677" display="none">
	<path display="inline" fill="#EFF8F9" d="M100,150c27.614,0,50-22.386,50-50l-7.125,7.125L137.141,100l-2.516-3.125L131.69,100
		l-6.69,7.125L118.657,100l-2.782-3.125l-2.82,3.125l-6.43,7.125L100,100l-3-3.125L93.554,100l-5.929,5.375L82.961,100l-2.711-3.125
		L76.664,100l-5.164,4.5l-3.394-4.5l-2.356-3.125L62.396,100l-5.771,5.375L50,100C50,127.614,72.386,150,100,150z"/>
	<path display="inline" fill="#F4E7AE" d="M56.625,105.375L62.396,100l3.354-3.125L68.106,100l3.394,4.5l5.164-4.5l3.586-3.125
		L82.961,100l4.664,5.375L93.554,100L97,96.875l3,3.125l6.625,7.125l6.43-7.125l2.82-3.125l2.782,3.125l6.343,7.125l6.69-7.125
		l2.935-3.125l2.516,3.125l5.734,7.125L150,100c0-27.614-22.386-50-50-50s-50,22.386-50,50L56.625,105.375z"/>
	<path display="inline" fill="#845E44" d="M55.579,104.526c-0.85-1.99-1.484-3.999-1.246-5.693c0.592-4.202,5.585-9.438,7-12.666
		c1.406-3.209-0.667-9.834,3.277-14.993c3.305-4.322,11.889-2.673,14.889-4.007s7.667-9.167,10.5-9.922s9.834,2.255,12.834,2.255
		s11.833-3.333,14.666-2s4,8.167,8,10.167c3.225,1.612,9.167,1.333,12.167,6.166c1.535,2.473,0.314,8.201,1.769,12.424
		c1.231,3.576,5.898,5.41,5.898,10.618c0,3.818-1.775,8.244-2.594,10.082l0.136,0.168L150,100c0-27.614-22.386-50-50-50
		s-50,22.386-50,50L55.579,104.526z"/>
</g>
<g id="Noel" display="none">
	<circle display="inline" fill="#FFFFFF" cx="67.914" cy="65.098" r="13.056"/>
	<circle display="inline" fill="#FFFFFF" cx="60.315" cy="48.666" r="8.721"/>
	
		<rect x="55.054" y="52.857" transform="matrix(0.9076 -0.4197 0.4197 0.9076 -17.1208 31.5112)" display="inline" fill="#EF0C0C" width="15.986" height="3.609"/>
	<polyline display="inline" fill="#F98800" points="59.758,48.188 68.828,43.989 62.193,50.925 	"/>
	<g display="inline">
		
			<rect x="48.573" y="34.841" transform="matrix(0.8319 -0.5549 0.5549 0.8319 -13.2399 37.4158)" fill="#665D5D" width="13.13" height="11.44"/>
		
			<rect x="46.719" y="43.344" transform="matrix(0.8319 -0.555 0.555 0.8319 -14.9779 39.4599)" fill="#665D5D" width="21.828" height="2.208"/>
	</g>
	<line display="inline" fill="none" stroke="#845E44" stroke-miterlimit="10" x1="74.446" y1="37.915" x2="72.449" y2="54.009"/>
	<line display="inline" fill="none" stroke="#845E44" stroke-miterlimit="10" x1="41.639" y1="63.201" x2="60.339" y2="62.813"/>
	<circle display="inline" fill="#101111" cx="56.999" cy="47.754" r="0.995"/>
	<circle display="inline" fill="#101111" cx="62.468" cy="44.635" r="0.994"/>
	<g display="inline">
		<path fill="#FFFFFF" d="M133.785,51.854c-13.548-8.28-30.874-4.614-38.698,8.188l49.063,29.984
			C151.975,77.225,147.334,60.134,133.785,51.854z"/>
		<path fill="#CEF2F2" d="M115.917,62.525c-4.404-2.692-10.038-1.5-12.582,2.662l15.952,9.749
			C121.831,70.774,120.322,65.217,115.917,62.525z"/>
		<path fill="#94D3D1" d="M115.917,62.525c0.289,0.176,0.563,0.365,0.827,0.565c-4.249-2.044-9.325-0.75-11.703,3.14l-1.706-1.043
			C105.879,61.025,111.513,59.833,115.917,62.525z"/>
		<path fill="#94D3D1" d="M133.785,51.854c0,0-0.505,7.895-11.021,25.104l1.174,0.716C134.291,60.732,133.785,51.854,133.785,51.854
			z"/>
		<path fill="#94D3D1" d="M133.785,51.854c0,0-20.932-6.641-32.361,12.061l-1.358-0.83
			C111.669,44.097,133.785,51.854,133.785,51.854z"/>
		<path fill="#94D3D1" d="M133.785,51.854c0,0,14.293,8.733,0.126,31.915l1.067,0.652C148.885,61.667,133.785,51.854,133.785,51.854
			z"/>
		<path fill="none" stroke="#94D3D1" stroke-miterlimit="10" d="M147.133,67.245"/>
		<path fill="none" stroke="#94D3D1" stroke-miterlimit="10" d="M113.287,46.561"/>
		<path fill="#94D3D1" d="M102.464,52.246l45.26,27.66c0.036-0.271,0.061-0.541,0.088-0.813l-44.665-27.297
			C102.917,51.945,102.688,52.09,102.464,52.246z"/>
		<path fill="#94D3D1" d="M112.695,47.967l34.169,20.882c-0.103-0.356-0.209-0.711-0.324-1.063l-32.75-20.014
			C113.424,47.828,113.06,47.896,112.695,47.967z"/>
	</g>
	<polygon display="inline" fill="#2E6D0C" points="40.875,92.75 30.125,57.101 19.875,92.75 	"/>
	<polygon display="inline" fill="#EFF8F9" points="25,74.926 35.5,74.926 30.125,57.101 	"/>
	<rect x="27.188" y="92.75" display="inline" fill="#845E44" width="6.375" height="10.598"/>
</g>
<g id="Sucre" display="none">
	<g display="inline">
		<rect x="70.993" y="64.999" transform="matrix(1 -0.0047 0.0047 1 -0.3605 0.3395)" fill="#F9F4ED" width="2.5" height="24.168"/>
		<ellipse transform="matrix(1 -0.0045 0.0045 1 -0.2532 0.328)" fill="#FCD61D" cx="72.198" cy="56" rx="9.584" ry="10.333"/>
		<path fill="#F2930A" d="M62.851,53.739l15.878-5.283c-0.786-0.792-1.692-1.442-2.689-1.916l-11.961,3.98
			C63.511,51.496,63.091,52.579,62.851,53.739z"/>
		<path fill="#F2930A" d="M63.354,59.971l18.227-6.064c-0.171-0.895-0.457-1.74-0.826-2.535l-18.046,6.004
			C62.821,58.283,63.039,59.154,63.354,59.971z"/>
		<path fill="#F2930A" d="M81.675,57.465L65.14,62.966c0.681,0.802,1.474,1.488,2.356,2.026l13.29-4.422
			C81.227,59.609,81.53,58.565,81.675,57.465z"/>
	</g>
	<line display="inline" fill="#F74BC3" x1="104.334" y1="54.667" x2="104.334" y2="88"/>
	<g display="inline">
		<rect x="216.375" y="8.229" fill="#F74BC3" width="65.875" height="2.25"/>
		<rect x="216.375" y="13.229" fill="#F74BC3" width="65.875" height="2.25"/>
		<rect x="216.375" y="17.854" fill="#F74BC3" width="65.875" height="2.25"/>
		<rect x="216.375" y="23.27" fill="#F74BC3" width="65.875" height="2.25"/>
		<rect x="216.375" y="28.395" fill="#F74BC3" width="65.875" height="2.25"/>
		<rect x="216.125" y="39.313" fill="#F74BC3" width="65.875" height="2.25"/>
		<rect x="216.125" y="44.291" fill="#F74BC3" width="65.875" height="2.25"/>
		<rect x="216.125" y="49.291" fill="#F74BC3" width="65.875" height="2.25"/>
		<rect x="216.125" y="54.854" fill="#F74BC3" width="65.875" height="2.25"/>
		<rect x="216.125" y="59.354" fill="#F74BC3" width="65.875" height="2.25"/>
		<rect x="216.375" y="33.645" fill="#F74BC3" width="65.875" height="2.25"/>
	</g>
	<g display="inline">
		<g>
			<rect x="91.001" y="56.778" fill="#7CF76B" width="3.833" height="33.333"/>
			<path fill="#7CF76B" d="M101.668,47.082c-5.563,0-10.127,4.261-10.618,9.696h3.861c0.472-3.313,3.313-5.863,6.757-5.863
				s6.285,2.55,6.757,5.863h3.861C111.795,51.343,107.231,47.082,101.668,47.082z"/>
		</g>
		<g>
			<path fill="#52BF52" d="M101.668,47.082c-0.077,0-0.151,0.009-0.229,0.011l-9.849,7.2c-0.271,0.792-0.463,1.621-0.541,2.485
				h0.953l4.131-3.02c0.839-1.165,2.033-2.052,3.427-2.505l5.117-3.74C103.724,47.232,102.714,47.082,101.668,47.082z"/>
			<path fill="#52BF52" d="M105.87,52.37l3.17-2.316c-0.564-0.542-1.187-1.021-1.858-1.429l-3.537,2.585
				C104.463,51.458,105.214,51.855,105.87,52.37z"/>
			<polygon fill="#52BF52" points="91.001,63.24 94.834,60.438 94.834,57.651 91.001,60.453 			"/>
			<path fill="#52BF52" d="M110.974,52.562l-3.13,2.288c0.282,0.601,0.484,1.247,0.581,1.929h0.593l2.86-2.092
				C111.654,53.939,111.347,53.23,110.974,52.562z"/>
			<polygon fill="#52BF52" points="91.001,69.948 94.834,67.146 94.834,64.359 91.001,67.161 			"/>
			<polygon fill="#52BF52" points="91.001,76.297 94.834,73.495 94.834,70.708 91.001,73.51 			"/>
			<polygon fill="#52BF52" points="91.001,89.821 94.834,87.019 94.834,84.231 91.001,87.033 			"/>
			<polygon fill="#52BF52" points="91.001,82.8 94.834,79.998 94.834,77.211 91.001,80.013 			"/>
		</g>
	</g>
	<ellipse display="inline" fill="#DFF9B2" cx="128.226" cy="51.497" rx="7.607" ry="7.625"/>
	<ellipse display="inline" fill="#F462C3" cx="124.94" cy="53.307" rx="7.607" ry="7.625"/>
	<polygon display="inline" fill="#F4A753" points="128.197,78.563 135.833,55.025 116.166,55.025 123.803,78.563 	"/>
	<polygon display="inline" fill="#BF752B" points="135.229,56.89 135.833,55.025 132.34,55.025 	"/>
	<polygon display="inline" fill="#BF752B" points="132.461,65.42 116.356,55.025 116.166,55.025 117.215,58.257 131.742,67.634 	"/>
	<polygon display="inline" fill="#BF752B" points="130.152,72.533 130.871,70.319 118.548,62.365 119.646,65.752 	"/>
	<polygon display="inline" fill="#BF752B" points="128.557,77.454 129.274,75.24 120.989,69.893 122.089,73.279 	"/>
	<polygon display="inline" fill="#BF752B" points="133.552,62.057 134.271,59.842 126.809,55.025 122.658,55.025 	"/>
</g>
<g id="_x36_677_-_copie">
	<path fill="#EFF8F9" d="M100,50c-27.614,0-50,22.386-50,50l7.125-7.125L62.859,100l2.516,3.125L68.31,100L75,92.875L81.343,100
		l2.782,3.125l2.82-3.125l6.43-7.125L100,100l3,3.125l3.446-3.125l5.929-5.375l4.664,5.375l2.711,3.125l3.586-3.125l5.164-4.5
		l3.394,4.5l2.356,3.125l3.354-3.125l5.771-5.375L150,100C150,72.386,127.614,50,100,50z"/>
	<path fill="#F4E7AE" d="M143.375,94.625L137.604,100l-3.354,3.125L131.894,100l-3.394-4.5l-5.164,4.5l-3.586,3.125L117.039,100
		l-4.664-5.375L106.446,100L103,103.125L100,100l-6.625-7.125L86.945,100l-2.82,3.125L81.343,100L75,92.875L68.31,100l-2.935,3.125
		L62.859,100l-5.734-7.125l-6.436,6.436c0.475,27.866,22.362,50.309,49.311,50.309c26.907,0,48.768-22.374,49.308-50.181
		L143.375,94.625z"/>
	<path fill="#845E44" d="M144.421,95.474c0.85,1.99,1.484,3.999,1.246,5.693c-0.592,4.202-5.585,9.438-7,12.666
		c-1.406,3.209,0.667,9.834-3.277,14.993c-3.305,4.322-11.889,2.673-14.889,4.007s-7.667,9.167-10.5,9.922
		s-9.834-2.255-12.834-2.255s-11.833,3.333-14.666,2s-4-8.167-8-10.167c-3.225-1.612-9.167-1.333-12.167-6.166
		c-1.535-2.473-0.314-8.201-1.769-12.424c-1.231-3.576-5.898-5.41-5.898-10.618c0-3.818,1.775-8.244,2.594-10.082l-0.136-0.168
		L50,100c0,27.614,22.386,50,50,50s50-22.386,50-50L144.421,95.474z"/>
</g>
<g id="Noel_-_copie">
	<g>
		<path fill="#FFFFFF" d="M133.785,51.854c-13.548-8.28-30.874-4.614-38.698,8.188l49.063,29.984
			C151.975,77.225,147.334,60.134,133.785,51.854z"/>
		<path fill="#CEF2F2" d="M115.917,62.525c-4.404-2.692-10.038-1.5-12.582,2.662l15.952,9.749
			C121.831,70.774,120.322,65.217,115.917,62.525z"/>
		<path fill="#94D3D1" d="M115.917,62.525c0.289,0.176,0.563,0.365,0.827,0.565c-4.249-2.044-9.325-0.75-11.703,3.14l-1.706-1.043
			C105.879,61.025,111.513,59.833,115.917,62.525z"/>
		<path fill="#94D3D1" d="M133.785,51.854c0,0-0.505,7.895-11.021,25.104l1.174,0.716C134.291,60.732,133.785,51.854,133.785,51.854
			z"/>
		<path fill="#94D3D1" d="M133.785,51.854c0,0-20.932-6.641-32.361,12.061l-1.358-0.83
			C111.669,44.097,133.785,51.854,133.785,51.854z"/>
		<path fill="#94D3D1" d="M133.785,51.854c0,0,14.293,8.733,0.126,31.915l1.067,0.652C148.885,61.667,133.785,51.854,133.785,51.854
			z"/>
		<path fill="none" stroke="#94D3D1" stroke-miterlimit="10" d="M147.133,67.245"/>
		<path fill="none" stroke="#94D3D1" stroke-miterlimit="10" d="M113.287,46.561"/>
		<path fill="#94D3D1" d="M102.464,52.246l45.26,27.66c0.036-0.271,0.061-0.541,0.088-0.813l-44.665-27.297
			C102.917,51.945,102.688,52.09,102.464,52.246z"/>
		<path fill="#94D3D1" d="M112.695,47.967l34.169,20.882c-0.103-0.356-0.209-0.711-0.324-1.063l-32.75-20.014
			C113.424,47.828,113.06,47.896,112.695,47.967z"/>
	</g>
	<polyline fill="#2E6D0C" points="60.957,55.474 53.238,62.593 61.555,79.17 76.992,64.933 	"/>
	<polygon fill="#EFF8F9" points="53.238,62.593 60.957,55.474 44.921,46.014 	"/>
	
		<rect x="69.678" y="70.648" transform="matrix(0.7352 -0.6779 0.6779 0.7352 -32.1858 69.5064)" fill="#845E44" width="6.375" height="10.597"/>
</g>
<g id="Sucre_-_copie">
	<g>
		
			<rect x="72.51" y="104.787" transform="matrix(-0.6591 -0.752 0.752 -0.6591 35.4249 246.5565)" fill="#F9F4ED" width="2.165" height="20.925"/>
		
			<ellipse transform="matrix(-0.6589 -0.7523 0.7523 -0.6589 3.534 256.0919)" fill="#FCD61D" cx="59.833" cy="127.245" rx="8.297" ry="8.946"/>
		<path fill="#F2930A" d="M63.659,134.639l-12.464-7.383c-0.072,0.963,0.018,1.925,0.273,2.846l9.391,5.563
			C61.819,135.479,62.766,135.141,63.659,134.639z"/>
		<path fill="#F2930A" d="M67.448,130.773l-14.309-8.477c-0.488,0.62-0.879,1.287-1.188,1.979l14.166,8.392
			C66.647,132.079,67.094,131.442,67.448,130.773z"/>
		<path fill="#F2930A" d="M55.413,120.218l12.98,7.688c0.138-0.899,0.137-1.808-0.013-2.69l-10.433-6.18
			C57.069,119.292,56.215,119.686,55.413,120.218z"/>
	</g>
	<line fill="#F74BC3" x1="104.334" y1="54.667" x2="104.334" y2="88"/>
	<g>
		
			<ellipse transform="matrix(-0.6826 0.7308 -0.7308 -0.6826 330.2368 125.0337)" fill="#DFF9B2" cx="137.968" cy="134.227" rx="8.828" ry="8.848"/>
		
			<ellipse transform="matrix(-0.6826 0.7308 -0.7308 -0.6826 328.9501 117.1511)" fill="#F462C3" cx="139.036" cy="130.006" rx="8.828" ry="8.849"/>
		<polygon fill="#F4A753" points="115.038,112.761 128.949,137.882 144.53,121.203 118.519,109.033 		"/>
		<polygon fill="#BF752B" points="127.848,135.893 128.949,137.882 131.717,134.919 		"/>
		<polygon fill="#BF752B" points="122.806,126.788 144.378,121.365 144.53,121.203 140.958,119.532 121.498,124.425 		"/>
		<polygon fill="#BF752B" points="118.603,119.194 119.91,121.559 136.418,117.408 132.676,115.657 		"/>
		<polygon fill="#BF752B" points="115.693,113.943 117.002,116.306 128.101,113.516 124.357,111.766 		"/>
		<polygon fill="#BF752B" points="124.794,130.377 126.103,132.741 136.099,130.229 139.388,126.709 		"/>
	</g>
</g>
</svg>
